<svg width="158" height="115" viewBox="0 0 158 115" fill="none" xmlns="http://www.w3.org/2000/svg">
<g clip-path="url(#clip0_1616_11601)">
<path d="M7.07153 111.319C7.00909 110.19 6.93882 108.836 6.95052 107.828H6.91151C6.63442 108.774 6.2988 109.767 5.88903 110.896L4.45286 114.818H3.67234L2.35718 110.97C1.96692 109.829 1.64299 108.786 1.41664 107.828H1.38934C1.36593 108.836 1.30738 110.19 1.23323 111.4L1.01862 114.868H0.015625L0.581528 106.784H1.92009L3.30943 110.694C3.64896 111.687 3.92603 112.576 4.12896 113.41H4.16407C4.37091 112.591 4.65973 111.703 5.02267 110.694L6.47051 106.784H7.80907L8.31643 114.868H7.29005L7.07153 111.319Z" fill="white"/>
<path d="M15.2109 111.078H12.0498V113.992H15.5621V114.868H10.9883V106.784H15.3904V107.661H12.0498V110.213H15.2109V111.078Z" fill="white"/>
<path d="M24.8762 111.319C24.8137 110.19 24.7435 108.836 24.7552 107.828H24.7201C24.443 108.774 24.1035 109.767 23.6937 110.896L22.2575 114.818H21.477L20.1619 110.97C19.7716 109.829 19.4516 108.786 19.2214 107.828H19.1979C19.1745 108.836 19.1121 110.19 19.0379 111.4L18.8233 114.868H17.8203L18.3901 106.784H19.7287L21.1141 110.694C21.4536 111.687 21.7307 112.576 21.9337 113.41H21.9727C22.1756 112.591 22.4644 111.703 22.8274 110.694L24.2752 106.784H25.6138L26.1211 114.868H25.0947L24.8762 111.319Z" fill="white"/>
<path d="M35.7547 110.741C35.7547 113.522 34.0532 115.008 31.977 115.008C29.8306 115.008 28.3242 113.352 28.3242 110.904C28.3242 108.34 29.9282 106.66 32.098 106.66C34.2678 106.66 35.7547 108.344 35.7547 110.741ZM29.4443 110.873C29.4443 112.599 30.3848 114.147 32.0395 114.147C33.6942 114.147 34.6464 112.622 34.6464 110.791C34.6464 109.182 33.7995 107.502 32.0512 107.502C30.3028 107.502 29.4404 109.1 29.4404 110.873H29.4443Z" fill="white"/>
<path d="M38.2031 106.893C38.8676 106.774 39.5417 106.717 40.2168 106.722C41.3408 106.722 42.0628 106.928 42.5584 107.381C42.7708 107.579 42.9379 107.82 43.0483 108.088C43.1588 108.356 43.21 108.644 43.1984 108.933C43.2045 109.396 43.0579 109.849 42.7809 110.221C42.504 110.594 42.112 110.866 41.6647 110.997V111.032C42.293 111.249 42.6677 111.808 42.8589 112.665C43.0044 113.416 43.216 114.154 43.4911 114.868H42.4062C42.1644 114.24 41.9828 113.591 41.8638 112.929C41.6218 111.811 41.1886 111.377 40.2364 111.358H39.2451V114.849H38.1953L38.2031 106.893ZM39.2529 110.574H40.3261C41.4501 110.574 42.1604 109.961 42.1604 109.022C42.1604 107.979 41.3798 107.525 40.291 107.513C39.9425 107.504 39.5941 107.535 39.2529 107.606V110.574Z" fill="white"/>
<path d="M46.8271 106.784V114.868H45.7773V106.784H46.8271Z" fill="white"/>
<path d="M53.957 111.078H50.7959V113.992H54.3082V114.868H49.7344V106.784H54.1248V107.661H50.7842V110.213H53.9453L53.957 111.078Z" fill="white"/>
<path d="M56.6208 113.596C57.1896 113.935 57.8389 114.117 58.5019 114.123C59.5751 114.123 60.2034 113.561 60.2034 112.742C60.2034 111.99 59.7702 111.555 58.6736 111.137C57.3428 110.671 56.5233 109.973 56.5233 108.848C56.5233 107.587 57.5731 106.652 59.1536 106.652C59.7767 106.628 60.3958 106.761 60.9527 107.04L60.6639 107.89C60.1845 107.632 59.6477 107.499 59.1029 107.502C57.9906 107.502 57.5692 108.161 57.5692 108.712C57.5692 109.465 58.0648 109.837 59.1887 110.264C60.5624 110.791 61.261 111.451 61.261 112.638C61.261 113.883 60.3322 114.965 58.416 114.965C57.6908 114.974 56.9757 114.796 56.3398 114.449L56.6208 113.596Z" fill="white"/>
<path d="M69.2476 114.868V111.435L66.6797 106.78H67.8739L69.0212 109.011C69.3334 109.624 69.5754 110.112 69.8291 110.679H69.8525C70.0827 110.151 70.3598 109.624 70.672 109.011L71.8428 106.78H73.037L70.3052 111.435V114.88L69.2476 114.868Z" fill="white"/>
<path d="M82.0047 110.741C82.0047 113.522 80.3032 115.008 78.227 115.008C76.0806 115.008 74.5703 113.352 74.5703 110.904C74.5703 108.34 76.1743 106.66 78.348 106.66C80.5217 106.66 82.0047 108.344 82.0047 110.741ZM75.6943 110.873C75.6943 112.599 76.6348 114.147 78.2856 114.147C79.9363 114.147 80.8925 112.622 80.8925 110.791C80.8925 109.182 80.0495 107.502 78.2973 107.502C76.545 107.502 75.6943 109.1 75.6943 110.873Z" fill="white"/>
<path d="M85.5029 106.784V111.567C85.5029 113.379 86.3107 114.147 87.3957 114.147C88.6016 114.147 89.3743 113.371 89.3743 111.567V106.784H90.4358V111.497C90.4358 113.98 89.1206 114.988 87.3605 114.988C85.6941 114.988 84.4414 114.038 84.4414 111.532V106.784H85.5029Z" fill="white"/>
<path d="M102.666 114.604C101.986 114.882 101.255 115.015 100.52 114.992C98.2288 114.992 96.5039 113.553 96.5039 110.9C96.5039 108.371 98.2288 106.656 100.75 106.656C101.412 106.629 102.071 106.752 102.678 107.017L102.428 107.866C101.911 107.637 101.351 107.524 100.785 107.533C98.8806 107.533 97.6122 108.743 97.6122 110.865C97.6122 112.843 98.7596 114.116 100.734 114.116C101.323 114.124 101.907 114.009 102.448 113.778L102.666 114.604Z" fill="white"/>
<path d="M106.381 112.324L105.542 114.868H104.457L107.22 106.784H108.485L111.259 114.868H110.139L109.269 112.324H106.381ZM109.046 111.509L108.266 109.181C108.086 108.654 107.965 108.177 107.844 107.707H107.821C107.7 108.188 107.567 108.677 107.431 109.17L106.65 111.497L109.046 111.509Z" fill="white"/>
<path d="M113.535 114.868V106.784H114.683L117.289 110.873C117.832 111.716 118.32 112.593 118.749 113.499H118.772C118.675 112.421 118.651 111.435 118.651 110.178V106.796H119.639V114.868H118.577L115.998 110.764C115.435 109.891 114.927 108.984 114.476 108.049H114.441C114.499 109.069 114.526 110.039 114.526 111.381V114.837L113.535 114.868Z" fill="white"/>
<path d="M127.253 106.784V110.167H131.183V106.784H132.244V114.868H131.183V111.078H127.253V114.868H126.203V106.784H127.253Z" fill="white"/>
<path d="M142.102 110.741C142.102 113.522 140.401 115.008 138.325 115.008C136.178 115.008 134.668 113.352 134.668 110.904C134.668 108.34 136.276 106.66 138.446 106.66C140.616 106.66 142.102 108.344 142.102 110.741ZM135.792 110.873C135.792 112.599 136.732 114.147 138.387 114.147C140.042 114.147 140.99 112.622 140.99 110.791C140.99 109.182 140.147 107.502 138.399 107.502C136.65 107.502 135.792 109.1 135.792 110.873Z" fill="white"/>
<path d="M144.566 106.784H145.616V113.992H149.09V114.868H144.566V106.784Z" fill="white"/>
<path d="M151.328 106.892C152.067 106.78 152.813 106.723 153.56 106.722C155.067 106.722 156.144 107.071 156.854 107.73C157.245 108.103 157.55 108.555 157.748 109.056C157.946 109.557 158.032 110.095 158.002 110.632C158.03 111.207 157.941 111.782 157.739 112.322C157.538 112.862 157.229 113.356 156.831 113.774C156.07 114.55 154.817 114.938 153.236 114.938C152.599 114.942 151.962 114.91 151.328 114.841V106.892ZM152.378 114.038C152.729 114.088 153.084 114.109 153.439 114.1C155.683 114.1 156.901 112.851 156.901 110.671C156.901 108.762 155.828 107.567 153.607 107.567C153.195 107.56 152.783 107.596 152.378 107.676V114.038Z" fill="white"/>
<path d="M125.265 89.2619C112.337 89.1921 99.4092 89.1288 86.4812 89.0719C86.1163 89.0918 85.7674 89.2278 85.4861 89.4598C81.2791 92.9859 74.2623 93.0635 70.028 89.5761C69.6111 89.216 69.069 89.0322 68.5177 89.0641C59.1983 89.1831 49.8776 89.2942 40.5556 89.3977C38.6278 89.421 33.7339 89.4481 29.1094 89.4792V90.255C41.8942 90.255 58.4217 90.255 68.6386 90.255C68.935 90.2369 69.2293 90.3144 69.4777 90.4761C71.3467 92.0596 73.6656 93.025 76.1121 93.238C79.5503 93.6027 82.7192 92.9083 85.4783 90.7399C85.8451 90.4585 86.2914 90.2984 86.7544 90.2821C99.5029 90.264 112.251 90.264 125 90.2821H125.843V89.2891C125.612 89.2852 125.445 89.2658 125.265 89.2619Z" fill="white"/>
<path d="M76.0873 81.9226C75.5019 80.4795 74.9712 78.9744 74.136 77.6788C67.9738 68.175 59.0252 62.5503 48.2541 59.5013C48.1401 59.4752 48.0216 59.4748 47.9074 59.5003C47.7933 59.5259 47.6863 59.5766 47.5946 59.6487L40.1211 66.9298L44.1915 67.4768L50.2483 68.7181L51.22 69.009C56.5938 70.6225 61.6786 73.0665 66.2879 76.2513L68.0714 77.4849L76.3917 83.9513C76.2707 83.1406 76.3098 82.4811 76.0873 81.9226Z" stroke="white" stroke-width="1.28" stroke-miterlimit="10"/>
<path d="M107.883 59.7384C107.555 59.3505 107.251 59.4474 106.872 59.5522C99.4726 61.518 92.7009 65.3301 87.1993 70.6271C83.9094 73.7846 81.0215 77.2564 79.3941 81.5816C79.1903 82.2858 79.048 83.0061 78.9688 83.7345L79.1756 83.816C83.6675 78.94 89.014 75.2199 94.9069 72.2291C100.8 69.2383 108.383 67.6479 115.111 66.9496L107.883 59.7384Z" stroke="white" stroke-width="1.28" stroke-miterlimit="10"/>
<path d="M103.158 49.2416C103.158 49.6594 103.498 49.998 103.919 49.998C104.339 49.998 104.68 49.6594 104.68 49.2416V38.6206C104.68 38.2029 104.339 37.8642 103.919 37.8642C103.498 37.8642 103.158 38.2029 103.158 38.6206V49.2416Z" fill="white"/>
<path d="M108.471 41.4517C108.471 41.034 108.131 40.6953 107.71 40.6953C107.29 40.6953 106.949 41.034 106.949 41.4517V46.3433C106.949 46.7611 107.29 47.0997 107.71 47.0997C108.131 47.0997 108.471 46.7611 108.471 46.3433V41.4517Z" fill="white"/>
<path d="M96.7866 48.4233C96.7866 48.841 97.1273 49.1797 97.5476 49.1797C97.9679 49.1797 98.3086 48.841 98.3086 48.4233V39.4393C98.3086 39.0215 97.9679 38.6828 97.5476 38.6828C97.1273 38.6828 96.7866 39.0215 96.7866 39.4393V48.4233Z" fill="white"/>
<path d="M99.9467 52.4848C99.9467 52.9025 100.287 53.2412 100.708 53.2412C101.128 53.2412 101.469 52.9025 101.469 52.4848V35.2305C101.469 34.8128 101.128 34.4741 100.708 34.4741C100.287 34.4741 99.9467 34.8128 99.9467 35.2305V52.4848Z" fill="white"/>
<path d="M52.3462 38.4732C52.3462 38.0555 52.0055 37.7168 51.5852 37.7168C51.1649 37.7168 50.8242 38.0555 50.8242 38.4732V49.0942C50.8242 49.512 51.1649 49.8506 51.5852 49.8506C52.0055 49.8506 52.3462 49.512 52.3462 49.0942V38.4732Z" fill="white"/>
<path d="M48.5533 41.3668C48.5533 40.949 48.2125 40.6104 47.7923 40.6104C47.372 40.6104 47.0312 40.949 47.0312 41.3668V46.2583C47.0312 46.6761 47.372 47.0148 47.7923 47.0148C48.2125 47.0148 48.5533 46.6761 48.5533 46.2583V41.3668Z" fill="white"/>
<path d="M58.7095 39.2916C58.7095 38.8738 58.3688 38.5352 57.9485 38.5352C57.5282 38.5352 57.1875 38.8738 57.1875 39.2916V48.2756C57.1875 48.6934 57.5282 49.032 57.9485 49.032C58.3688 49.032 58.7095 48.6934 58.7095 48.2756V39.2916Z" fill="white"/>
<path d="M55.5572 35.2301C55.5572 34.8123 55.2164 34.4736 54.7962 34.4736C54.3759 34.4736 54.0352 34.8123 54.0352 35.2301V52.4843C54.0352 52.9021 54.3759 53.2408 54.7962 53.2408C55.2164 53.2408 55.5572 52.9021 55.5572 52.4843V35.2301Z" fill="white"/>
<path d="M120.602 76.8256L119.592 75.7239C126.975 59.0127 123.362 36.6768 105.819 22.9681C97.6407 16.5663 87.5019 13.1436 77.0925 13.2703C65.1811 13.433 53.7987 18.1866 45.3449 26.5291C30.2224 41.4016 29.4419 62.1587 35.5221 75.6114L34.4919 76.7247C32.7263 72.8737 31.5591 68.7785 31.0303 64.5793C29.3248 50.7813 32.9347 38.5194 42.1565 28.0148C48.704 20.447 57.564 15.218 67.3828 13.1268C70.9404 12.3341 74.5785 11.954 78.2242 11.9941C100.098 12.223 119.646 27.7239 123.799 50.0093C125.539 59.3192 124.489 68.3148 120.602 76.8256Z" fill="white"/>
<path d="M120.603 76.8254C120.591 76.8575 120.576 76.8886 120.56 76.9185H120.673L120.603 76.8254ZM34.4922 76.7168L34.4648 76.744H34.5117L34.4922 76.7168Z" fill="white"/>
<path d="M22.0846 40.9941L20.6289 40.4006L22.9275 34.4307L24.4144 34.9543C24.4144 34.9543 22.9822 34.7449 22.2875 36.5525L22.1782 36.8318L28.8985 39.3882C29.8897 39.7761 30.358 39.4541 30.358 39.4541L29.5346 41.5876C29.5346 41.5876 29.4253 41.0368 28.4106 40.6527L21.6865 38.1042L21.5694 38.4067C20.8747 40.2144 22.0846 40.9941 22.0846 40.9941Z" fill="white"/>
<path d="M32.6287 31.8944L29.6003 30.2031C28.5154 29.5902 27.891 29.757 27.5046 30.4359C26.8724 31.553 27.7271 32.3754 28.7183 32.9263L31.3487 34.4003C32.1682 34.8581 32.6639 34.6098 32.6639 34.6098L31.5321 36.6114C31.5321 36.6114 31.5126 36.0606 30.6774 35.5912L25.5065 32.6974C25.3072 32.5593 25.0798 32.4665 24.8403 32.4256C24.6009 32.3847 24.3553 32.3967 24.1211 32.4608L24.804 30.7501L27.3602 32.1815C26.9466 31.4949 27.1105 30.8277 27.5007 30.1372C28.4842 28.4071 29.2686 28.4614 30.4979 29.1519L33.2961 30.7035C34.221 31.2233 34.7244 30.9634 34.7244 30.9634L33.5966 32.9534C33.5966 32.9534 33.5731 32.4258 32.6287 31.8944Z" fill="white"/>
<path d="M37.2975 24.5234H37.5824C37.8716 24.9177 38.0275 25.3931 38.0275 25.8811C38.0275 26.3691 37.8716 26.8445 37.5824 27.2388C36.6652 28.4025 35.1003 29.6477 32.8056 27.8866C30.8543 26.3932 30.9519 24.7834 31.9978 23.4412C32.7783 22.4287 33.8515 21.8895 35.1198 22.483L33.5978 26.8005C35.354 28.131 36.5794 27.9642 37.3287 27.0138C37.9336 26.3001 37.9141 25.3924 37.2975 24.5234ZM33.5042 26.7268L34.5735 23.705C33.5549 22.9291 32.5246 23.0106 32.1031 23.5537C31.5997 24.2015 31.4748 25.1557 33.5042 26.7345V26.7268Z" fill="white"/>
<path d="M44.4271 16.9402C42.4758 14.702 39.3108 19.3336 37.4727 17.2195C36.4503 16.0558 37.3127 14.6787 38.3976 13.7283C39.2016 13.0378 40.5675 12.2892 41.6719 12.8361L41.0202 13.8563C40.6718 13.5329 40.2129 13.353 39.7362 13.353C39.2595 13.353 38.8006 13.5329 38.4523 13.8563C37.781 14.4304 37.3674 15.2295 38.101 16.0752C39.6152 17.813 42.9324 13.1232 45.3364 15.8851C46.6828 17.4367 45.7267 19.0582 44.2944 20.2918C43.311 21.1374 41.5275 22.5028 39.8533 20.8077L40.5792 19.6439C42.0661 21.3546 43.4515 20.8077 44.1969 20.1793C45.2193 19.3297 45.5394 18.2009 44.4271 16.9402Z" fill="white"/>
<path d="M51.5287 11.0281C52.6995 12.8823 52.6253 14.3563 50.9004 15.5084C50.6801 15.6736 50.4271 15.7905 50.158 15.8514C49.8889 15.9122 49.6099 15.9156 49.3394 15.8614L49.956 16.8506C50.518 17.7506 51.0916 17.7738 51.0916 17.7738L49.1403 18.988C49.1403 18.988 49.3862 18.4837 48.8125 17.5644L45.831 12.7698C45.2573 11.8504 44.6914 11.8349 44.6914 11.8349L46.1002 10.6324L46.4398 11.1794C46.4705 10.8846 46.5752 10.6023 46.7443 10.3583C46.9134 10.1143 47.1415 9.91644 47.4076 9.78287C49.0233 8.75878 50.514 9.37945 51.5287 11.0281ZM50.3579 11.7728C49.4994 10.4035 48.4613 9.27858 47.3257 9.97682C46.5451 10.4695 46.6427 11.5285 47.3257 12.6224L48.4028 14.3408C48.9882 15.2796 49.8272 15.9894 50.7443 15.4308C51.9385 14.7093 51.0682 12.9017 50.3658 11.7728H50.3579Z" fill="white"/>
<path d="M58.7682 7.89376C59.8258 10.3182 58.7253 11.575 57.3516 12.1608C55.9779 12.7465 54.3115 12.7388 53.2344 10.2678C52.1572 7.79678 53.2812 6.59426 54.6666 6.00075C56.052 5.40725 57.7106 5.46544 58.7682 7.89376ZM57.5194 8.42908C56.4813 6.05119 55.5681 5.74473 54.7174 6.12101C53.8666 6.49728 53.4412 7.31577 54.4949 9.73245C55.5486 12.1491 56.4462 12.4129 57.297 12.0599C58.1477 11.7069 58.5575 10.8302 57.5389 8.42908H57.5194Z" fill="white"/>
<path d="M64.2568 8.36703L62.9143 7.24985L62.5826 8.25452L62.727 8.78207C62.7708 9.01688 62.8649 9.23957 63.003 9.43502C63.141 9.63046 63.3198 9.7941 63.5271 9.91479L61.2987 10.5199C61.2987 10.5199 61.6538 10.0622 61.4001 9.13897L59.8391 3.4716C59.5893 2.56389 59.0586 2.35827 59.0586 2.35827L60.7523 1.64453L62.5085 8.00239C62.649 7.61448 63.3241 5.63225 63.8198 4.32887C64.3505 2.95954 63.8705 2.95955 63.8705 2.95955L65.0647 2.63758C64.5824 3.09175 64.2169 3.65451 63.9993 4.27844L63.3749 6.10939L65.6266 7.99463C66.1136 8.40699 66.6829 8.71236 67.2969 8.8907L65.0061 9.51135C65.0061 9.51135 65.1349 9.11958 64.2568 8.36703Z" fill="white"/>
<path d="M73.3994 6.2031L73.5907 6.42033C73.5175 6.90879 73.2883 7.36093 72.937 7.71014C72.5857 8.05934 72.1308 8.28712 71.6394 8.35988C70.1525 8.54996 68.17 8.31334 67.8031 5.45832C67.4909 3.03 68.7007 1.96712 70.3944 1.74601C71.6706 1.58309 72.814 1.95161 73.3019 3.27826L69.1495 5.26048C69.4422 7.43666 70.4218 8.18919 71.6355 8.03403C72.5877 7.9099 73.2199 7.25434 73.3994 6.2031ZM69.1534 5.09368L72.0609 3.70884C71.8969 2.44425 71.1047 1.76928 70.4257 1.86626C69.6061 1.971 68.8568 2.55675 69.1534 5.09368Z" fill="white"/>
<path d="M79.9954 6.62508L80.0501 3.21536C80.0735 1.91198 79.6598 1.46977 78.77 1.45425C77.5212 1.43485 77.0685 2.36972 77.0451 3.66146L76.9982 6.57468C76.9787 7.61815 77.447 7.96338 77.447 7.96338L75.1367 7.92071C75.1367 7.92071 75.6167 7.63365 75.6362 6.55138L75.7026 2.67227C75.7221 1.59388 75.246 1.58613 75.246 1.58613L77.088 1.33011V2.28436C77.5251 1.46199 78.2276 1.31072 79.012 1.32623C80.9984 1.35726 81.4472 2.07489 81.4238 3.47525L81.3691 6.65224C81.3691 7.69572 81.8218 8.04097 81.8218 8.04097L79.5115 8.00218C79.5115 8.00218 79.9759 7.72675 79.9954 6.62508Z" fill="white"/>
<path d="M86.3352 7.23452L87.6543 1.4469C87.8923 0.395661 87.4943 0 87.4943 0L89.75 0.508162C89.75 0.508162 89.2153 0.717635 88.9694 1.7456L88.3372 4.51915L91.393 5.20575L92.0252 2.43607C92.2671 1.38095 91.8691 0.985285 91.8691 0.985285L94.1248 1.49345C94.1248 1.49345 93.5901 1.70292 93.3443 2.73477L92.0291 8.52239C91.791 9.55035 92.1852 9.96931 92.1852 9.96931L89.9295 9.46112C89.9295 9.46112 90.4602 9.27495 90.71 8.22371L91.3461 5.43849L88.2865 4.74802L87.6543 7.53322C87.4201 8.56506 87.8104 8.984 87.8104 8.984L85.5586 8.47584C85.5586 8.47584 86.0932 8.28964 86.3352 7.23452Z" fill="white"/>
<path d="M99.2476 10.6442L99.3101 10.9197C99.0113 11.312 98.594 11.599 98.1193 11.7386C97.6446 11.8782 97.1374 11.8631 96.6719 11.6955C95.2787 11.1563 93.6513 10.0042 94.7206 7.31985C95.6182 5.04282 97.1948 4.68205 98.7871 5.29883C99.9852 5.76432 100.813 6.63324 100.598 8.0142L95.9967 7.7737C95.2162 9.82575 95.7041 10.9507 96.8436 11.3929C97.71 11.7537 98.5842 11.4783 99.2476 10.6442ZM96.0553 7.64182L99.271 7.81248C99.7393 6.6216 99.3647 5.66346 98.7247 5.4152C97.9598 5.11651 96.9997 5.26781 96.0553 7.64182Z" fill="white"/>
<path d="M100.827 12.072L102.556 8.72823C102.687 8.52403 102.77 8.29374 102.801 8.05374C102.832 7.81373 102.81 7.56989 102.736 7.3395L104.476 7.96403L102.029 12.6888C101.902 12.8924 101.821 13.1208 101.791 13.3584C101.76 13.5959 101.782 13.8372 101.854 14.0659L99.8008 13.0185C99.8008 13.0185 100.39 12.9215 100.827 12.072ZM103.559 5.93526C103.677 5.71118 103.879 5.54215 104.121 5.46453C104.364 5.38692 104.627 5.40691 104.855 5.5202C105.076 5.64013 105.24 5.8415 105.313 6.08092C105.386 6.32034 105.362 6.57867 105.245 6.8003C105.188 6.91061 105.11 7.00875 105.016 7.08912C104.921 7.16949 104.811 7.23052 104.693 7.26871C104.574 7.30689 104.449 7.3215 104.325 7.31168C104.201 7.30186 104.08 7.26781 103.969 7.21148C103.857 7.1545 103.759 7.07628 103.678 6.98128C103.597 6.88628 103.536 6.77637 103.498 6.65784C103.46 6.5393 103.445 6.41446 103.456 6.29048C103.466 6.16649 103.501 6.04579 103.559 5.93526Z" fill="white"/>
<path d="M110.797 13.0377L109.455 12.7972C109.904 11.9904 109.985 11.3658 109.24 10.8848C108.284 10.2719 107.507 10.7607 106.711 11.9826L105.15 14.3876C104.58 15.2604 104.783 15.7919 104.783 15.7919L102.855 14.5544C102.855 14.5544 103.417 14.5544 104.026 13.6506L105.958 10.6792C106.555 9.76373 106.348 9.2168 106.348 9.2168L108.03 9.96934L107.597 10.6365C108.194 10.2486 108.901 10.4853 109.412 10.815C110.883 11.7654 110.981 12.4171 110.797 13.0377Z" fill="white"/>
<path d="M109.632 17.5682L113.292 13.0064C113.46 12.8324 113.587 12.6234 113.664 12.3947C113.741 12.1659 113.766 11.9231 113.737 11.6836L115.329 12.6301L110.689 18.4138C110.525 18.5884 110.401 18.7955 110.323 19.0215C110.246 19.2475 110.218 19.4873 110.24 19.725L108.434 18.2936C108.672 18.2599 108.902 18.1782 109.108 18.0535C109.314 17.9288 109.492 17.7636 109.632 17.5682Z" fill="white"/>
<path d="M117.814 22.2581C115.948 24.1434 114.364 23.6042 113.294 22.5568C112.225 21.5095 111.612 19.9733 113.513 18.0493C115.414 16.1253 116.955 16.7149 118.036 17.7661C119.117 18.8174 119.683 20.3729 117.814 22.2581ZM116.857 21.3039C118.688 19.4535 118.637 18.5148 117.958 17.8515C117.279 17.1881 116.362 17.1261 114.504 19.0152C112.647 20.9043 112.736 21.8159 113.404 22.4676C114.071 23.1193 115.012 23.1581 116.857 21.3039Z" fill="white"/>
<path d="M122.679 28.4025C120.56 30.0007 119.069 29.2404 118.16 28.0534C117.251 26.8664 116.872 25.2527 119.03 23.6235C121.189 21.9943 122.629 22.7934 123.542 23.992C124.455 25.1906 124.795 26.8005 122.679 28.4025ZM121.856 27.3242C123.932 25.7725 124.018 24.8182 123.444 24.0657C122.871 23.3132 121.969 23.1231 119.862 24.7135C117.754 26.3039 117.704 27.2272 118.269 27.9681C118.835 28.709 119.776 28.8913 121.856 27.3242Z" fill="white"/>
<path d="M125.835 38.1932L128.992 36.6183C130.023 36.1063 130.378 35.7067 130.015 34.9852C129.543 34.0503 128.509 34.0814 127.349 34.6594L124.715 35.9744C123.767 36.4476 123.693 36.9985 123.693 36.9985L122.659 34.9425C122.659 34.9425 123.127 35.2373 124.099 34.7525L127.006 33.3288C128.321 32.6733 128.704 32.3164 128.306 31.5289C127.908 30.7415 126.803 30.6522 125.64 31.2341L122.986 32.553C122.038 33.0263 121.972 33.5887 121.972 33.5887L120.934 31.5367C120.934 31.5367 121.406 31.8276 122.374 31.3427L125.558 29.7562C126.53 29.2752 126.651 28.6855 126.651 28.6855L127.72 30.1945L126.869 30.6173C127.705 30.5475 128.196 31.0518 128.536 31.7306C129.215 33.0728 129.016 33.643 128.473 34.0581C129.281 33.9766 129.824 34.2753 130.269 35.152C131.162 36.9248 130.585 37.3553 129.32 37.9838L126.452 39.4151C125.504 39.8884 125.437 40.447 125.437 40.447L124.403 38.3949C124.403 38.3949 124.871 38.6781 125.835 38.1932Z" fill="white"/>
<path d="M67.6431 39.7916V40.0166H66.4645V42.6311L66.3475 42.2393L66.1484 40.9398L66.285 39.7334H66.8197L67.6431 39.7916Z" fill="black"/>
<path d="M125.086 87.5436C124.419 87.3693 123.848 86.9434 123.493 86.3566C122.151 84.4597 120.762 82.5861 119.372 80.7241C119.22 80.5663 119.126 80.3613 119.107 80.1433C119.087 79.9252 119.144 79.7071 119.267 79.5255L119.337 79.3897L118.194 77.8652L116.633 75.9256L117.655 75.7937L114.506 72.3646L115.676 72.2133L111.493 67.7873L115.122 66.9455C113.132 66.7194 111.118 66.7979 109.151 67.1782C104.163 68.1908 99.3396 69.888 94.8211 72.2211C88.9672 75.2002 83.6246 78.9048 79.1444 83.7498L79.2966 63.3961C80.0771 63.3496 80.2488 62.888 80.2137 62.1897C80.163 61.2277 80.2137 60.2502 80.2137 59.2998C80.1959 59.2068 80.1978 59.1111 80.2195 59.0188C80.2411 58.9266 80.2819 58.8399 80.3392 58.7643C80.3965 58.6886 80.4691 58.6258 80.5524 58.5797C80.6356 58.5337 80.7276 58.5054 80.8225 58.4968C87.0315 56.8598 90.7234 52.1545 90.8482 45.7656C90.8482 45.0169 90.8482 44.2644 90.8482 43.4808C90.8872 43.477 90.9264 43.477 90.9653 43.4808C91.0746 43.4808 91.1761 43.4808 91.2697 43.4808C91.3935 43.4896 91.5174 43.4655 91.6288 43.4109C91.8824 43.2635 92.2103 43.023 92.2532 42.7825C92.3137 42.2442 92.3255 41.7015 92.2883 41.1611C92.2883 39.7607 92.2883 39.7607 90.8717 39.5745C90.8131 38.7987 91.1175 37.8716 89.7009 37.9065H89.5838C88.3116 37.9298 88.5848 38.7638 88.5028 39.4931L88.335 39.6017C88.0869 39.5811 87.8376 39.5811 87.5896 39.6017V38.5931C87.5896 34.9506 87.5896 31.3081 87.5896 27.6695C87.5896 25.024 86.5281 22.9603 84.4441 21.6492C84.1947 21.4871 83.9339 21.3432 83.6636 21.2186C83.5954 21.1786 83.525 21.1424 83.4529 21.11C83.0626 20.9354 82.6723 20.7725 82.2821 20.6328C82.0284 20.5359 81.7669 20.4544 81.5016 20.3729C81.0453 20.2311 80.5815 20.1146 80.1122 20.0238L79.3317 19.8958L78.9102 19.8493C78.6956 19.826 78.4849 19.8105 78.2702 19.7988H78.2234C78.1336 19.7988 78.04 19.7988 77.9502 19.7988C77.7863 19.7988 77.6263 19.7988 77.4702 19.7988H77.1775C77.076 19.7988 76.9668 19.7988 76.8614 19.7988C76.756 19.7988 76.6233 19.7988 76.5024 19.8221C76.2682 19.8415 76.034 19.8687 75.7999 19.8997C75.6711 19.8997 75.5462 19.9307 75.4096 19.9501L75.0194 20.0199C74.5498 20.1075 74.0858 20.2228 73.63 20.3652L73.5364 20.3962C73.3764 20.4428 73.2242 20.4932 73.0681 20.5514L72.8729 20.6251C72.4202 20.7958 71.9636 20.9897 71.507 21.2108C71.507 21.2108 71.507 21.2108 71.4836 21.2108C71.2234 21.3479 70.9633 21.4914 70.7031 21.6414H70.6797L70.4416 21.7966C70.3558 21.8509 70.2738 21.9129 70.1919 21.975L70.0826 22.0565C69.985 22.1302 69.8953 22.2039 69.8055 22.2815C69.7743 22.3029 69.7456 22.3276 69.7197 22.3552C69.6461 22.4134 69.5769 22.4769 69.5128 22.5452C69.4439 22.6046 69.3788 22.6681 69.3177 22.7353C69.2281 22.8224 69.1434 22.9143 69.064 23.0107C68.9635 23.1242 68.8696 23.2433 68.783 23.3676C68.7669 23.3776 68.7545 23.3926 68.7479 23.4103C68.6562 23.5273 68.5728 23.6504 68.4982 23.7788C68.424 23.8952 68.3537 24.0077 68.2913 24.1279C68.2289 24.2482 68.1586 24.3839 68.104 24.5158C68.0606 24.5994 68.024 24.6863 67.9947 24.7757C67.9518 24.8688 67.9167 24.9774 67.8776 25.0822C67.8386 25.1869 67.7918 25.3421 67.7567 25.4701C67.7215 25.5981 67.7137 25.6291 67.6942 25.7106C67.6747 25.792 67.6942 25.792 67.6708 25.827C67.6453 25.924 67.6257 26.0224 67.6123 26.1218C67.5806 26.2639 67.5572 26.4076 67.542 26.5524C67.5186 26.7192 67.503 26.9015 67.4952 27.076C67.4874 27.2506 67.4757 27.4174 67.4757 27.592V27.7045C67.5069 31.3469 67.4952 34.9855 67.503 38.628C67.503 38.9228 67.503 39.2176 67.503 39.5629H66.7225C66.4298 37.9065 66.4298 37.9569 65.337 37.9259H65.2239C63.8853 37.891 64.4668 38.9422 64.2365 39.5202C64.178 39.5551 64.1273 39.6094 64.0804 39.6094C62.6638 39.7374 62.6638 39.7374 62.6716 41.2076C62.6716 41.3822 62.6716 41.5606 62.6716 41.7429C62.6716 43.3916 62.6716 43.3916 64.3068 43.6166C63.8463 51.208 66.8903 56.4874 74.6486 58.6675V61.9958C74.6486 63.1595 74.6486 63.1595 75.8194 63.2409L75.9092 83.4472C67.5888 75.0684 57.8519 69.8703 46.7881 67.3024C45.8358 67.0968 42.8465 66.5266 40.1264 66.9145L43.9899 67.6515L39.7947 72.0543L40.6454 72.2715C39.5644 73.4352 38.5419 74.5408 37.4531 75.7084L38.3156 75.848C37.7419 76.5773 37.2189 77.2406 36.6921 77.9156C36.6815 77.8996 36.6724 77.8828 36.6648 77.8652L35.6657 79.0832C35.8179 79.378 35.9623 79.6728 36.1223 79.9638C34.4364 82.2447 32.7739 84.5334 31.0489 86.7832C30.8031 87.1052 30.2684 87.2293 29.8782 87.4388C29.6284 87.5668 29.3708 87.6755 29.0977 87.7918V88.0246H30.4597C43.2523 88.0246 56.045 88.0116 68.8377 87.9858C69.4387 87.9663 70.0242 88.1774 70.4729 88.5754C72.5358 90.2379 75.1232 91.1227 77.7785 91.0735C80.4244 91.0735 83.0392 90.2395 84.8968 88.5521C85.1023 88.3533 85.3473 88.1992 85.6161 88.0997C85.8848 88.0002 86.1715 87.9574 86.4578 87.9741C99.1022 88.0207 111.744 88.0582 124.383 88.0866H125.921L125.968 87.8849C125.683 87.7474 125.389 87.6332 125.086 87.5436ZM90.8912 40.0517H91.6288V42.8291H90.8912V40.0517ZM64.2092 42.9455H63.3311V40.2689H64.2092V42.9455ZM36.2121 81.6628C39.619 81.4495 43.026 81.2749 46.4368 81.2749C48.4506 81.2749 50.4643 81.2749 52.4819 81.3874C56.1836 81.5453 59.8626 82.044 63.4716 82.877C63.5558 82.896 63.6363 82.9288 63.7097 82.974C59.5338 82.3153 55.3087 82.0142 51.0809 82.074C45.6173 82.0973 40.1537 82.524 34.6471 82.8149C34.738 82.475 34.9424 82.1759 35.2267 81.9666C35.511 81.7573 35.8585 81.6501 36.2121 81.6628ZM35.2637 82.9972C38.6798 82.78 42.0972 82.6662 45.5158 82.6559C48.9345 82.6455 52.3336 82.7205 55.7133 82.8809C59.009 83.028 62.2796 83.5235 65.4697 84.3588L63.9087 84.095C60.7437 83.5934 57.5401 83.3714 54.3357 83.4317C53.2429 83.4317 52.1502 83.4537 51.0575 83.4977C46.6437 83.6412 42.2377 83.9399 37.8277 84.1687C36.3955 84.2386 34.9671 84.2967 33.5115 84.3627C33.9369 83.2727 34.2295 83.0671 35.2637 82.9817V82.9972ZM34.0266 84.5489C38.6434 84.4674 43.2562 84.2735 47.8691 84.1959C49.2064 84.1726 50.545 84.1636 51.8848 84.1687C55.9961 84.1517 60.1033 84.4305 64.1741 85.0027L64.4121 85.057C61.7584 84.8786 59.1046 84.801 56.4509 84.7855C48.4896 84.739 40.5283 85.2859 32.528 85.5962C32.8363 84.8631 33.2305 84.5334 34.0266 84.5334V84.5489ZM59.452 86.1393C50.156 86.1122 40.864 86.8337 31.4978 87.0742C31.8451 86.116 32.3446 85.8018 33.2188 85.8018H39.74C44.1499 85.8018 48.5637 85.8018 52.9776 85.8018H59.5417C61.6431 85.8552 63.7403 86.0171 65.8249 86.2867C63.7019 86.1704 61.575 86.1277 59.452 86.1238V86.1393ZM49.2506 79.475C45.8124 79.4517 42.3586 79.6496 38.8931 79.956H39.0532C41.2269 79.8862 43.3928 79.8203 45.5588 79.8125C51.9902 79.7853 58.3748 80.247 64.6112 82.3029C59.9433 81.1687 55.1479 80.6368 50.3433 80.7202C45.4378 80.7202 40.4932 81.1663 35.5135 81.5503C36.1652 80.7163 36.6843 79.9987 37.2736 79.3237C37.437 79.2046 37.6371 79.1456 37.8395 79.1569C41.2893 78.9436 44.7431 78.5828 48.193 78.5673C54.1548 78.5631 60.0697 79.614 65.661 81.6706C65.8328 81.7324 65.9966 81.8145 66.1488 81.915C60.5759 80.1306 54.9367 79.4905 49.2506 79.4595V79.475ZM54.9913 78.2686C52.7717 77.9681 50.5345 77.8139 48.2945 77.807C44.5739 77.8173 40.8568 78.0335 37.1604 78.4548C37.9409 77.5277 38.5809 76.7247 39.2639 75.9489C39.4306 75.8388 39.6306 75.7894 39.8298 75.8093C40.5088 75.8093 41.184 75.786 41.8591 75.786C52.1572 75.7714 62.3075 78.2208 71.4524 82.9274C71.5066 82.9547 71.5588 82.9858 71.6085 83.0205C66.3064 80.7067 60.7184 79.1035 54.9913 78.2531V78.2686ZM72.0378 82.4386C62.4492 77.0932 52.1619 74.824 41.262 74.8628C40.5517 74.8628 39.8337 74.8627 39.1156 74.8977C39.8961 74.0869 40.6766 73.2684 41.4571 72.481C41.569 72.3958 41.7065 72.3506 41.8474 72.353H41.9059C50.437 72.9775 58.6675 74.7658 66.2776 78.8078C68.2835 79.8746 70.1997 81.1042 72.1549 82.2563L72.0378 82.4386ZM41.1762 71.6858C42.2962 70.4794 43.2757 69.3893 44.2982 68.3497C44.4756 68.2086 44.6955 68.1308 44.9226 68.1286C44.9797 68.1227 45.0373 68.1227 45.0943 68.1286C46.9988 68.5165 48.9306 68.8501 50.7804 69.432C58.7729 71.9457 66.059 75.7782 72.4437 81.2284C73.0642 81.7559 73.6496 82.33 74.2271 82.9274C64.6112 75.3515 53.52 71.9767 41.1762 71.6703V71.6858ZM87.5896 40.1796H88.3935V42.6856L87.5896 42.7438V40.1796ZM88.3701 43.3683C89.3536 49.505 85.3066 55.6301 79.8391 56.3129V54.7612C85.7281 53.2329 87.9564 49.1675 87.531 43.3566L88.3701 43.3683ZM70.0904 22.9332L70.6797 22.328L70.9334 22.0681C70.9334 22.2465 70.9334 22.4017 70.9334 22.5452C71.0934 22.456 71.269 22.3668 71.4641 22.2737C71.6592 22.1806 71.8544 22.0797 72.0573 21.9867C72.3117 21.8625 72.5722 21.7511 72.8378 21.6531C72.8692 21.6363 72.9018 21.622 72.9354 21.6104C73.15 21.5328 73.3725 21.4474 73.6066 21.3737L73.9969 21.2419C74.2818 21.1565 74.5823 21.0789 74.8828 21.0052H74.9803C75.2301 20.9432 75.4916 20.8966 75.7609 20.854C75.8264 20.8373 75.8929 20.8243 75.9599 20.8152C76.2604 20.7686 76.557 20.7376 76.8614 20.7143C76.959 20.7143 77.0487 20.6949 77.1463 20.6949C77.3999 20.6949 77.6575 20.6716 77.9268 20.6716C78.2195 20.6716 78.5083 20.6716 78.8088 20.7143C78.9766 20.7143 79.1483 20.7453 79.3161 20.7686C79.4839 20.7919 79.7064 20.8152 79.882 20.854C79.9483 20.854 80.0147 20.8772 80.0849 20.8966C80.2957 20.9354 80.5142 20.9858 80.7327 21.0479C80.9836 21.1118 81.2311 21.1881 81.4742 21.2768C81.5835 21.3117 81.7006 21.3543 81.8099 21.397L82.2469 21.5638L82.7075 21.7772C83.0119 21.9284 83.3241 22.0914 83.6324 22.2776C83.6909 22.3164 83.7611 22.3513 83.8275 22.394C83.8236 22.3294 83.8236 22.2646 83.8275 22.2C84.0351 22.2665 84.2322 22.3618 84.4129 22.4832C84.6521 22.638 84.8722 22.8202 85.0685 23.0262C86.0297 24.0453 86.5954 25.3706 86.6647 26.7657L86.692 43.5816C86.5827 44.7803 86.692 46.0061 86.4578 47.1776C85.8841 50.2382 84.1163 52.4725 81.1308 53.4889C79.859 53.9341 78.5219 54.1674 77.1736 54.1794C75.3971 54.1476 73.6672 53.609 72.19 52.6277C71.1687 51.9981 70.3062 51.1441 69.6689 50.1314C69.0316 49.1186 68.6364 47.9741 68.5138 46.7858L68.2835 26.7269C68.4043 25.2843 69.051 23.9352 70.1021 22.9332H70.0904ZM66.5781 40.94V40.0167H67.4561V42.639H66.5625C66.582 42.0571 66.5351 41.4753 66.582 40.94H66.5781ZM66.6952 43.2674H67.5108C67.1205 49.2839 69.4621 53.4229 75.6399 54.831V56.4137C69.8289 55.8008 65.7351 49.8386 66.699 43.2519L66.6952 43.2674ZM65.0404 47.0845C64.8531 44.4234 64.9741 41.739 64.9585 39.0663C64.9692 38.8955 64.9927 38.7256 65.0288 38.5582C65.298 38.5388 65.5595 38.5271 65.9068 38.5078C65.9068 39.6366 65.8756 40.715 65.9068 41.7817C65.9849 43.9695 65.8678 46.2 66.2542 48.3374C67.144 53.3453 71.9636 57.1236 77.0526 57.2089C77.4001 57.2224 77.7481 57.2146 78.0946 57.1857C84.1202 56.7434 88.7252 52.4027 89.0218 46.7703C89.1545 44.404 89.1194 42.03 89.1545 39.6521C89.1545 39.2991 89.1545 38.9422 89.1545 38.4884H89.9702C90.0365 38.5698 90.1068 38.6164 90.1068 38.659C89.9936 42.4218 90.6804 46.2349 89.4472 49.9356C88.5817 52.4281 86.9456 54.5847 84.7727 56.0973C82.5999 57.6098 80.0016 58.4008 77.3492 58.3572C76.998 58.3572 76.6428 58.3184 76.2916 58.2757C69.9304 57.5154 65.4736 53.1669 65.0444 47.0689L65.0404 47.0845ZM77.4429 84.7971C77.2961 84.7984 77.1522 84.7566 77.0292 84.6769C76.7833 84.514 76.7716 84.1881 76.7951 83.8623L76.8185 63.2216H77.9892L78.0439 83.905C78.0496 83.985 78.0496 84.0654 78.0439 84.1455C78.0595 84.4868 77.9502 84.7777 77.4429 84.7971ZM79.0937 62.4496H75.6594V58.8498H79.0937V62.4496ZM121.601 84.4209C114.728 84.1649 107.942 83.4976 101.151 83.4821C97.0863 83.4335 93.0247 83.7281 89.0101 84.3627L88.9867 84.161C91.7185 83.7731 94.4035 83.2765 97.1314 83.0671C100.936 82.78 104.745 82.6791 108.554 82.6791C112.363 82.6791 116.203 82.8343 120.028 83.036C120.925 83.0903 121.07 83.7886 121.608 84.4209H121.601ZM120.352 82.8692C114.182 82.5589 108.027 82.0624 101.877 82.0934C98.2726 82.0835 94.672 82.3259 91.1019 82.8188C92.7488 82.5318 94.3879 82.2098 96.0465 81.9926C100.281 81.4581 104.548 81.2209 108.816 81.2827C111.391 81.3137 113.967 81.434 116.547 81.6202C117.303 81.7091 118.064 81.7557 118.826 81.7598C119.638 81.7249 120.032 82.14 120.371 82.8576L120.352 82.8692ZM119.466 81.5891C118.736 81.5387 118.147 81.496 117.565 81.465C113.058 81.2129 108.558 80.6892 104.039 80.7435C103.368 80.7435 102.7 80.7435 102.029 80.7939C98.1461 80.9723 94.2786 81.2788 90.5009 82.2718H90.3409C92.1244 81.3525 98.6729 80.1306 103.063 80.0375C105.206 79.9909 107.356 79.987 109.503 79.9909H112.812H116.078C113.13 79.6506 110.164 79.4822 107.196 79.4866C105.413 79.4866 103.629 79.5332 101.846 79.6224C97.3437 79.8359 92.8899 80.6407 88.6004 82.0158C91.5785 80.8546 94.6612 79.9778 97.8065 79.3974C100.846 78.86 103.926 78.5887 107.013 78.5867C110.091 78.6 113.166 78.7722 116.227 79.1026C117.956 79.2578 118.494 80.3866 119.474 81.5775L119.466 81.5891ZM82.0011 81.977C82.3913 81.6395 82.7543 81.2982 83.1406 80.9762C90.4056 74.9297 98.9773 70.6325 108.187 68.4196C108.672 68.2927 109.17 68.2198 109.67 68.2023C110.206 68.1903 110.735 68.3223 111.202 68.5845C111.668 68.8467 112.055 69.2293 112.32 69.6919C112.8 70.4173 113.514 70.9875 114.291 71.8021C108.25 71.7318 102.239 72.664 96.507 74.5602C90.9887 76.3562 86.0286 79.1841 81.3455 82.5938C81.5601 82.3843 81.7864 82.1749 82.0206 81.9693L82.0011 81.977ZM87.9681 79.316C93.5353 76.2278 99.6162 74.1609 105.92 73.2141C108.223 72.8456 110.556 72.6788 112.871 72.4034C113.092 72.3929 113.313 72.4332 113.516 72.5214C113.719 72.6095 113.899 72.743 114.041 72.9116C114.705 73.5671 115.45 74.1413 116.164 74.7503L115.977 75.111C114.576 75.0451 113.179 75.0179 111.793 75.0296C102.037 75.1188 92.7722 77.229 84.0655 81.9305C85.3963 81.0732 86.6374 80.0724 87.9798 79.3082L87.9681 79.316ZM84.487 82.6481C88.1931 80.672 92.1148 79.1245 96.1753 78.0359C101.569 76.5701 107.135 75.8277 112.726 75.8287C113.507 75.8287 114.287 75.8377 115.068 75.8558C115.337 75.8473 115.601 75.9339 115.813 76.1002C116.49 76.8441 117.111 77.6362 117.671 78.4703C114.808 78.0499 111.92 77.8154 109.026 77.7682C100.594 77.5996 92.2259 79.2624 84.5065 82.6404L84.487 82.6481ZM88.2374 85.1734C91.898 84.8747 95.5548 84.4441 99.2193 84.3123C101.951 84.2114 104.663 84.1765 107.387 84.1881C111.969 84.2114 116.551 84.3782 121.132 84.6459C121.807 84.6846 122.112 85.0066 122.412 85.6389C115.247 85.3751 108.117 84.898 100.995 84.8631C96.7418 84.8201 92.4895 85.0079 88.2569 85.4256C88.2686 85.3402 88.2647 85.2549 88.2569 85.1657L88.2374 85.1734ZM112.094 86.6514C108.289 86.4923 104.484 86.3178 100.679 86.2635C98.7549 86.2285 96.8309 86.2247 94.9069 86.2285H92.0932C91.1487 86.2285 90.2043 86.2285 89.256 86.2285C91.6717 86.085 94.0835 85.8406 96.4992 85.8135C98.5051 85.8135 100.514 85.807 102.525 85.7941C108.531 85.7941 114.537 85.8135 120.539 85.8251C120.828 85.8251 121.117 85.8833 121.402 85.8833C121.502 85.893 121.602 85.893 121.702 85.8833C121.793 85.8778 121.884 85.8778 121.975 85.8833C122.693 85.9143 123.119 86.3876 123.478 87.2216C119.634 86.985 115.872 86.7988 112.113 86.6436L112.094 86.6514Z" fill="white"/>
<path d="M75.5594 27.4295C75.5584 27.3115 75.5108 27.1986 75.4268 27.1152C75.3429 27.0317 75.2293 26.9844 75.1106 26.9834H68.1289V27.8756H75.1028C75.1624 27.8766 75.2216 27.8658 75.277 27.8439C75.3323 27.8219 75.3827 27.7892 75.4252 27.7477C75.4677 27.7062 75.5015 27.6566 75.5245 27.602C75.5476 27.5474 75.5594 27.4887 75.5594 27.4295Z" fill="white"/>
<path d="M75.1028 29.4893H68.1211V30.3815H75.1028C75.2215 30.3805 75.3351 30.3331 75.419 30.2497C75.503 30.1662 75.5506 30.0534 75.5516 29.9354C75.5516 29.8171 75.5043 29.7036 75.4202 29.6199C75.336 29.5363 75.2218 29.4893 75.1028 29.4893Z" fill="white"/>
<path d="M75.1028 31.9912H68.1211V32.8873H75.1028C75.2222 32.8863 75.3364 32.8384 75.4204 32.7541C75.5045 32.6699 75.5516 32.556 75.5516 32.4373C75.5506 32.3193 75.503 32.2064 75.419 32.123C75.3351 32.0396 75.2215 31.9922 75.1028 31.9912Z" fill="white"/>
<path d="M75.1028 34.4932H68.1211V35.3854H75.1028C75.2215 35.3843 75.3351 35.337 75.419 35.2536C75.503 35.1701 75.5506 35.0573 75.5516 34.9393C75.5516 34.821 75.5043 34.7075 75.4202 34.6238C75.336 34.5402 75.2218 34.4932 75.1028 34.4932Z" fill="white"/>
<path d="M75.1028 36.999H68.1211V37.8951H75.1028C75.2215 37.8941 75.3351 37.8468 75.419 37.7633C75.503 37.6799 75.5506 37.567 75.5516 37.449C75.5516 37.3303 75.5045 37.2165 75.4204 37.1322C75.3364 37.0479 75.2222 37 75.1028 36.999Z" fill="white"/>
<path d="M75.1028 39.5049H68.1211V40.3971H75.1028C75.2218 40.3971 75.336 40.3501 75.4202 40.2664C75.5043 40.1828 75.5516 40.0693 75.5516 39.951C75.5506 39.833 75.503 39.7201 75.419 39.6367C75.3351 39.5532 75.2215 39.5059 75.1028 39.5049Z" fill="white"/>
<path d="M75.1028 42.0068H68.1211V42.9029H75.1028C75.2215 42.9019 75.3351 42.8546 75.419 42.7711C75.503 42.6877 75.5506 42.5748 75.5516 42.4568C75.5516 42.3382 75.5045 42.2243 75.4204 42.14C75.3364 42.0557 75.2222 42.0079 75.1028 42.0068Z" fill="white"/>
<path d="M79.5508 27.4295C79.5518 27.3108 79.6 27.1974 79.6847 27.1138C79.7695 27.0303 79.8841 26.9834 80.0035 26.9834H86.9852V27.8756H80.0035C79.9442 27.8761 79.8854 27.8649 79.8305 27.8427C79.7756 27.8206 79.7257 27.7878 79.6836 27.7463C79.6415 27.7048 79.6081 27.6555 79.5853 27.6011C79.5625 27.5467 79.5508 27.4884 79.5508 27.4295Z" fill="white"/>
<path d="M80.0035 29.4893H86.9852V30.3815H80.0035C79.8841 30.3815 79.7695 30.3346 79.6847 30.2511C79.6 30.1675 79.5518 30.054 79.5508 29.9354C79.5508 29.8765 79.5625 29.8182 79.5853 29.7638C79.6081 29.7094 79.6415 29.66 79.6836 29.6186C79.7257 29.5771 79.7756 29.5443 79.8305 29.5221C79.8854 29.4999 79.9442 29.4888 80.0035 29.4893Z" fill="white"/>
<path d="M80.0035 31.9912H86.9852V32.8873H80.0035C79.8834 32.8873 79.7683 32.8399 79.6834 32.7555C79.5985 32.6711 79.5508 32.5567 79.5508 32.4373C79.5518 32.3187 79.6 32.2052 79.6847 32.1216C79.7695 32.0381 79.8841 31.9912 80.0035 31.9912Z" fill="white"/>
<path d="M80.0035 34.4932H86.9852V35.3854H80.0035C79.8841 35.3854 79.7695 35.3385 79.6847 35.255C79.6 35.1714 79.5518 35.058 79.5508 34.9393C79.5508 34.8804 79.5625 34.822 79.5853 34.7677C79.6081 34.7133 79.6415 34.6639 79.6836 34.6225C79.7257 34.581 79.7756 34.5482 79.8305 34.526C79.8854 34.5038 79.9442 34.4927 80.0035 34.4932Z" fill="white"/>
<path d="M80.0035 36.999H86.9852V37.8951H80.0035C79.8841 37.8951 79.7695 37.8482 79.6847 37.7647C79.6 37.6811 79.5518 37.5677 79.5508 37.449C79.5508 37.3296 79.5985 37.2152 79.6834 37.1308C79.7683 37.0464 79.8834 36.999 80.0035 36.999Z" fill="white"/>
<path d="M80.0035 39.5049H86.9852V40.3971H80.0035C79.9442 40.3976 79.8854 40.3864 79.8305 40.3643C79.7756 40.3421 79.7257 40.3093 79.6836 40.2678C79.6415 40.2263 79.6081 40.177 79.5853 40.1226C79.5625 40.0682 79.5508 40.0099 79.5508 39.951C79.5518 39.8323 79.6 39.7189 79.6847 39.6353C79.7695 39.5518 79.8841 39.5049 80.0035 39.5049Z" fill="white"/>
<path d="M80.0035 42.0068H86.9852V42.9029H80.0035C79.8841 42.9029 79.7695 42.8561 79.6847 42.7725C79.6 42.689 79.5518 42.5755 79.5508 42.4568C79.5508 42.3375 79.5985 42.223 79.6834 42.1386C79.7683 42.0543 79.8834 42.0068 80.0035 42.0068Z" fill="white"/>
<path d="M71.4641 21.2109V23.197C71.4641 23.2999 71.423 23.3986 71.3498 23.4713C71.2766 23.5441 71.1774 23.5849 71.0739 23.5849C70.9703 23.5849 70.8711 23.5441 70.7979 23.4713C70.7247 23.3986 70.6836 23.2999 70.6836 23.197V21.6454C70.935 21.4856 71.1956 21.3405 71.4641 21.2109Z" fill="white"/>
<path d="M73.6165 20.3535V23.1969C73.6165 23.2998 73.5753 23.3984 73.5021 23.4712C73.429 23.5439 73.3297 23.5848 73.2262 23.5848C73.1227 23.5848 73.0234 23.5439 72.9502 23.4712C72.8771 23.3984 72.8359 23.2998 72.8359 23.1969V20.6134C73.1091 20.5281 73.3628 20.4311 73.6165 20.3535Z" fill="white"/>
<path d="M75.7844 19.8877V23.1966C75.7844 23.2995 75.7433 23.3981 75.6701 23.4709C75.5969 23.5436 75.4977 23.5845 75.3942 23.5845C75.2907 23.5845 75.1914 23.5436 75.1182 23.4709C75.045 23.3981 75.0039 23.2995 75.0039 23.1966V20.0079C75.2614 19.9521 75.522 19.912 75.7844 19.8877Z" fill="white"/>
<path d="M77.9368 19.7874V23.1972C77.9368 23.3 77.8956 23.3987 77.8225 23.4714C77.7493 23.5442 77.65 23.5851 77.5465 23.5851C77.443 23.5851 77.3437 23.5442 77.2705 23.4714C77.1973 23.3987 77.1562 23.3 77.1562 23.1972V19.7797H77.445C77.6168 19.7758 77.7729 19.7758 77.9368 19.7874Z" fill="white"/>
<path d="M80.0969 20.0274V23.1967C80.0969 23.2995 80.0558 23.3982 79.9826 23.4709C79.9094 23.5437 79.8102 23.5846 79.7067 23.5846C79.6032 23.5846 79.5039 23.5437 79.4307 23.4709C79.3575 23.3982 79.3164 23.2995 79.3164 23.1967V19.8994L80.0969 20.0274Z" fill="white"/>
<path d="M82.261 20.6369V23.1971C82.261 23.3 82.2199 23.3986 82.1467 23.4714C82.0735 23.5441 81.9742 23.585 81.8707 23.585C81.7672 23.585 81.668 23.5441 81.5948 23.4714C81.5216 23.3986 81.4805 23.3 81.4805 23.1971V20.377C81.7341 20.4545 82.0034 20.5283 82.261 20.6369Z" fill="white"/>
<path d="M84.4172 21.6533V23.2049C84.4172 23.3078 84.3761 23.4065 84.3029 23.4792C84.2297 23.552 84.1305 23.5929 84.027 23.5929C83.9235 23.5929 83.8242 23.552 83.751 23.4792C83.6778 23.4065 83.6367 23.3078 83.6367 23.2049V21.2305C83.9069 21.3524 84.1677 21.4937 84.4172 21.6533Z" fill="white"/>
<path d="M84.4148 43.4424C84.3368 44.1639 84.2626 44.866 84.1807 45.5642C83.6538 50.1144 81.7611 52.4574 77.8429 53.4194L76.9102 53.6561C78.5073 53.8177 80.1168 53.5045 81.5347 52.7561C85.008 50.8709 85.89 47.9305 85.5583 43.4463L84.4148 43.4424Z" fill="white"/>
<path d="M70.3347 43.5781H68.9961C68.9961 46.8482 69.1756 49.9437 72.2118 52.085C70.2293 49.5326 70.3932 46.5185 70.3347 43.5781Z" fill="white"/>
<path d="M20.7857 98.297C19.8335 98.0448 19.014 97.8237 19.014 97.1139C19.014 96.2643 19.693 96.0859 20.2628 96.0859C20.6135 96.0711 20.9568 96.1896 21.2228 96.4173C21.4888 96.6449 21.6577 96.9648 21.695 97.3117L21.7223 97.4902L22.9907 97.1022L22.9244 96.9432C22.5341 95.9967 21.297 95.6631 20.2823 95.6631C18.6588 95.6631 17.691 96.3381 17.691 97.4669C17.691 98.7121 18.8618 99.0185 19.9818 99.3133C21.1019 99.6081 22.1321 99.8797 22.1321 100.981C22.1321 102.083 21.5467 102.715 20.3955 102.715C19.8569 102.715 18.6081 102.514 18.6081 100.624V100.411L17.2305 100.842V100.966C17.3671 103.15 19.572 103.15 20.4033 103.15C22.4404 103.15 23.5644 102.324 23.5644 100.822C23.5878 99.0457 22.0267 98.6306 20.7857 98.297Z" fill="white"/>
<path d="M29.944 95.7246H24.3906L24.3555 97.1521H24.6755C24.7184 96.997 25.015 96.1591 26.3497 96.1591H26.4551V101.83C26.4551 102.606 26.1468 102.82 26.1429 102.823L25.6824 103.11H28.5742L28.1839 102.827C28.1839 102.827 27.8717 102.583 27.8717 101.83V96.1707H27.9576C29.3001 96.1707 29.6006 97.0319 29.6396 97.1638H29.9596L29.944 95.7246Z" fill="white"/>
<path d="M33.7629 95.667C31.8468 95.667 30.875 96.9277 30.875 99.4065C30.875 101.885 31.8468 103.15 33.7629 103.15C35.6791 103.15 36.6274 101.924 36.6274 99.4065C36.6274 96.8889 35.6869 95.667 33.7629 95.667ZM33.7629 102.711C32.8848 102.711 32.2995 102.149 32.2995 99.3987C32.2995 96.6484 32.8848 96.0937 33.7629 96.0937C34.641 96.0937 35.203 96.6445 35.203 99.3987C35.203 102.153 34.6527 102.711 33.7629 102.711Z" fill="white"/>
<path d="M42.8308 101.799L41.8396 100.372C42.3908 100.279 42.8905 99.9937 43.2483 99.5668C43.6062 99.1399 43.7987 98.5999 43.7908 98.0443C43.7908 96.5896 42.7606 95.7168 41.0356 95.7168H37.414L37.8316 96.0038C37.8316 96.0038 38.1477 96.2366 38.1477 96.9969V101.846C38.1477 102.594 37.8394 102.823 37.8355 102.827L37.375 103.114H40.2863L39.8961 102.831C39.7734 102.698 39.6812 102.54 39.626 102.368C39.5707 102.195 39.5537 102.013 39.576 101.834V100.438H40.4112L41.4571 101.989C41.8473 102.575 41.8161 102.816 41.8044 102.858L41.5625 103.118H44.5089L43.8728 102.819C43.4453 102.571 43.0871 102.22 42.8308 101.799ZM39.5878 96.1241H40.6102C41.781 96.1241 42.3859 96.7913 42.3859 98.0637C42.3859 98.9675 42.0932 100.042 40.6922 100.042H39.5878V96.1241Z" fill="white"/>
<path d="M47.0328 95.9922L47.4504 95.709H44.5507L44.9722 95.996C44.9722 95.996 45.2883 96.2288 45.2883 96.9891V101.826C45.2883 102.602 44.9761 102.816 44.9722 102.819L44.5117 103.106H47.4231L47.0328 102.823C46.9101 102.69 46.8179 102.532 46.7627 102.36C46.7074 102.188 46.6904 102.006 46.7128 101.826V96.9891C46.7128 96.2676 47.0016 96.0193 47.0328 95.9922Z" fill="white"/>
<path d="M53.2839 101.726C53.2839 101.726 52.8585 102.66 50.8253 102.66H50.0135V98.6339H50.7941C52.0117 98.6339 52.1326 99.0529 52.1365 99.0684H52.4292V97.7417H52.1365H52.117C52.117 97.7417 52.0273 98.1762 50.7745 98.1762H49.994V96.1436H50.6223C52.7141 96.1436 53.0732 97.0668 53.0771 97.0784L53.1005 97.1483H53.3971L53.2488 95.7246H47.832L48.2535 96.0117C48.2535 96.0117 48.5696 96.2444 48.5696 97.0047V101.842C48.5696 102.618 48.2574 102.831 48.2535 102.835L47.7969 103.122H53.4322L53.5805 101.695H53.2839V101.726Z" fill="white"/>
<path d="M122.397 101.726C122.397 101.726 121.972 102.66 119.935 102.66H119.127V98.6339H119.907C121.125 98.6339 121.246 99.0529 121.25 99.0684H121.543V97.7417H121.246C121.246 97.7417 121.156 98.1762 119.903 98.1762H119.123V96.1436H119.747C121.843 96.1436 122.202 97.0668 122.206 97.0784L122.229 97.1483H122.526L122.378 95.7246H116.961L117.382 96.0117C117.382 96.0117 117.699 96.2444 117.699 97.0047V101.842C117.699 102.618 117.386 102.831 117.382 102.835L116.922 103.122H122.561L122.709 101.695H122.413L122.397 101.726Z" fill="white"/>
<path d="M58.0983 98.297C57.146 98.0449 56.3265 97.8238 56.3265 97.1139C56.3265 96.2644 57.0016 96.0859 57.5714 96.0859C57.9222 96.0711 58.2654 96.1896 58.5314 96.4173C58.7974 96.645 58.9663 96.9648 59.0037 97.3117L59.031 97.4902L60.3032 97.1023L60.272 96.9471C59.8817 96.0006 58.6485 95.667 57.6339 95.667C56.0104 95.667 55.0425 96.3419 55.0425 97.4708C55.0425 98.716 56.2133 99.0224 57.3333 99.3172C58.4534 99.612 59.4798 99.8836 59.4798 100.985C59.4798 102.087 58.8983 102.719 57.7431 102.719C57.2085 102.719 55.9557 102.517 55.9557 100.628V100.415L54.5781 100.846V100.97C54.7147 103.154 56.9197 103.154 57.747 103.154C59.7881 103.154 60.912 102.327 60.912 100.826C60.8886 99.0457 59.3393 98.6306 58.0983 98.297Z" fill="white"/>
<path d="M68.9285 95.6934H68.8583L69.2485 95.9765C69.2485 96.0037 69.3344 96.2403 68.9012 96.9657L67.7304 98.8703L66.5206 96.9075C66.1304 96.2597 66.2084 95.9998 66.224 95.9649L66.4426 95.7089H63.5156L64.1517 96.0076C64.5722 96.264 64.9138 96.6303 65.1391 97.0666L66.505 99.3591V101.826C66.505 102.602 66.1928 102.815 66.1928 102.819L65.7323 103.106H68.6436L68.2534 102.823C68.1295 102.691 68.0364 102.533 67.9804 102.36C67.9245 102.188 67.9071 102.006 67.9294 101.826V99.3785L69.3227 97.1286C69.8651 96.2209 70.3256 96.0192 70.3451 96.0114L71.1491 95.7089H69.3422L68.9285 95.6934Z" fill="white"/>
<path d="M74.0754 95.667C72.1593 95.667 71.1875 96.9277 71.1875 99.4065C71.1875 101.885 72.1593 103.15 74.0754 103.15C75.9916 103.15 76.9399 101.924 76.9399 99.4065C76.9399 96.8889 76.0033 95.667 74.0754 95.667ZM74.0754 102.711C73.1973 102.711 72.612 102.149 72.612 99.3987C72.612 96.6484 73.1973 96.0937 74.0754 96.0937C74.9535 96.0937 75.5155 96.6445 75.5155 99.3987C75.5155 102.153 74.9652 102.711 74.0754 102.711Z" fill="white"/>
<path d="M82.0272 95.9922C82.0272 95.9922 82.3433 96.2327 82.3433 96.9969V100.965C82.3433 102.587 81.8164 102.711 81.0749 102.711C80.3334 102.711 79.8495 102.594 79.8495 100.996V96.9969C79.8281 96.8164 79.8455 96.6335 79.9007 96.4603C79.9559 96.287 80.0475 96.1274 80.1695 95.9922L80.5598 95.709H77.6875L78.0778 95.9922C78.0778 95.9922 78.3939 96.2327 78.3939 96.9969V100.826C78.3939 102.971 79.6505 103.153 81.0554 103.153C82.7687 103.153 83.7599 102.765 83.7599 100.798V97.0007C83.7387 96.8203 83.7563 96.6374 83.8114 96.4643C83.8666 96.2911 83.9581 96.1315 84.0799 95.996L84.4702 95.7129H81.5979L82.0272 95.9922Z" fill="white"/>
<path d="M92.1053 101.004H92.0858L92.0585 101.186C91.8751 102.559 91.2351 102.738 90.7707 102.738C89.7677 102.738 89.2565 101.625 89.2565 99.4251C89.2565 97.2257 89.7677 96.1201 90.7707 96.1201C91.6644 96.1201 91.9687 96.9541 92.0702 97.6718L92.0975 97.8502L93.3893 97.4623L93.3385 97.3071C92.9834 96.2714 92.0663 95.7012 90.755 95.7012C88.7491 95.7012 87.8164 96.8921 87.8164 99.4406C87.8164 101.989 88.7608 103.153 90.7707 103.153C92.0702 103.153 92.9873 102.583 93.3542 101.547L93.4088 101.392L92.1053 101.004Z" fill="white"/>
<path d="M105.465 95.996C105.465 95.996 105.781 96.2443 105.781 97.0473V100.473L103.709 96.7641C103.566 96.5345 103.475 96.2762 103.444 96.0077L104.115 95.7168H100.907L101.321 96.0038C101.321 96.0038 101.637 96.2521 101.637 97.055V101.772C101.637 102.591 101.328 102.823 101.325 102.827L100.899 103.095L100.419 102.823C100.08 102.558 99.8379 102.19 99.7284 101.776L97.6913 95.7284H96.8132L94.7799 101.733C94.4794 102.622 94.097 102.819 94.0814 102.827L93.3828 103.126H95.5956H95.658L95.1858 102.835C95.1858 102.835 94.9829 102.641 95.2521 101.826L95.6424 100.663H97.9215L98.3118 101.861C98.5498 102.583 98.3508 102.831 98.3508 102.831L98.101 103.072L98.0698 103.103H102.839L102.449 102.816C102.449 102.816 102.132 102.559 102.132 101.76V97.0473C102.127 96.9504 102.127 96.8532 102.132 96.7563C102.199 96.8533 102.257 96.9542 102.32 97.0667L105.832 103.099H106.277V97.0473C106.277 96.2715 106.581 96.0038 106.593 95.996L107.03 95.709H105.055L105.465 95.996ZM97.7615 100.22H95.8102L96.7937 97.2994L97.7615 100.22Z" fill="white"/>
<path d="M116.1 95.9922L116.517 95.709H113.618L114.039 95.996C114.039 95.996 114.355 96.2288 114.355 96.9891V99.1498H112.115V96.9891C112.093 96.8101 112.11 96.6285 112.164 96.4565C112.219 96.2846 112.31 96.1262 112.431 95.9922L112.853 95.709H109.953L110.375 95.996C110.375 95.996 110.691 96.2288 110.691 96.9891V101.826C110.691 102.602 110.378 102.816 110.375 102.819L109.914 103.106H112.825L112.435 102.823C112.312 102.69 112.22 102.532 112.165 102.36C112.11 102.188 112.093 102.006 112.115 101.826V99.6618H114.355V101.834C114.355 102.61 114.043 102.823 114.043 102.827L113.582 103.114H116.49L116.1 102.831C115.977 102.698 115.885 102.54 115.83 102.367C115.774 102.195 115.757 102.013 115.78 101.834V96.9891C115.78 96.2676 116.08 96.0193 116.1 95.9922Z" fill="white"/>
<path d="M134.419 103.106H137.365L136.729 102.808C136.306 102.562 135.951 102.215 135.695 101.799L134.704 100.372C135.255 100.279 135.755 99.9936 136.112 99.5668C136.47 99.1399 136.663 98.5999 136.655 98.0443C136.655 96.5896 135.625 95.7168 133.9 95.7168H130.274L130.696 96.0038C130.696 96.0038 131.012 96.2366 131.012 96.9969V101.846C131.012 102.594 130.7 102.823 130.7 102.827L130.27 103.095L129.794 102.823C129.455 102.558 129.213 102.19 129.103 101.776L127.062 95.7284H126.184L124.151 101.733C123.854 102.622 123.472 102.819 123.456 102.827L122.758 103.126H124.971H125.033L124.557 102.835C124.557 102.835 124.358 102.641 124.623 101.826L125.014 100.663H127.289L127.679 101.861C127.921 102.583 127.722 102.831 127.722 102.831L127.472 103.072L127.441 103.103H133.139L132.748 102.819C132.625 102.687 132.531 102.529 132.475 102.357C132.42 102.184 132.402 102.002 132.425 101.823V100.438H133.248L134.29 101.989C134.68 102.575 134.653 102.816 134.637 102.858L134.419 103.106ZM127.125 100.22H125.174L126.157 97.2995L127.125 100.22ZM132.428 96.1241H133.455C134.626 96.1241 135.23 96.7913 135.23 98.0637C135.23 98.9675 134.938 100.042 133.537 100.042H132.428V96.1241Z" fill="white"/>
</g>
<defs>
<clipPath id="clip0_1616_11601">
<rect width="158" height="115" fill="white"/>
</clipPath>
</defs>
</svg>
