<svg width="35" height="35" viewBox="0 0 35 35" fill="none" xmlns="http://www.w3.org/2000/svg">
<path d="M3.64453 17.4987C3.64453 10.9683 3.64453 7.70161 5.67307 5.67307C7.70161 3.64453 10.9668 3.64453 17.4987 3.64453C24.0291 3.64453 27.2958 3.64453 29.3243 5.67307C31.3529 7.70161 31.3529 10.9668 31.3529 17.4987C31.3529 24.0291 31.3529 27.2958 29.3243 29.3243C27.2958 31.3529 24.0306 31.3529 17.4987 31.3529C10.9683 31.3529 7.70161 31.3529 5.67307 29.3243C3.64453 27.2958 3.64453 24.0306 3.64453 17.4987Z" stroke="white" stroke-width="1.5" stroke-linecap="round" stroke-linejoin="round"/>
<path d="M25.5325 9.47852H25.5179M24.0625 17.4993C24.0625 19.2398 23.3711 20.909 22.1404 22.1397C20.9097 23.3704 19.2405 24.0618 17.5 24.0618C15.7595 24.0618 14.0903 23.3704 12.8596 22.1397C11.6289 20.909 10.9375 19.2398 10.9375 17.4993C10.9375 15.7589 11.6289 14.0897 12.8596 12.859C14.0903 11.6283 15.7595 10.9368 17.5 10.9368C19.2405 10.9368 20.9097 11.6283 22.1404 12.859C23.3711 14.0897 24.0625 15.7589 24.0625 17.4993Z" stroke="white" stroke-width="1.5" stroke-linecap="round" stroke-linejoin="round"/>
</svg>
