<svg width="30" height="30" viewBox="0 0 30 30" fill="none" xmlns="http://www.w3.org/2000/svg">
<path d="M1.48828 0.0891132C1.03125 0.305536 0.896484 0.954802 1.22461 1.34945L1.39453 1.55951L2.75977 1.59134L4.125 1.62316L4.48828 3.27815C4.69336 4.1884 4.85742 4.97134 4.85742 5.00953C4.86328 5.07318 4.41211 5.09228 2.80078 5.09228C1.57031 5.09228 0.644531 5.11774 0.515625 5.15593C0.1875 5.25778 0 5.53785 0 5.9325C0 6.21258 0.0234375 6.27623 0.199219 6.46719L0.398438 6.68361H14.3848H28.3711L28.3301 6.85548C28.3066 6.95732 27.791 9.26795 27.1758 11.9987C26.3613 15.646 26.0273 17.0273 25.9277 17.1928C25.8516 17.3201 25.6934 17.4729 25.5645 17.5429C25.3477 17.6575 25.043 17.6638 16.3184 17.6957L7.29492 17.7275L6.83789 17.963C5.39648 18.7141 4.86328 20.5092 5.60742 22.1132C5.99414 22.9407 6.99609 23.6091 7.8457 23.6154H8.10352L7.75781 23.8573C6.85547 24.4939 6.38086 25.4678 6.38086 26.6708C6.38086 28.574 7.66992 29.9808 9.43359 29.9999C10.9043 30.0126 12.1172 28.9623 12.457 27.3901C12.75 26.0343 12.1406 24.4811 11.0449 23.8L10.752 23.6154H17.373H23.9941L23.7012 23.8C23.3086 24.0419 22.7461 24.7039 22.5469 25.1559C21.9375 26.5117 22.1953 28.0839 23.1855 29.0896C23.8184 29.7389 24.4512 30.0063 25.3125 29.9999C25.9922 29.9935 26.4961 29.8344 27.0059 29.4652C27.9023 28.8159 28.3711 27.8484 28.3711 26.6517C28.3652 25.4423 27.8613 24.4493 26.9297 23.8128L26.6367 23.6154H27.2051C27.7676 23.6154 27.7793 23.6154 27.9785 23.4054C28.3301 23.0553 28.3008 22.4442 27.9141 22.1705C27.7559 22.0623 27.3047 22.0559 17.666 22.0241L7.58203 21.9923L7.33594 21.814C6.67383 21.3366 6.53906 20.3818 7.04883 19.7517C7.1543 19.6244 7.3418 19.4716 7.4707 19.4079C7.69336 19.2934 8.11523 19.287 16.4062 19.287C22.166 19.287 25.2363 19.2615 25.4883 19.217C26.0098 19.1279 26.4258 18.9051 26.8008 18.5232C27.3691 17.9439 27.3457 18.0203 28.7344 11.8268C29.4316 8.72053 30 6.05345 30 5.89431C30 5.54422 29.7949 5.25141 29.4844 5.15593C29.3379 5.11774 25.4473 5.09228 17.8301 5.09228C11.5371 5.09228 6.38672 5.07955 6.38672 5.06045C6.38672 4.88222 5.36719 0.445574 5.29688 0.330997C5.11523 0.031826 4.92773 0 3.24023 0C2.05664 0.00636482 1.62305 0.0254612 1.48828 0.0891132ZM10.1719 25.1113C11.1445 25.6269 11.3613 27.0273 10.5996 27.8802C9.5918 29.0069 7.85156 28.243 7.85156 26.6708C7.85156 25.3468 9.07617 24.5257 10.1719 25.1113ZM25.9277 25.0413C26.2383 25.1877 26.6309 25.6205 26.7773 25.9834C27.2285 27.1227 26.4551 28.4085 25.3125 28.4149C24.1172 28.4213 23.3379 27.0655 23.8652 25.8942C24.2402 25.0667 25.1543 24.6912 25.9277 25.0413Z" fill="#7A8872"/>
<path d="M4.62327 9.43977C4.28342 9.68802 4.17796 10.1145 4.36546 10.5028C4.55296 10.8974 4.3596 10.8847 9.28733 10.8847C14.133 10.8847 13.9865 10.8974 14.2033 10.5537C14.3205 10.3755 14.3264 9.91717 14.2092 9.68165C14.0217 9.28064 14.174 9.29337 9.26975 9.29337H4.82249L4.62327 9.43977Z" fill="#7A8872"/>
<path d="M0.806859 13.5964C0.484593 13.781 0.367406 14.3411 0.566624 14.7103C0.777562 15.0986 0.6135 15.0859 5.4592 15.0859C9.73069 15.0859 9.87717 15.0795 10.0588 14.9586C10.4748 14.6849 10.5393 14.0929 10.1994 13.7237L10.0178 13.5264L5.4885 13.5136C1.56858 13.5009 0.941624 13.5136 0.806859 13.5964Z" fill="#7A8872"/>
</svg>
