<svg width="25" height="25" viewBox="0 0 25 25" fill="none" xmlns="http://www.w3.org/2000/svg">
<path d="M0.75 4.625C0.75 2.79858 0.75 1.88538 1.31833 1.31833C1.88408 0.75 2.79729 0.75 4.625 0.75C6.45271 0.75 7.36463 0.75 7.93167 1.31833C8.5 1.88408 8.5 2.79729 8.5 4.625C8.5 6.45271 8.5 7.36463 7.93167 7.93167C7.36592 8.5 6.45271 8.5 4.625 8.5C2.79729 8.5 1.88538 8.5 1.31833 7.93167C0.75 7.36592 0.75 6.45271 0.75 4.625ZM0.75 20.125C0.75 18.2986 0.75 17.3854 1.31833 16.8183C1.88408 16.25 2.79729 16.25 4.625 16.25C6.45271 16.25 7.36463 16.25 7.93167 16.8183C8.5 17.3841 8.5 18.2973 8.5 20.125C8.5 21.9527 8.5 22.8646 7.93167 23.4317C7.36592 24 6.45271 24 4.625 24C2.79729 24 1.88538 24 1.31833 23.4317C0.75 22.8659 0.75 21.9527 0.75 20.125Z" stroke="#7A8872" stroke-width="1.5"/>
<path d="M0.75 12.375H8.5M12.375 0.75V7.20833" stroke="#7A8872" stroke-width="1.5" stroke-linecap="round" stroke-linejoin="round"/>
<path d="M16.25 4.625C16.25 2.79858 16.25 1.88538 16.8183 1.31833C17.3841 0.75 18.2973 0.75 20.125 0.75C21.9527 0.75 22.8646 0.75 23.4317 1.31833C24 1.88408 24 2.79729 24 4.625C24 6.45271 24 7.36463 23.4317 7.93167C22.8659 8.5 21.9527 8.5 20.125 8.5C18.2973 8.5 17.3854 8.5 16.8183 7.93167C16.25 7.36592 16.25 6.45271 16.25 4.625Z" stroke="#7A8872" stroke-width="1.5"/>
<path d="M24 12.375H16.25C14.4236 12.375 13.5104 12.375 12.9433 12.9433C12.375 13.5091 12.375 14.4223 12.375 16.25M12.375 19.8279V23.4032M16.25 16.25V18.1875C16.25 20.0552 17.2627 20.125 18.8333 20.125C19.1759 20.125 19.5044 20.2611 19.7467 20.5033C19.9889 20.7456 20.125 21.0741 20.125 21.4167M17.5417 24H16.25M20.125 16.25C21.9514 16.25 22.8646 16.25 23.4317 16.8183C23.9987 17.3867 24 18.3012 24 20.1302C24 21.9592 24 22.875 23.4317 23.4433C23.0183 23.8566 22.4203 23.9703 21.4167 24" stroke="#7A8872" stroke-width="1.5" stroke-linecap="round"/>
</svg>
