<svg width="96" height="96" viewBox="0 0 96 96" fill="none" xmlns="http://www.w3.org/2000/svg">
<path d="M48 5C48.573 5 49.1345 5.16385 49.6172 5.47266C50.0999 5.78156 50.4845 6.22277 50.7246 6.74316L62.2002 31.6191L62.4346 32.127L62.9902 32.1934L90.1982 35.4248H90.1992C90.7684 35.492 91.3068 35.7215 91.75 36.085C92.1931 36.4484 92.5229 36.9316 92.7002 37.4766C92.8774 38.0215 92.8944 38.6056 92.75 39.1602C92.6236 39.6455 92.3784 40.0906 92.0371 40.4551L91.8848 40.6064L71.7695 59.21L71.3584 59.5898L71.4678 60.1387L76.8076 87.0107V87.0117C76.92 87.5743 76.869 88.158 76.6602 88.6924C76.4513 89.2267 76.093 89.6902 75.6289 90.0273C75.1648 90.3644 74.6136 90.5612 74.041 90.5947C73.4683 90.6282 72.8978 90.4966 72.3975 90.2158H72.3965L48.4883 76.832L48 76.5576L47.5117 76.832L23.6045 90.2148C23.1045 90.4944 22.5347 90.6256 21.9629 90.5918C21.391 90.5579 20.8405 90.3611 20.377 90.0244C19.9134 89.6877 19.5558 89.2248 19.3467 88.6914C19.1638 88.2248 19.1013 87.7207 19.1631 87.2256L19.1973 87.0146L24.5371 60.1348L24.6465 59.5859L24.2354 59.2061L4.11426 40.6055C3.69414 40.2163 3.39431 39.7144 3.25 39.1602C3.10568 38.6056 3.12352 38.0215 3.30078 37.4766C3.47815 36.9315 3.80779 36.4484 4.25098 36.085C4.63884 35.7669 5.09938 35.5518 5.58984 35.458L5.80176 35.4248L33.0059 32.1973L33.5615 32.1309L33.7959 31.623L45.2764 6.74316C45.5165 6.22277 45.901 5.78156 46.3838 5.47266C46.8663 5.16402 47.4272 5.00005 48 5Z" fill="#FFB000" stroke="white" stroke-width="2"/>
</svg>
