<svg width="31" height="31" viewBox="0 0 31 31" fill="none" xmlns="http://www.w3.org/2000/svg">
<path d="M13.9197 13.4327L5.84678 9.94518C5.33012 9.70838 5.0128 9.32604 4.89482 8.79818C4.77685 8.27032 4.92195 7.80231 5.33012 7.39414L5.84678 6.87747C6.01901 6.70525 6.22912 6.57609 6.47712 6.48997C6.72512 6.40386 6.97785 6.38233 7.23532 6.42539L18.8603 8.49206L22.8645 4.4556C23.3596 3.96046 23.968 3.71289 24.6896 3.71289C25.4112 3.71289 26.0192 3.96046 26.5135 4.4556C27.0077 4.95074 27.2553 5.55911 27.2562 6.28072C27.257 7.00233 27.0095 7.61028 26.5135 8.10456L22.5093 12.141L24.5437 23.7337C24.5867 23.9921 24.5704 24.2504 24.4946 24.5087C24.4188 24.7671 24.2952 24.9823 24.1239 25.1546L23.6072 25.6389C23.1982 26.048 22.7246 26.1987 22.1864 26.091C21.6482 25.9834 21.2607 25.6712 21.0239 25.1546L17.5687 17.0816L14.2749 20.3431L14.9853 24.3473C15.0284 24.5625 15.0176 24.7727 14.953 24.9776C14.8884 25.1825 14.7808 25.3599 14.6301 25.5098L14.0812 26.0587C13.7798 26.3601 13.4086 26.4785 12.9677 26.4139C12.5269 26.3493 12.1983 26.1233 11.9822 25.7358L9.62491 21.3764L5.26553 19.0191C4.87803 18.8039 4.65199 18.4758 4.58741 18.0349C4.52282 17.594 4.64123 17.2224 4.94262 16.9202L5.49157 16.3712C5.64227 16.2205 5.82009 16.1129 6.02503 16.0483C6.22998 15.9837 6.43966 15.973 6.65408 16.016L10.626 16.6941L13.9197 13.4327Z" stroke="#7A8872" stroke-width="1.5"/>
</svg>
