<svg width="120" height="24" viewBox="0 0 120 24" fill="none" xmlns="http://www.w3.org/2000/svg">
<path d="M9.15323 5.408C10.4202 3.136 11.0532 2 12.0002 2C12.9472 2 13.5802 3.136 14.8472 5.408L15.1752 5.996C15.5352 6.642 15.7152 6.965 15.9952 7.178C16.2752 7.391 16.6252 7.47 17.3252 7.628L17.9612 7.772C20.4212 8.329 21.6502 8.607 21.9432 9.548C22.2352 10.488 21.3972 11.469 19.7202 13.43L19.2862 13.937C18.8102 14.494 18.5712 14.773 18.4642 15.117C18.3572 15.462 18.3932 15.834 18.4652 16.577L18.5312 17.254C18.7842 19.871 18.9112 21.179 18.1452 21.76C17.3792 22.341 16.2272 21.811 13.9252 20.751L13.3282 20.477C12.6742 20.175 12.3472 20.025 12.0002 20.025C11.6532 20.025 11.3262 20.175 10.6722 20.477L10.0762 20.751C7.77323 21.811 6.62123 22.341 5.85624 21.761C5.08924 21.179 5.21623 19.871 5.46923 17.254L5.53523 16.578C5.60723 15.834 5.64323 15.462 5.53523 15.118C5.42923 14.773 5.19024 14.494 4.71424 13.938L4.28024 13.43C2.60324 11.47 1.76523 10.489 2.05723 9.548C2.34923 8.607 3.58024 8.328 6.04024 7.772L6.67624 7.628C7.37524 7.47 7.72424 7.391 8.00524 7.178C8.28624 6.965 8.46523 6.642 8.82523 5.996L9.15323 5.408Z" fill="white"/>
<path d="M33.1532 5.408C34.4202 3.136 35.0532 2 36.0002 2C36.9472 2 37.5802 3.136 38.8472 5.408L39.1752 5.996C39.5352 6.642 39.7152 6.965 39.9952 7.178C40.2752 7.391 40.6252 7.47 41.3252 7.628L41.9612 7.772C44.4212 8.329 45.6502 8.607 45.9432 9.548C46.2352 10.488 45.3972 11.469 43.7202 13.43L43.2862 13.937C42.8102 14.494 42.5712 14.773 42.4642 15.117C42.3572 15.462 42.3932 15.834 42.4652 16.577L42.5312 17.254C42.7842 19.871 42.9112 21.179 42.1452 21.76C41.3792 22.341 40.2272 21.811 37.9252 20.751L37.3282 20.477C36.6742 20.175 36.3472 20.025 36.0002 20.025C35.6532 20.025 35.3262 20.175 34.6722 20.477L34.0762 20.751C31.7732 21.811 30.6212 22.341 29.8562 21.761C29.0892 21.179 29.2162 19.871 29.4692 17.254L29.5352 16.578C29.6072 15.834 29.6432 15.462 29.5352 15.118C29.4292 14.773 29.1902 14.494 28.7142 13.938L28.2802 13.43C26.6032 11.47 25.7652 10.489 26.0572 9.548C26.3492 8.607 27.5802 8.328 30.0402 7.772L30.6762 7.628C31.3752 7.47 31.7242 7.391 32.0052 7.178C32.2862 6.965 32.4652 6.642 32.8252 5.996L33.1532 5.408Z" fill="white"/>
<path d="M57.1532 5.408C58.4202 3.136 59.0532 2 60.0002 2C60.9472 2 61.5802 3.136 62.8472 5.408L63.1752 5.996C63.5352 6.642 63.7152 6.965 63.9952 7.178C64.2752 7.391 64.6252 7.47 65.3252 7.628L65.9612 7.772C68.4212 8.329 69.6502 8.607 69.9432 9.548C70.2352 10.488 69.3972 11.469 67.7202 13.43L67.2862 13.937C66.8102 14.494 66.5712 14.773 66.4642 15.117C66.3572 15.462 66.3932 15.834 66.4652 16.577L66.5312 17.254C66.7842 19.871 66.9112 21.179 66.1452 21.76C65.3792 22.341 64.2272 21.811 61.9252 20.751L61.3282 20.477C60.6742 20.175 60.3472 20.025 60.0002 20.025C59.6532 20.025 59.3262 20.175 58.6722 20.477L58.0762 20.751C55.7732 21.811 54.6212 22.341 53.8562 21.761C53.0892 21.179 53.2162 19.871 53.4692 17.254L53.5352 16.578C53.6072 15.834 53.6432 15.462 53.5352 15.118C53.4292 14.773 53.1902 14.494 52.7142 13.938L52.2802 13.43C50.6032 11.47 49.7652 10.489 50.0572 9.548C50.3492 8.607 51.5802 8.328 54.0402 7.772L54.6762 7.628C55.3752 7.47 55.7242 7.391 56.0052 7.178C56.2862 6.965 56.4652 6.642 56.8252 5.996L57.1532 5.408Z" fill="white"/>
<path d="M81.1532 5.408C82.4202 3.136 83.0532 2 84.0002 2C84.9472 2 85.5802 3.136 86.8472 5.408L87.1752 5.996C87.5352 6.642 87.7152 6.965 87.9952 7.178C88.2752 7.391 88.6252 7.47 89.3252 7.628L89.9612 7.772C92.4212 8.329 93.6502 8.607 93.9432 9.548C94.2352 10.488 93.3972 11.469 91.7202 13.43L91.2862 13.937C90.8102 14.494 90.5712 14.773 90.4642 15.117C90.3572 15.462 90.3932 15.834 90.4652 16.577L90.5312 17.254C90.7842 19.871 90.9112 21.179 90.1452 21.76C89.3792 22.341 88.2272 21.811 85.9252 20.751L85.3282 20.477C84.6742 20.175 84.3472 20.025 84.0002 20.025C83.6532 20.025 83.3262 20.175 82.6722 20.477L82.0762 20.751C79.7732 21.811 78.6212 22.341 77.8562 21.761C77.0892 21.179 77.2162 19.871 77.4692 17.254L77.5352 16.578C77.6072 15.834 77.6432 15.462 77.5352 15.118C77.4292 14.773 77.1902 14.494 76.7142 13.938L76.2802 13.43C74.6032 11.47 73.7652 10.489 74.0572 9.548C74.3492 8.607 75.5802 8.328 78.0402 7.772L78.6762 7.628C79.3752 7.47 79.7242 7.391 80.0052 7.178C80.2862 6.965 80.4652 6.642 80.8252 5.996L81.1532 5.408Z" fill="white"/>
<path d="M105.153 5.408C106.42 3.136 107.053 2 108 2C108.947 2 109.58 3.136 110.847 5.408L111.175 5.996C111.535 6.642 111.715 6.965 111.995 7.178C112.275 7.391 112.625 7.47 113.325 7.628L113.961 7.772C116.421 8.329 117.65 8.607 117.943 9.548C118.235 10.488 117.397 11.469 115.72 13.43L115.286 13.937C114.81 14.494 114.571 14.773 114.464 15.117C114.357 15.462 114.393 15.834 114.465 16.577L114.531 17.254C114.784 19.871 114.911 21.179 114.145 21.76C113.379 22.341 112.227 21.811 109.925 20.751L109.328 20.477C108.674 20.175 108.347 20.025 108 20.025C107.653 20.025 107.326 20.175 106.672 20.477L106.076 20.751C103.773 21.811 102.621 22.341 101.856 21.761C101.089 21.179 101.216 19.871 101.469 17.254L101.535 16.578C101.607 15.834 101.643 15.462 101.535 15.118C101.429 14.773 101.19 14.494 100.714 13.938L100.28 13.43C98.6032 11.47 97.7652 10.489 98.0572 9.548C98.3492 8.607 99.5802 8.328 102.04 7.772L102.676 7.628C103.375 7.47 103.724 7.391 104.005 7.178C104.286 6.965 104.465 6.642 104.825 5.996L105.153 5.408Z" fill="white"/>
</svg>
