<svg width="31" height="31" viewBox="0 0 31 31" fill="none" xmlns="http://www.w3.org/2000/svg">
<path d="M4.52344 14.2095C4.00958 14.2095 3.51677 14.0054 3.15342 13.642C2.79007 13.2787 2.58594 12.7858 2.58594 12.272C2.58594 11.7581 2.79007 11.2653 3.15342 10.902C3.51677 10.5386 4.00958 10.3345 4.52344 10.3345H5.49477C6.06847 8.11654 7.3627 6.15201 9.17416 4.74949C10.9856 3.34697 13.2117 2.58594 15.5026 2.58594C17.7935 2.58594 20.0196 3.34697 21.831 4.74949C23.6425 6.15201 24.9367 8.11654 25.5104 10.3345H25.8359C26.3498 10.3345 26.8426 10.5386 27.206 10.902C27.5693 11.2653 27.7734 11.7581 27.7734 12.272C27.7734 12.7858 27.5693 13.2787 27.206 13.642C26.8426 14.0054 26.3498 14.2095 25.8359 14.2095H25.7559C25.4406 16.7064 24.2251 19.0025 22.3374 20.6669C20.4496 22.3314 18.0193 23.2498 15.5026 23.2498C12.9859 23.2498 10.5556 22.3314 8.66784 20.6669C6.78008 19.0025 5.56456 16.7064 5.24935 14.2095H4.52344Z" stroke="#7A8872" stroke-width="1.5" stroke-linejoin="round"/>
<path d="M5.8125 10.334H7.75C9.80543 10.334 11.7767 9.51747 13.2301 8.06406C14.6835 6.61065 15.5 4.63941 15.5 2.58398C15.5 4.63941 16.3165 6.61065 17.7699 8.06406C19.2233 9.51747 21.1946 10.334 23.25 10.334H25.1875" stroke="#7A8872" stroke-width="1.5" stroke-linecap="round" stroke-linejoin="round"/>
<path d="M15.5026 19.3757C15.8452 19.3757 16.1737 19.2396 16.416 18.9973C16.6582 18.7551 16.7943 18.4266 16.7943 18.084H14.2109C14.2109 18.4266 14.347 18.7551 14.5893 18.9973C14.8315 19.2396 15.16 19.3757 15.5026 19.3757Z" stroke="#7A8872" stroke-width="1.5" stroke-linejoin="round"/>
<path d="M23.25 28.418C23.25 26.1033 22.2347 24.0263 20.6266 22.6055M7.75 28.418C7.75 26.1033 8.76525 24.0263 10.3734 22.6055" stroke="#7A8872" stroke-width="1.5" stroke-linecap="round"/>
<path d="M11.625 12.918V12.9309M19.375 12.918V12.9309" stroke="#7A8872" stroke-width="1.5" stroke-linecap="round"/>
</svg>
