<svg width="102" height="102" viewBox="0 0 102 102" fill="none" xmlns="http://www.w3.org/2000/svg">
<path d="M17.7852 87.9404C16.9079 87.9404 16.1702 87.5334 15.5557 86.6152V86.6143C14.9215 85.66 14.6377 84.886 14.6143 84.2754L14.8652 83.6094C27.4121 75.535 33.7755 65.7499 33.7734 54.248C33.7734 52.472 33.6199 51.0833 33.2852 50.1221C32.9517 49.1646 32.3659 48.4658 31.4336 48.4658H31.3672L31.3037 48.4834L30.041 48.8242L30.0156 48.8311L29.9922 48.8408C29.0215 49.215 28.2851 49.3809 27.7617 49.3809C24.3839 49.3808 21.5328 48.1336 19.1797 45.6191L19.1787 45.6182C16.8225 43.1087 15.6405 40.0081 15.6426 36.2832C15.6445 32.9487 16.7427 30.1011 18.9443 27.7158L19.3984 27.2451C21.9054 24.7668 24.9161 23.5322 28.457 23.5322C33.4212 23.5323 37.5086 25.5635 40.751 29.6641H40.752C43.9927 33.7673 45.6279 38.9402 45.6279 45.2178L45.624 45.8926C45.5445 52.6169 44.2133 58.7787 41.6357 64.3848L41.374 64.9434C38.6289 70.6999 34.5335 75.8796 29.0762 80.4805L28.5439 80.9238C25.6581 83.2955 23.3058 85.0642 21.4834 86.2373C20.5721 86.8239 19.8031 87.255 19.1729 87.5381C18.5319 87.8259 18.0785 87.9404 17.7852 87.9404ZM59.1045 87.9434C58.2294 87.9433 57.4937 87.5365 56.8809 86.6172V86.6162C56.2441 85.663 55.9603 84.8896 55.9375 84.2793L56.1904 83.5996C68.7273 75.5251 75.0859 65.7441 75.0859 54.251C75.0859 52.475 74.9333 51.0862 74.5986 50.125C74.2652 49.1676 73.6793 48.4697 72.7471 48.4697H72.6807L72.6162 48.4863L71.3545 48.8281L71.3291 48.835L71.3047 48.8438C70.3342 49.2178 69.5986 49.3838 69.0752 49.3838C65.6177 49.3838 62.7501 48.1344 60.4385 45.625C58.123 43.1113 56.9581 40.0094 56.9561 36.2861L56.9707 35.626C57.1188 32.3564 58.3633 29.5717 60.7119 27.248C63.2188 24.7699 66.2288 23.5362 69.7695 23.5361C74.7338 23.5361 78.821 25.5664 82.0635 29.667C85.3047 33.7704 86.9414 38.9427 86.9414 45.2207C86.9435 52.3569 85.5438 58.8736 82.75 64.7783C79.9506 70.6793 75.6776 76.0262 69.916 80.8164C67.0151 83.2243 64.6509 85.0203 62.8193 86.2119C61.9033 86.8079 61.1304 87.2464 60.4971 87.5342C59.8533 87.8268 59.3985 87.9428 59.1045 87.9434Z" stroke="#7A8872"/>
</svg>
