<svg width="226" height="280" viewBox="0 0 226 280" fill="none" xmlns="http://www.w3.org/2000/svg">
<path d="M104.572 6.45975C101.218 10.151 97.8649 14.4574 97.4075 16.303C95.121 24.1468 73.4749 30.7602 49.6946 30.7602H35.5179V39.9882C35.5179 52.2922 32.4692 54.4454 13.5669 55.2144L0 55.6758L0.914625 82.1295C2.28656 121.349 10.0609 162.721 21.6461 193.019C31.0972 217.781 50.1519 243.62 67.0725 254.232C70.731 256.539 78.9626 260.23 85.365 262.383C101.066 267.766 123.932 268.074 139.328 263.152C168.291 253.924 192.986 225.164 206.705 185.176C217.528 153.647 224.083 114.274 224.845 76.9002L225.303 56.1372L211.583 55.2144C191.461 53.984 189.48 52.446 189.48 38.7578V31.2216L170.882 30.2988C149.389 29.376 137.346 26.1462 132.011 20.3018C130.029 17.9948 125.304 12.458 121.34 7.99774C117.529 3.69135 113.566 0.00012207 112.651 0.00012207C111.584 0.00012207 108.078 2.92236 104.572 6.45975ZM121.798 19.6866C127.285 29.9912 142.681 35.8356 168.596 37.6812L183.382 38.7578V44.4484C183.382 55.522 191.004 61.2126 208.077 62.5968L218.9 63.5196L217.833 83.6674C215.089 135.96 206.095 174.871 189.022 208.399C175.76 234.238 154.114 253.001 131.554 258.231C127.743 259.154 119.206 259.923 112.346 259.923C89.4808 259.923 72.1029 252.079 54.5726 233.623C45.1215 223.626 41.7679 218.55 34.146 202.709C29.1156 192.25 23.1705 177.486 21.0364 169.949C14.4816 147.341 9.45112 113.812 8.5365 87.5125L7.62187 63.5196L17.5303 62.7506C34.4509 61.3664 43.1398 54.753 43.1398 43.3718V38.9116L61.1274 37.2198C88.2613 34.6052 96.0356 30.914 108.383 13.996C111.889 9.38196 112.042 9.38196 115.548 11.9966C117.529 13.3808 120.273 16.9182 121.798 19.6866Z" fill="#7A8872"/>
<path d="M112.198 22.0409C112.198 24.7922 102.374 34.4216 96.3884 37.4785C88.5605 41.6054 72.2907 44.9681 60.7791 44.9681H51.5698L48.807 52.4576C45.1233 62.8513 38.2163 67.2839 21.3326 70.188L15.5 71.1051V82.8744C15.5 122.462 26.7047 171.985 42.3605 202.249C53.8721 224.412 66.1512 237.098 84.4163 245.657C92.5512 249.479 96.6954 250.396 109.128 251.007C126.626 251.771 137.37 249.326 150.877 241.225C184.491 220.896 206.44 165.565 211.351 88.6826C212.579 70.188 212.272 69.5766 202.756 69.4238C196.309 69.2709 186.179 64.9912 182.342 60.5586C180.654 58.8773 178.505 54.7504 177.43 51.5406L175.435 45.7323L162.542 44.6624C139.672 42.9811 124.016 36.5615 117.109 26.3206C113.272 20.3596 112.198 19.4425 112.198 22.0409Z" fill="#7A8872"/>
<g clip-path="url(#clip0_1616_15353)">
<path d="M202.862 186.267C179.738 186.135 156.619 186.02 133.505 185.924C132.852 185.959 132.228 186.2 131.725 186.611C124.202 192.852 111.653 192.989 104.081 186.817C103.338 186.18 102.371 185.855 101.387 185.91C84.7167 186.121 68.0485 186.32 51.3827 186.508C47.935 186.549 39.1764 186.59 30.9062 186.645V188.018C53.7695 188.018 83.3256 188.018 101.597 188.018C102.126 187.987 102.651 188.122 103.097 188.403C106.439 191.205 110.586 192.914 114.961 193.291C121.117 193.937 126.777 192.708 131.711 188.87C132.369 188.375 133.166 188.092 133.993 188.059C156.791 188.023 179.589 188.023 202.387 188.059H203.895V186.309C203.483 186.302 203.176 186.267 202.862 186.267Z" fill="#BF9F4A"/>
<path d="M93.0302 175.145C92.8814 175.042 92.7128 174.969 92.5347 174.932C86.0784 173.457 79.4969 172.574 72.8749 172.295C63.1184 171.935 53.3491 172.107 43.6119 172.81C42.9835 172.788 42.366 172.976 41.8593 173.342C41.3526 173.708 40.9865 174.232 40.8203 174.829C58.3097 173.923 75.6804 172.247 93.0302 175.145Z" fill="#F8EDCD"/>
<path d="M38.2566 180.109C36.6863 180.109 35.793 180.665 35.1719 182.361C55.8507 181.846 76.3131 180.027 96.8384 180.988C93.0761 180.503 89.2907 180.212 85.4975 180.116C69.7528 180.048 54.0012 180.144 38.2566 180.109Z" fill="#F8EDCD"/>
<path d="M152.565 175.296C147.68 175.667 142.85 176.573 138 177.232C138 177.363 138 177.486 138.049 177.617C157.423 174.383 176.796 176.978 196.505 177.699C195.535 176.58 195.277 175.337 193.713 175.255C179.979 174.548 166.265 174.266 152.565 175.296Z" fill="#F8EDCD"/>
<path d="M70.3732 176.059C78.0013 175.825 85.6293 175.839 93.1876 177.116L96.4887 177.672C90.6631 176.148 84.6867 175.25 78.6643 174.995C66.4216 174.397 54.1548 174.466 41.9198 175.201C40.0704 175.324 39.547 175.695 38.8281 177.624C41.4871 177.508 44.1043 177.405 46.7214 177.274C54.6007 176.842 62.487 176.313 70.3732 176.059Z" fill="#F8EDCD"/>
<path d="M94.2784 178.832C94.1109 178.832 93.9504 178.75 93.7759 178.722C84.0541 177.267 74.2347 177.109 64.4641 177.267C56.2079 177.404 47.9587 177.747 39.7025 177.892C38.3067 177.892 37.5739 178.482 37.0156 179.78C56.173 179.052 75.1978 177.548 94.2784 178.832Z" fill="#F8EDCD"/>
<path d="M65.1146 167.297C58.9102 167.297 52.7059 167.984 46.5016 168.341C46.1396 168.321 45.7819 168.425 45.4896 168.636C44.4637 169.844 43.5006 171.108 42.3281 172.591C60.2363 171.217 77.7954 169.501 95.1592 174.094C79.9799 169 64.298 169.233 48.5813 169.762C65.0727 168.313 81.4524 168.238 97.4344 173.298C97.121 173.068 96.7722 172.89 96.4015 172.769C86.3852 169.133 75.791 167.28 65.1146 167.297Z" fill="#F8EDCD"/>
<path d="M187.481 172.735C175.177 171.856 162.894 171.815 150.646 173.421C147.477 173.826 144.365 174.458 141.203 174.987C158.874 172.343 176.545 174.08 194.244 174.987C193.657 173.703 192.952 172.968 191.515 173.03C190.166 173.005 188.819 172.907 187.481 172.735Z" fill="#F8EDCD"/>
<path d="M186.444 169.844C178.684 169.879 170.923 169.748 163.176 169.913C155.318 170.078 143.635 172.241 140.425 173.868C140.578 173.882 140.732 173.882 140.885 173.868C147.641 172.11 154.557 171.568 161.501 171.252C170.742 170.833 179.912 171.938 189.11 172.44C190.206 172.501 191.295 172.577 192.691 172.673C190.932 170.558 189.976 168.554 186.877 168.245C175.801 167.146 164.782 166.803 153.776 168.794C147.803 169.879 141.958 171.556 136.328 173.799C144.355 171.137 152.719 169.586 161.18 169.192C169.605 168.702 178.057 168.92 186.444 169.844Z" fill="#F8EDCD"/>
<path d="M186.473 161.208C186.584 160.988 186.689 160.775 186.808 160.562C185.53 159.484 184.197 158.468 183.011 157.308C182.741 156.985 182.394 156.733 182 156.576C181.606 156.419 181.179 156.362 180.757 156.408C176.618 156.903 172.445 157.191 168.327 157.843C157.054 159.519 146.18 163.177 136.224 168.643C133.558 170.133 131.143 172.152 128.547 173.731C146.525 163.872 165.996 160.226 186.473 161.208Z" fill="#F8EDCD"/>
<path d="M189.455 167.187C188.444 165.704 187.327 164.293 186.112 162.965C185.734 162.671 185.261 162.517 184.779 162.532C173.327 162.136 161.878 163.437 150.819 166.391C143.324 168.377 136.097 171.236 129.289 174.905C148.544 166.405 168.616 164.16 189.455 167.187Z" fill="#F8EDCD"/>
<path d="M196.523 180.205C195.887 180.222 195.251 180.194 194.618 180.123C180.234 180.123 165.844 180.027 151.453 180.123C147.133 180.123 142.813 180.603 138.5 180.857C145.318 180.906 152.123 180.816 158.928 180.933C165.732 181.05 172.537 181.366 179.341 181.62C186.146 181.874 192.901 182.231 199.873 182.546C199.134 180.837 198.219 179.965 196.523 180.205Z" fill="#F8EDCD"/>
<path d="M50.0758 162.423C49.7198 162.39 49.3629 162.477 49.0639 162.67C47.8356 164.043 46.6701 165.478 45.2812 167.126C56.1755 166.021 66.6649 165.314 77.1893 166.776C87.588 168.297 97.7312 171.188 107.346 175.372C107.17 175.243 106.986 175.126 106.794 175.022C89.2956 166.116 69.7664 161.778 50.0758 162.423Z" fill="#F8EDCD"/>
<path d="M197.977 179.841C197.44 178.722 196.902 178.145 195.681 178.077C182.574 177.321 169.447 177.019 156.326 177.486C149.766 177.719 143.234 178.482 136.688 179.01C136.688 179.168 136.688 179.326 136.722 179.491C157.101 177.369 177.459 179.113 197.977 179.841Z" fill="#F8EDCD"/>
<path d="M114.928 173.277C113.888 170.716 112.932 168.052 111.438 165.759C100.419 148.938 84.4157 138.982 65.1536 133.592C64.9502 133.545 64.7387 133.543 64.5345 133.587C64.3304 133.631 64.1389 133.72 63.9742 133.846L50.6094 146.734L57.8885 147.702L115.472 176.861C115.263 175.426 115.333 174.259 114.928 173.277Z" fill="#F8EDCD"/>
<path d="M183.441 155.344C182.045 153.902 180.775 152.893 179.952 151.609C178.012 148.705 175.45 148.629 172.386 149.357C155.907 153.262 140.568 160.862 127.567 171.561C126.869 172.131 126.172 172.735 125.522 173.333C124.873 173.93 124.252 174.466 123.617 175.036C132.243 168.726 141.407 163.508 151.645 160.205C161.895 156.856 172.641 155.213 183.441 155.344Z" fill="#F8EDCD"/>
<path d="M53.9901 156.305C53.6403 156.254 53.2836 156.335 52.9921 156.532C51.5963 157.905 50.2005 159.381 48.8047 160.816C69.7417 160.171 89.5062 164.091 107.812 174.225L108.091 173.834C104.602 171.774 101.168 169.618 97.5809 167.73C83.9649 160.576 69.2462 157.418 53.9901 156.305Z" fill="#F8EDCD"/>
<path d="M108.59 172.035C97.1726 162.389 84.1638 155.605 69.8498 151.156C66.5418 150.126 63.0872 149.556 59.6744 148.849C59.3976 148.797 59.1128 148.804 58.8386 148.867C58.5644 148.931 58.307 149.051 58.0832 149.22C56.2407 151.06 54.489 152.989 52.5 155.125C74.8747 155.674 94.9603 161.784 112.331 175.585C111.149 174.337 109.9 173.152 108.59 172.035Z" fill="#F8EDCD"/>
<path d="M116.64 176.731C116.64 177.548 116.221 178.826 117.568 178.887L116.64 176.731Z" fill="#E7D7A7"/>
<path d="M117.57 178.887H117.668C119.064 178.887 118.603 177.583 118.61 176.793" fill="#C49B40"/>
<path d="M171.753 134.004C171.167 133.318 170.616 133.496 169.946 133.675C156.731 137.164 144.64 143.911 134.813 153.277C128.93 158.866 123.773 165.011 120.855 172.666C120.492 173.915 120.24 175.192 120.102 176.483L120.464 176.621C128.504 167.99 138.066 161.406 148.597 156.112C159.128 150.819 172.695 148.004 184.727 146.768L171.753 134.004Z" fill="#F8EDCD"/>
<path d="M163.325 115.427C163.325 116.166 163.934 116.766 164.686 116.766C165.438 116.766 166.047 116.166 166.047 115.427V96.6281C166.047 95.8887 165.438 95.2892 164.686 95.2892C163.934 95.2892 163.325 95.8887 163.325 96.6281V115.427Z" fill="#BF9F4A"/>
<path d="M172.831 101.64C172.831 100.9 172.222 100.301 171.47 100.301C170.719 100.301 170.109 100.9 170.109 101.64V110.297C170.109 111.037 170.719 111.636 171.47 111.636C172.222 111.636 172.831 111.037 172.831 110.297V101.64Z" fill="#BF9F4A"/>
<path d="M151.942 113.978C151.942 114.717 152.552 115.316 153.303 115.316C154.055 115.316 154.664 114.717 154.664 113.978V98.0762C154.664 97.3368 154.055 96.7374 153.303 96.7374C152.552 96.7374 151.942 97.3368 151.942 98.0762V113.978Z" fill="#BF9F4A"/>
<path d="M157.591 121.165C157.591 121.904 158.2 122.504 158.952 122.504C159.703 122.504 160.312 121.904 160.312 121.165V90.6258C160.312 89.8863 159.703 89.2869 158.952 89.2869C158.2 89.2869 157.591 89.8863 157.591 90.6258V121.165Z" fill="#BF9F4A"/>
<path d="M72.464 96.3662C72.464 95.6268 71.8547 95.0273 71.1031 95.0273C70.3515 95.0273 69.7422 95.6268 69.7422 96.3662V115.165C69.7422 115.904 70.3515 116.504 71.1031 116.504C71.8547 116.504 72.464 115.904 72.464 115.165V96.3662Z" fill="#BF9F4A"/>
<path d="M65.6749 101.487C65.6749 100.748 65.0656 100.148 64.314 100.148C63.5624 100.148 62.9531 100.748 62.9531 101.487V110.145C62.9531 110.885 63.5624 111.484 64.314 111.484C65.0656 111.484 65.6749 110.885 65.6749 110.145V101.487Z" fill="#BF9F4A"/>
<path d="M83.8468 97.8154C83.8468 97.076 83.2375 96.4766 82.4859 96.4766C81.7343 96.4766 81.125 97.076 81.125 97.8154V113.717C81.125 114.456 81.7343 115.056 82.4859 115.056C83.2375 115.056 83.8468 114.456 83.8468 113.717V97.8154Z" fill="#BF9F4A"/>
<path d="M78.2062 90.6259C78.2062 89.8865 77.5969 89.2871 76.8453 89.2871C76.0937 89.2871 75.4844 89.8865 75.4844 90.6259V121.165C75.4844 121.905 76.0937 122.504 76.8453 122.504C77.5969 122.504 78.2062 121.905 78.2062 121.165V90.6259Z" fill="#BF9F4A"/>
<path d="M202.536 183.234C201.35 182.922 200.334 182.168 199.702 181.133C197.297 177.773 194.84 174.45 192.333 171.163C192.06 170.884 191.892 170.521 191.858 170.135C191.823 169.749 191.925 169.363 192.144 169.042C200.921 153.084 203.79 134.622 200.261 116.813C192.835 77.3346 157.877 49.8986 118.76 49.5279C112.236 49.4481 105.725 50.1163 99.3583 51.519C81.801 55.2247 65.9579 64.479 54.246 77.8701C37.7546 96.4628 31.2991 118.166 34.3489 142.595C35.5895 152.166 38.6684 161.418 43.4216 169.859C40.4067 173.896 37.4336 177.947 34.3489 181.929C33.9022 182.499 32.9531 182.725 32.2552 183.089C31.8085 183.316 31.3479 183.508 30.8594 183.714V184.119H33.2951C56.1676 184.119 79.0448 184.096 101.927 184.051C103 184.013 104.046 184.387 104.844 185.094C108.536 188.037 113.165 189.603 117.916 189.516C122.647 189.516 127.316 188.04 130.645 185.053C131.008 184.705 131.441 184.435 131.915 184.259C132.389 184.083 132.896 184.005 133.402 184.03C156.014 184.112 178.621 184.179 201.224 184.229H203.974C203.974 184.112 204.029 183.989 204.057 183.872C203.568 183.62 203.059 183.406 202.536 183.234ZM196.325 177.706C184.028 177.253 171.898 176.072 159.755 176.045C152.486 175.958 145.222 176.48 138.043 177.604L138.001 177.246C142.852 176.56 147.688 175.681 152.566 175.31C159.371 174.802 166.182 174.624 172.994 174.624C179.805 174.624 186.673 174.905 193.512 175.255C195.103 175.338 195.376 176.574 196.325 177.693V177.706ZM194.091 174.96C183.058 174.411 172.052 173.532 161.053 173.587C154.612 173.578 148.178 174.012 141.798 174.885C144.743 174.377 147.674 173.807 150.64 173.422C158.212 172.476 165.843 172.056 173.475 172.166C178.082 172.221 182.688 172.434 187.301 172.763C188.651 172.92 190.01 173.003 191.37 173.01C192.8 172.935 193.505 173.656 194.091 174.926V174.96ZM192.507 172.694C191.195 172.605 190.148 172.53 189.108 172.475C181.048 172.028 173.001 171.102 164.919 171.198C163.719 171.198 162.525 171.232 161.325 171.287C154.381 171.603 147.465 172.145 140.709 173.903H140.423C143.612 172.276 155.316 170.113 163.174 169.948C167.006 169.866 170.851 169.859 174.69 169.866H180.608H186.442C181.17 169.263 175.866 168.965 170.558 168.973C167.376 168.973 164.186 169.056 160.997 169.213C152.946 169.591 144.981 171.016 137.31 173.45C142.636 171.394 148.149 169.842 153.774 168.815C159.212 167.855 164.726 167.37 170.251 167.367C175.751 167.376 181.246 167.669 186.715 168.245C189.792 168.554 190.755 170.552 192.507 172.66V172.694ZM43.61 172.845C49.7027 172.468 55.7954 172.159 61.895 172.159C65.4962 172.159 69.0974 172.159 72.6985 172.358C79.3206 172.637 85.902 173.52 92.3584 174.994C92.5085 175.03 92.6522 175.087 92.7841 175.166C85.3163 174 77.7605 173.467 70.2001 173.573C60.4294 173.614 50.6588 174.37 40.8114 174.885C40.9672 174.277 41.3298 173.739 41.8389 173.362C42.348 172.985 42.973 172.791 43.61 172.811V172.845ZM41.9072 175.207C48.0208 174.823 54.1344 174.621 60.248 174.603C66.3616 174.585 72.4403 174.718 78.4841 175.001C84.3778 175.262 90.2266 176.139 95.9316 177.617L93.14 177.15C87.4856 176.252 81.7614 175.848 76.0345 175.942C74.0804 175.942 72.1239 175.981 70.1651 176.059C62.2789 176.313 54.3926 176.841 46.5133 177.246C43.952 177.37 41.3907 177.473 38.7945 177.59C39.5413 175.681 40.0647 175.297 41.9072 175.173V175.207ZM39.6948 177.954C47.951 177.809 56.2002 177.466 64.4563 177.329C66.8478 177.288 69.2416 177.272 71.6377 177.281C78.986 177.26 86.3262 177.762 93.6007 178.784L94.0334 178.881C89.2876 178.565 84.5419 178.427 79.7962 178.4C65.559 178.318 51.3218 179.286 37.0149 179.835C37.5732 178.475 38.2781 177.919 39.6948 177.892V177.954ZM85.17 180.769C68.546 180.721 51.929 181.998 35.1794 182.423C35.8005 180.727 36.6868 180.171 38.2571 180.171H49.919C57.8053 180.171 65.6986 180.171 73.5918 180.171C77.5001 180.171 81.4107 180.171 85.3235 180.171C89.0838 180.266 92.8366 180.552 96.5667 181.03C92.7841 180.789 88.9666 180.714 85.17 180.707V180.769ZM66.9618 168.911C60.8133 168.87 54.6299 169.22 48.4395 169.763H48.614C52.5362 169.632 56.4514 169.516 60.3527 169.502C71.8541 169.454 83.2787 170.271 94.4311 173.91C86.0836 171.902 77.5079 170.961 68.9159 171.108C60.1433 171.108 51.3009 171.898 42.3957 172.578C43.5612 171.102 44.4894 169.831 45.5432 168.637C45.8355 168.426 46.1933 168.321 46.5552 168.341C52.7246 167.964 58.8941 167.325 65.0705 167.298C75.7319 167.291 86.3095 169.151 96.3085 172.791C96.6158 172.9 96.9087 173.045 97.1809 173.223C87.2009 170.099 77.0953 168.966 66.9618 168.911ZM77.2279 166.776C73.2586 166.244 69.2579 165.971 65.2519 165.959C58.5937 165.977 51.9417 166.359 45.3269 167.106C46.7227 165.465 47.8672 164.043 49.0886 162.67C49.3876 162.477 49.7445 162.39 50.1005 162.423C51.3148 162.423 52.5222 162.382 53.7296 162.382C72.134 162.351 90.2759 166.677 106.623 174.994C106.723 175.043 106.818 175.098 106.91 175.159C97.4261 171.076 87.4331 168.25 77.193 166.755L77.2279 166.776ZM107.712 174.157C90.5648 164.696 72.1681 160.679 52.6758 160.748C51.3986 160.748 50.1214 160.748 48.8303 160.81C50.2261 159.375 51.6219 157.926 53.0177 156.532C53.2182 156.382 53.4638 156.303 53.7156 156.306H53.8273C69.0834 157.411 83.8021 160.576 97.4112 167.73C100.998 169.619 104.425 171.795 107.922 173.834L107.712 174.157ZM52.5222 155.125C54.5252 152.989 56.2769 151.06 58.1054 149.22C58.4218 148.969 58.8155 148.831 59.2221 148.829C59.3218 148.818 59.4224 148.818 59.5222 148.829C62.9349 149.515 66.3895 150.106 69.6976 151.136C83.9906 155.585 97.0204 162.368 108.438 172.015C109.548 172.948 110.595 173.965 111.627 175.022C94.3963 161.64 74.555 155.667 52.4873 155.125H52.5222ZM117.608 178.887C116.248 178.826 116.673 177.555 116.673 176.732L118.467 176.807C118.425 177.576 118.865 178.826 117.574 178.887H117.608ZM120.114 176.828L115.291 176.663C100.266 161.434 82.6227 152.028 62.5371 147.407C60.8342 147.044 55.4883 146.034 50.6239 146.721L57.5331 148.025L50.0307 155.818L51.5452 156.203L45.8433 162.286L47.3857 162.533L44.4754 166.192C31.4526 142.691 31.313 103.102 59.9758 75.2405C75.0922 60.4675 95.4517 52.0505 116.757 51.7661C135.37 51.5417 153.499 57.5999 168.122 68.9308C201.035 94.3825 206.507 136.649 190.672 166.591L187.433 162.663L189.262 162.43L183.63 156.361L185.724 156.093L178.242 148.259L184.726 146.769C181.168 146.369 177.569 146.508 174.055 147.181C165.131 148.974 156.504 151.978 148.421 156.107C137.785 161.448 128.161 168.129 120.079 176.835L120.114 176.828ZM125.558 173.347C126.255 172.749 126.904 172.145 127.602 171.575C140.58 160.881 155.891 153.277 172.345 149.357C173.211 149.132 174.101 149.003 174.997 148.973C175.955 148.953 176.9 149.187 177.734 149.651C178.568 150.115 179.259 150.792 179.736 151.609C180.587 152.893 181.871 153.903 183.225 155.344C172.424 155.22 161.678 156.87 151.429 160.226C141.525 163.419 132.627 168.424 124.252 174.452L125.558 173.347ZM136.235 168.637C146.191 163.171 157.066 159.512 168.339 157.837C172.456 157.184 176.63 156.896 180.768 156.402C181.164 156.383 181.559 156.455 181.922 156.611C182.285 156.767 182.607 157.003 182.862 157.301C184.049 158.462 185.382 159.478 186.652 160.556C186.547 160.768 186.435 160.981 186.324 161.194C183.811 161.075 181.317 161.027 178.842 161.05C161.395 161.208 144.827 164.943 129.291 173.264C131.566 171.768 133.786 169.996 136.201 168.644L136.235 168.637ZM130.01 174.534C136.618 171.046 143.61 168.312 150.849 166.385C160.494 163.79 170.449 162.476 180.447 162.478C181.843 162.478 183.239 162.494 184.635 162.526C185.117 162.511 185.589 162.664 185.968 162.959C187.174 164.279 188.284 165.681 189.29 167.154C184.17 166.41 179.006 165.994 173.831 165.911C158.748 165.613 143.781 168.558 129.975 174.541L130.01 174.534ZM136.717 179.004C143.263 178.475 149.796 177.713 156.356 177.48C161.241 177.301 166.092 177.24 170.963 177.26C179.156 177.301 187.35 177.597 195.543 178.07C196.75 178.139 197.295 178.709 197.832 179.828C185.019 179.361 172.268 178.517 159.531 178.455C151.923 178.379 144.316 178.711 136.745 179.45C136.703 179.32 136.689 179.169 136.682 179.011L136.717 179.004ZM179.38 181.62C172.575 181.339 165.771 181.03 158.966 180.933C155.525 180.872 152.085 180.865 148.644 180.872H143.605C141.916 180.872 140.227 180.872 138.538 180.872C142.852 180.618 147.172 180.185 151.492 180.137C155.079 180.137 158.668 180.126 162.26 180.103C173.001 180.103 183.748 180.137 194.482 180.158C194.999 180.158 195.515 180.261 196.018 180.261C196.199 180.278 196.381 180.278 196.562 180.261C196.725 180.251 196.888 180.251 197.05 180.261C198.328 180.316 199.095 181.153 199.737 182.629C192.786 182.231 186.066 181.902 179.324 181.627L179.38 181.62Z" fill="#292728"/>
<path d="M99.8214 98.7006V99.0989H97.7137V103.726L97.4974 103.033L97.1484 100.733L97.3927 98.5977H98.3488L99.8214 98.7006Z" fill="black"/>
<path d="M142.912 99.1602H141.391V101.618H142.912V99.1602Z" fill="#F8EDCD"/>
<path d="M141.391 101.625V104.056V104.083H142.912V101.625H141.391Z" fill="#BF9F4A"/>
<path d="M93.882 101.914H92.1094V104.276H93.882V101.914Z" fill="#BF9F4A"/>
<path d="M93.882 99.5527H92.1094V101.915H93.882V99.5527Z" fill="#F8EDCD"/>
<path d="M99.7226 98.9473L99.4923 99.0983H97.922V100.732C97.901 101.126 97.901 101.52 97.922 101.913H99.7436L99.7226 98.9473Z" fill="#F8EDCD"/>
<path d="M97.9062 101.914C97.9062 102.511 97.9062 103.116 97.9062 103.727H99.7068V101.914H97.9062Z" fill="#BF9F4A"/>
<path d="M137.147 99.3867H135.5V101.625H137.147V99.3867Z" fill="#F8EDCD"/>
<path d="M135.5 101.625V103.946L137.147 103.822V101.625H135.5Z" fill="#BF9F4A"/>
<path d="M121.648 125.217V127.963C131.531 126.885 138.887 115.955 137.107 105.018H135.397C136.165 115.323 132.18 122.512 121.648 125.217Z" fill="white"/>
<path d="M140.244 96.723C140.244 96.6474 140.111 96.5582 140 96.4277H138.332C138.332 97.1967 138.332 97.8009 138.332 98.4463C138.332 99.5105 138.332 100.582 138.297 101.646H140.279C140.244 99.9774 140.195 98.3364 140.244 96.723Z" fill="#F8EDCD"/>
<path d="M96.9279 96.3867L95.1482 96.4828C95.0854 96.782 95.0412 97.0847 95.0156 97.3891C95.0156 98.8927 95.0156 100.403 95.0156 101.914H96.9697C96.879 100.108 96.9279 98.2954 96.9279 96.3867Z" fill="#F8EDCD"/>
<path d="M140.272 101.625H138.289C138.289 104.763 138.29 107.9 138.087 111.031C137.536 120.994 129.308 128.683 118.546 129.466C108.859 130.153 99.2629 123.198 97.6089 113.798C96.911 110.015 97.1273 106.067 96.9877 102.195C96.9877 102.106 96.9877 102.009 96.9877 101.913H95.0546C95.0197 105.14 94.9917 108.374 95.222 111.58C95.9828 122.367 103.96 130.077 115.405 131.423C120.478 131.981 125.592 130.823 129.906 128.138C134.219 125.453 137.474 121.403 139.134 116.654C140.718 111.725 140.432 106.665 140.272 101.625Z" fill="#BF9F4A"/>
<path d="M134.062 75.6178C134.013 72.8715 132.234 68.8962 129.763 67.4818C125.253 65.0485 120.147 63.8912 115.009 64.1381C108.945 64.4059 102.74 67.9006 101.261 73.8671C101.055 74.7818 100.963 75.7179 100.989 76.6546L101.386 111.059C101.608 113.162 102.315 115.187 103.455 116.979C104.594 118.771 106.136 120.283 107.961 121.399C113.076 124.688 118.617 124.784 124.152 122.917C129.477 121.118 132.645 117.163 133.685 111.746C134.083 109.686 133.908 107.496 134.097 105.381L134.062 75.6178Z" fill="url(#paint0_linear_1616_15353)"/>
<path d="M99.8 104.832H98.1321C96.4083 116.559 103.82 127.194 114.344 128.121V125.292C103.255 122.814 99.0673 115.481 99.8 104.832Z" fill="white"/>
<path d="M117.347 132.426H114.172V138.797H117.347V132.426Z" fill="#F8EDCD"/>
<path d="M120.519 132.426H117.344V138.797H120.519V132.426Z" fill="#BF9F4A"/>
<path d="M116.23 140.171V175.798C116.23 176.773 115.728 178.29 117.34 178.366V140.171H116.23Z" fill="#F8EDCD"/>
<path d="M118.61 175.894L118.575 140.191H117.375V178.386H117.487C119.148 178.379 118.61 176.828 118.61 175.894Z" fill="#BF9F4A"/>
<path d="M143.876 101.103C143.876 98.6247 143.876 98.6247 141.343 98.2951C141.238 96.9219 141.782 95.281 139.249 95.3428H139.039C136.764 95.384 137.253 96.8601 137.099 98.1509L136.806 98.3432C136.363 98.3068 135.917 98.3068 135.473 98.3432V96.558C135.473 90.111 135.473 83.664 135.473 77.2238C135.473 72.5413 133.575 68.8886 129.848 66.568C129.401 66.2825 128.935 66.0279 128.452 65.8059C128.329 65.7337 128.201 65.6695 128.068 65.6136C127.371 65.3047 126.673 65.0163 125.975 64.7691C125.514 64.5975 125.054 64.4533 124.579 64.3091C123.763 64.0581 122.934 63.8518 122.094 63.6912L120.699 63.4646C120.454 63.4646 120.203 63.4028 119.952 63.3822C119.568 63.341 119.191 63.3136 118.807 63.293H118.71H118.221C117.928 63.293 117.642 63.293 117.363 63.293H116.839C116.651 63.293 116.455 63.293 116.274 63.293C116.092 63.293 115.848 63.293 115.632 63.3342C115.213 63.3342 114.794 63.4166 114.376 63.4715C114.152 63.4715 113.922 63.5264 113.678 63.5607L112.98 63.6843C112.14 63.8394 111.31 64.0434 110.495 64.2954L110.335 64.3503C110.049 64.4327 109.776 64.522 109.497 64.6249L109.148 64.7554C108.339 65.0575 107.522 65.4008 106.706 65.7921C106.706 65.7921 106.671 65.7921 106.664 65.7921C106.199 66.0347 105.733 66.2888 105.268 66.5542H105.226L104.8 66.8289C104.646 66.9263 104.497 67.0317 104.354 67.1447L104.158 67.2889C103.984 67.4194 103.823 67.5498 103.663 67.6871C103.607 67.7251 103.556 67.7688 103.509 67.8176C103.376 67.9211 103.252 68.036 103.139 68.1609C103.016 68.2635 102.9 68.3736 102.791 68.4904C102.63 68.6445 102.479 68.8073 102.337 68.9779C102.157 69.1786 101.989 69.3895 101.834 69.6096C101.806 69.6272 101.783 69.6538 101.772 69.6851C101.605 69.8905 101.456 70.1086 101.325 70.3373C101.19 70.5363 101.066 70.7426 100.955 70.9553C100.836 71.1818 100.718 71.4084 100.62 71.6419C100.539 71.7884 100.474 71.9425 100.425 72.1019C100.345 72.279 100.275 72.46 100.215 72.6443C100.132 72.8708 100.062 73.1043 99.9989 73.3308C99.9361 73.5574 99.9221 73.6124 99.8873 73.7565C99.8524 73.9007 99.8872 73.9007 99.8454 73.9625C99.8035 74.1342 99.7616 74.3058 99.7337 74.4843C99.68 74.736 99.6404 74.9904 99.6151 75.2464C99.5696 75.5536 99.5416 75.8631 99.5313 76.1733C99.5313 76.4754 99.4964 76.7775 99.4964 77.0865V77.2856C99.5522 83.7326 99.5313 90.1728 99.5383 96.6198C99.5383 97.1416 99.5383 97.6634 99.5383 98.2745H98.1425C97.6191 95.3428 97.6191 95.432 95.6649 95.3771H95.4556C93.0688 95.3153 94.1086 97.176 93.6969 98.199C93.5922 98.2608 93.5014 98.3569 93.4177 98.3569C90.8843 98.5835 90.8843 98.5835 90.8913 101.186C90.8913 101.495 90.8913 101.81 90.8913 102.133C90.8913 105.051 90.8913 105.051 93.8155 105.449C92.985 118.886 98.4356 128.23 112.31 132.089V137.98C112.31 140.039 112.31 140.039 114.404 140.184L114.578 178.351C114.58 179.097 114.88 179.812 115.415 180.342C115.949 180.871 116.674 181.172 117.432 181.18C117.812 181.183 118.19 181.113 118.542 180.973C118.894 180.833 119.215 180.626 119.486 180.364C119.757 180.102 119.973 179.79 120.121 179.446C120.269 179.101 120.347 178.732 120.35 178.358L120.629 140.451C122.025 140.369 122.339 139.552 122.276 138.316C122.185 136.613 122.276 134.883 122.276 133.201C122.243 133.036 122.246 132.867 122.284 132.703C122.322 132.539 122.395 132.385 122.498 132.251C122.6 132.117 122.731 132.006 122.88 131.925C123.029 131.843 123.195 131.794 123.365 131.78C134.468 128.882 141.063 120.554 141.294 109.246C141.294 107.921 141.294 106.589 141.294 105.202C141.363 105.196 141.433 105.196 141.503 105.202C141.698 105.202 141.88 105.202 142.04 105.202C142.262 105.218 142.484 105.176 142.683 105.079C143.143 104.818 143.729 104.392 143.806 103.966C143.916 103.016 143.94 102.058 143.876 101.103ZM93.6759 104.275H92.0917V99.5378H93.655L93.6759 104.275ZM135.508 99.3799H136.939V103.815L135.508 103.925V99.3799ZM136.904 105.024C138.663 115.885 131.425 126.727 121.648 127.935V125.189C132.179 122.483 136.164 115.288 135.403 105.003L136.904 105.024ZM104.214 68.8543L105.268 67.7832L105.722 67.3232C105.722 67.6391 105.722 67.9137 105.722 68.1677C106.008 68.0098 106.322 67.8519 106.671 67.6871C107.02 67.5223 107.369 67.3438 107.732 67.179C108.187 66.9592 108.652 66.7622 109.127 66.5886C109.183 66.5577 109.241 66.5324 109.302 66.5131C109.686 66.3757 110.084 66.2247 110.502 66.0942L111.2 65.8608C111.71 65.7098 112.24 65.5724 112.784 65.442H112.959C113.406 65.3321 113.873 65.2497 114.355 65.1742C114.472 65.1447 114.591 65.1218 114.711 65.1056C115.248 65.0232 115.778 64.9682 116.323 64.927C116.497 64.927 116.658 64.927 116.832 64.927C117.286 64.927 117.747 64.8859 118.228 64.8859C118.745 64.8859 119.268 64.8859 119.798 64.9614C120.105 64.9614 120.413 65.0163 120.713 65.0575C121.013 65.0987 121.41 65.1399 121.725 65.2085C121.845 65.2271 121.963 65.2524 122.08 65.2841C122.464 65.3596 122.855 65.442 123.246 65.5518C123.695 65.6649 124.137 65.8001 124.572 65.9569C124.767 66.0187 124.977 66.0942 125.172 66.1698L125.954 66.465L126.777 66.8426C127.322 67.1104 127.873 67.3988 128.431 67.7283L128.78 67.9343C128.773 67.82 128.773 67.7053 128.78 67.591C129.152 67.7086 129.504 67.8774 129.827 68.0922C130.253 68.3683 130.647 68.6908 131 69.0534C132.718 70.8571 133.73 73.2028 133.854 75.6721L133.903 105.436C133.701 107.557 133.903 109.727 133.484 111.8C132.451 117.217 129.297 121.172 123.958 122.971C121.683 123.759 119.292 124.172 116.881 124.193C113.704 124.138 110.61 123.185 107.969 121.447C106.143 120.332 104.6 118.821 103.46 117.028C102.321 115.236 101.614 113.21 101.395 111.107L100.983 75.6034C101.189 73.0422 102.341 70.6438 104.221 68.8612L104.214 68.8543ZM97.9331 100.726V99.0915H99.5034V103.74H97.9052C97.9261 102.71 97.8424 101.707 97.9261 100.732L97.9331 100.726ZM98.1425 104.845H99.6011C98.9032 115.494 103.056 122.82 114.138 125.312V128.114C103.733 127.036 96.4187 116.483 98.1355 104.825L98.1425 104.845ZM117.37 178.378C115.764 178.31 116.274 176.799 116.274 175.817V140.191H118.368L118.403 175.893C118.382 176.799 118.905 178.296 117.363 178.358L117.37 178.378ZM120.322 138.824H114.18V132.425H120.322V138.824ZM138.851 116.634C137.303 121.045 134.377 124.863 130.492 127.54C126.606 130.217 121.959 131.617 117.216 131.54C116.588 131.54 115.953 131.471 115.325 131.402C103.879 130.029 95.9022 122.346 95.1415 111.553C94.8065 106.843 95.0229 102.092 94.995 97.3613C95.0142 97.0589 95.0561 96.7583 95.1206 96.4619L96.6839 96.3727C96.6839 98.3706 96.635 100.279 96.6839 102.167C96.8235 106.04 96.6141 109.988 97.298 113.771C98.8962 122.635 107.515 129.322 116.609 129.473C117.233 129.497 117.857 129.483 118.479 129.432C129.248 128.649 137.49 120.966 138.021 110.997C138.258 106.809 138.195 102.607 138.258 98.3981C138.258 97.7733 138.258 97.1416 138.258 96.3383H139.716C139.835 96.4825 139.961 96.5649 139.961 96.6404C139.835 103.362 141.063 110.111 138.851 116.634ZM142.703 104.049H141.391V99.1327H142.703V104.049Z" fill="#292728"/>
<path d="M113.976 76.813C113.976 76.6036 113.891 76.4028 113.74 76.2547C113.59 76.1066 113.386 76.0234 113.173 76.0234H100.688V77.6094H113.173C113.279 77.6095 113.384 77.5888 113.482 77.5487C113.58 77.5086 113.668 77.4498 113.743 77.3758C113.818 77.3017 113.877 77.2139 113.916 77.1173C113.956 77.0207 113.976 76.9173 113.976 76.813Z" fill="#292728"/>
<path d="M113.173 80.4649H100.688V82.044H113.173C113.279 82.0449 113.383 82.0251 113.481 81.9858C113.579 81.9464 113.668 81.8883 113.743 81.8148C113.817 81.7413 113.876 81.6539 113.916 81.5577C113.956 81.4615 113.976 81.3584 113.976 81.2544C113.976 81.1505 113.956 81.0474 113.916 80.9512C113.876 80.855 113.817 80.7676 113.743 80.6941C113.668 80.6206 113.579 80.5625 113.481 80.5231C113.383 80.4837 113.279 80.464 113.173 80.4649Z" fill="#292728"/>
<path d="M113.173 84.8926H100.688V86.4786H113.173C113.386 86.4786 113.59 86.3954 113.74 86.2473C113.891 86.0993 113.976 85.8984 113.976 85.689C113.976 85.5848 113.956 85.4814 113.916 85.3848C113.877 85.2882 113.818 85.2003 113.743 85.1263C113.668 85.0522 113.58 84.9935 113.482 84.9533C113.384 84.9132 113.279 84.8926 113.173 84.8926Z" fill="#292728"/>
<path d="M113.173 89.3281H100.688V90.9073H113.173C113.279 90.9082 113.383 90.8884 113.481 90.849C113.579 90.8097 113.668 90.7515 113.743 90.678C113.817 90.6045 113.876 90.5171 113.916 90.4209C113.956 90.3247 113.976 90.2216 113.976 90.1177C113.976 90.014 113.955 89.9113 113.914 89.8155C113.874 89.7197 113.815 89.6327 113.74 89.5594C113.666 89.4861 113.577 89.4279 113.48 89.3882C113.383 89.3485 113.278 89.3281 113.173 89.3281Z" fill="#292728"/>
<path d="M113.173 93.7578H100.688V95.3507H113.173C113.386 95.3507 113.59 95.2675 113.74 95.1194C113.891 94.9714 113.976 94.7705 113.976 94.5611C113.977 94.4563 113.958 94.3521 113.918 94.2548C113.879 94.1574 113.82 94.0687 113.745 93.9939C113.671 93.9191 113.582 93.8597 113.483 93.8192C113.385 93.7787 113.28 93.7578 113.173 93.7578Z" fill="#292728"/>
<path d="M113.173 98.1934H100.688V99.7725H113.173C113.279 99.7734 113.383 99.7536 113.481 99.7142C113.579 99.6749 113.668 99.6168 113.743 99.5433C113.817 99.4698 113.876 99.3824 113.916 99.2862C113.956 99.1899 113.976 99.0869 113.976 98.9829C113.976 98.7735 113.891 98.5727 113.74 98.4246C113.59 98.2765 113.386 98.1934 113.173 98.1934Z" fill="#292728"/>
<path d="M113.173 102.621H100.688V104.207H113.173C113.386 104.207 113.59 104.124 113.74 103.976C113.891 103.828 113.976 103.627 113.976 103.418C113.976 103.313 113.956 103.21 113.916 103.113C113.877 103.017 113.818 102.929 113.743 102.855C113.668 102.781 113.58 102.722 113.482 102.682C113.384 102.642 113.279 102.621 113.173 102.621Z" fill="#292728"/>
<path d="M121.125 76.813C121.125 76.6036 121.21 76.4028 121.36 76.2547C121.511 76.1066 121.715 76.0234 121.928 76.0234H134.413V77.6094H121.928C121.822 77.6095 121.717 77.5888 121.619 77.5487C121.521 77.5086 121.432 77.4498 121.358 77.3758C121.283 77.3017 121.224 77.2139 121.184 77.1173C121.144 77.0207 121.124 76.9173 121.125 76.813Z" fill="#292728"/>
<path d="M121.928 80.4649H134.413V82.044H121.928C121.822 82.0449 121.717 82.0251 121.619 81.9858C121.522 81.9464 121.433 81.8883 121.358 81.8148C121.283 81.7413 121.224 81.6539 121.184 81.5577C121.144 81.4615 121.124 81.3584 121.125 81.2544C121.124 81.1505 121.144 81.0474 121.184 80.9512C121.224 80.855 121.283 80.7676 121.358 80.6941C121.433 80.6206 121.522 80.5625 121.619 80.5231C121.717 80.4837 121.822 80.464 121.928 80.4649Z" fill="#292728"/>
<path d="M121.928 84.8926H134.413V86.4786H121.928C121.715 86.4786 121.511 86.3954 121.36 86.2473C121.21 86.0993 121.125 85.8984 121.125 85.689C121.124 85.5848 121.144 85.4814 121.184 85.3848C121.224 85.2882 121.283 85.2003 121.358 85.1263C121.432 85.0522 121.521 84.9935 121.619 84.9533C121.717 84.9132 121.822 84.8926 121.928 84.8926Z" fill="#292728"/>
<path d="M121.928 89.3281H134.413V90.9073H121.928C121.822 90.9082 121.717 90.8884 121.619 90.849C121.522 90.8097 121.433 90.7515 121.358 90.678C121.283 90.6045 121.224 90.5171 121.184 90.4209C121.144 90.3247 121.124 90.2216 121.125 90.1177C121.125 90.014 121.146 89.9113 121.186 89.8155C121.226 89.7197 121.286 89.6327 121.36 89.5594C121.435 89.4861 121.523 89.4279 121.62 89.3882C121.718 89.3485 121.822 89.3281 121.928 89.3281Z" fill="#292728"/>
<path d="M121.92 93.7578H134.405V95.3507H121.92C121.707 95.3507 121.503 95.2675 121.352 95.1194C121.202 94.9714 121.117 94.7705 121.117 94.5611C121.115 94.4563 121.135 94.3521 121.174 94.2548C121.214 94.1574 121.273 94.0687 121.347 93.9939C121.422 93.9191 121.511 93.8597 121.609 93.8192C121.708 93.7787 121.813 93.7578 121.92 93.7578Z" fill="#292728"/>
<path d="M121.928 98.1934H134.413V99.7725H121.928C121.822 99.7734 121.717 99.7536 121.619 99.7142C121.522 99.6749 121.433 99.6168 121.358 99.5433C121.283 99.4698 121.224 99.3824 121.184 99.2862C121.144 99.1899 121.124 99.0869 121.125 98.9829C121.125 98.7735 121.21 98.5727 121.36 98.4246C121.511 98.2765 121.715 98.1934 121.928 98.1934Z" fill="#292728"/>
<path d="M121.928 102.621H134.413V104.207H121.928C121.715 104.207 121.511 104.124 121.36 103.976C121.21 103.828 121.125 103.627 121.125 103.418C121.124 103.313 121.144 103.21 121.184 103.113C121.224 103.017 121.283 102.929 121.358 102.855C121.432 102.781 121.521 102.722 121.619 102.682C121.717 102.642 121.822 102.621 121.928 102.621Z" fill="#292728"/>
<path d="M106.654 65.8262V69.3484C106.654 69.5305 106.58 69.7051 106.449 69.8338C106.318 69.9626 106.141 70.0349 105.956 70.0349C105.771 70.0349 105.593 69.9626 105.462 69.8338C105.331 69.7051 105.258 69.5305 105.258 69.3484V66.602C105.7 66.3182 106.165 66.0596 106.654 65.8262Z" fill="#292728"/>
<path d="M110.513 64.2969V69.3364C110.513 69.5185 110.439 69.6931 110.309 69.8219C110.178 69.9507 110 70.023 109.815 70.023C109.63 70.023 109.452 69.9507 109.322 69.8219C109.191 69.6931 109.117 69.5185 109.117 69.3364V64.7569C109.599 64.5852 110.052 64.4548 110.513 64.2969Z" fill="#292728"/>
<path d="M114.38 63.4727V69.3361C114.38 69.5182 114.307 69.6928 114.176 69.8216C114.045 69.9503 113.867 70.0227 113.682 70.0227C113.497 70.0227 113.32 69.9503 113.189 69.8216C113.058 69.6928 112.984 69.5182 112.984 69.3361V63.6855C113.445 63.5867 113.911 63.5157 114.38 63.4727Z" fill="#292728"/>
<path d="M118.24 63.2932V69.3352C118.24 69.5173 118.166 69.6919 118.035 69.8207C117.904 69.9494 117.727 70.0218 117.542 70.0218C117.357 70.0218 117.179 69.9494 117.048 69.8207C116.917 69.6919 116.844 69.5173 116.844 69.3352V63.2795H117.367C117.66 63.2726 117.946 63.2726 118.24 63.2932Z" fill="#292728"/>
<path d="M122.099 63.7188V69.335C122.099 69.5171 122.025 69.6918 121.895 69.8205C121.764 69.9493 121.586 70.0216 121.401 70.0216C121.216 70.0216 121.038 69.9493 120.908 69.8205C120.777 69.6918 120.703 69.5171 120.703 69.335V63.4922L122.099 63.7188Z" fill="#292728"/>
<path d="M125.958 64.7979V69.3362C125.958 69.5183 125.885 69.693 125.754 69.8217C125.623 69.9505 125.445 70.0228 125.26 70.0228C125.075 70.0228 124.898 69.9505 124.767 69.8217C124.636 69.693 124.562 69.5183 124.562 69.3362V64.3379C125.03 64.4546 125.498 64.6263 125.958 64.7979Z" fill="#292728"/>
<path d="M129.818 66.5951V69.3415C129.818 69.5236 129.744 69.6982 129.613 69.827C129.482 69.9557 129.305 70.0281 129.12 70.0281C128.935 70.0281 128.757 69.9557 128.626 69.827C128.495 69.6982 128.422 69.5236 128.422 69.3415V65.8262C128.905 66.0504 129.371 66.3074 129.818 66.5951Z" fill="#292728"/>
<g opacity="0.3">
<path d="M129.811 105.162C129.672 106.439 129.539 107.682 129.393 108.925C128.45 116.971 125.066 121.118 118.059 122.828C117.5 122.958 116.942 123.103 116.391 123.24C119.247 123.526 122.125 122.972 124.661 121.647C130.872 118.31 132.449 113.106 131.856 105.169L129.811 105.162Z" fill="white"/>
<path d="M104.652 105.402H102.258C102.258 111.19 102.572 116.669 108.002 120.459C104.449 115.948 104.742 110.634 104.652 105.402Z" fill="white"/>
</g>
</g>
<g clip-path="url(#clip1_1616_15353)">
<path d="M125.762 280C123.585 279.876 121.432 279.467 119.356 278.781C117.295 278.11 115.16 277.71 113.002 277.589C110.841 277.709 108.703 278.109 106.639 278.781C104.559 279.462 102.404 279.865 100.225 279.982C99.2987 279.995 98.3764 279.855 97.4932 279.567C94.4873 278.561 92.3549 275.841 90.3339 273.219C89.1081 271.487 87.6687 269.926 86.0521 268.576C84.2866 267.398 82.3811 266.461 80.3829 265.786C77.3942 264.656 74.2428 263.385 72.4101 260.789C70.5775 258.194 70.4319 254.786 70.2692 251.466C70.2465 249.278 69.9588 247.101 69.4128 244.986C68.6705 243.03 67.6892 241.179 66.4926 239.478C64.7028 236.644 62.8359 233.757 62.8359 230.393C62.8359 227.03 64.7028 224.143 66.5098 221.309C67.7097 219.61 68.6912 217.759 69.43 215.8C69.976 213.688 70.2637 211.514 70.2863 209.329C70.4491 206.001 70.6203 202.558 72.4273 199.997C74.2342 197.437 77.3942 196.175 80.4257 194.983C82.424 194.308 84.3294 193.371 86.0949 192.193C87.7115 190.843 89.1509 189.282 90.3767 187.549C92.4149 184.901 94.5301 182.252 97.536 181.202C98.4065 180.923 99.3133 180.783 100.225 180.787C102.404 180.904 104.559 181.307 106.639 181.988C108.699 182.663 110.835 183.064 112.993 183.179C115.155 183.065 117.294 182.664 119.356 181.988C121.433 181.308 123.586 180.905 125.762 180.787C126.688 180.774 127.61 180.914 128.494 181.202C131.5 182.208 133.632 184.927 135.653 187.549C136.879 189.282 138.318 190.843 139.935 192.193C141.7 193.371 143.606 194.308 145.604 194.983C148.635 196.175 151.77 197.411 153.602 199.997C155.435 202.584 155.581 206.001 155.743 209.329C155.766 211.514 156.054 213.688 156.6 215.8C157.338 217.759 158.32 219.61 159.52 221.309C161.327 224.143 163.194 227.074 163.194 230.393C163.194 233.713 161.327 236.644 159.52 239.478C158.323 241.179 157.342 243.03 156.6 244.986C156.054 247.101 155.766 249.278 155.743 251.466C155.581 254.786 155.409 258.229 153.602 260.789C151.795 263.349 148.635 264.612 145.604 265.804C143.597 266.476 141.683 267.414 139.909 268.593C138.292 269.943 136.853 271.504 135.627 273.237C133.589 275.886 131.474 278.534 128.468 279.585C127.593 279.87 126.68 280.01 125.762 280Z" fill="url(#paint1_linear_1616_15353)"/>
<path d="M162.572 230.393C162.572 235.69 157.511 240.051 156.012 244.801C154.462 249.736 156.012 256.339 153.109 260.436C150.206 264.532 143.595 265.097 139.57 268.107C135.545 271.118 133.105 277.412 128.317 279.019C123.71 280.547 118.11 277.015 112.997 277.015C107.885 277.015 102.284 280.547 97.6766 279.028C92.8895 277.421 90.3975 271.083 86.4239 268.116C82.4504 265.15 75.8135 264.585 72.8847 260.444C69.956 256.304 71.5317 249.736 69.9817 244.801C68.483 240.051 63.4219 235.663 63.4219 230.393C63.4219 225.122 68.483 220.743 69.9817 215.985C71.5317 211.059 69.9817 204.455 72.8847 200.35C75.7878 196.245 82.399 195.698 86.4239 192.678C90.4489 189.659 92.8895 183.373 97.6766 181.775C102.284 180.23 107.885 183.779 112.997 183.779C118.11 183.779 123.71 180.248 128.317 181.775C133.105 183.373 135.597 189.721 139.57 192.678C143.544 195.636 150.181 196.21 153.109 200.35C156.038 204.491 154.471 211.059 156.012 215.985C157.511 220.743 162.572 225.122 162.572 230.393Z" fill="url(#paint2_linear_1616_15353)"/>
<path d="M125.757 277.016C123.833 276.89 121.932 276.52 120.097 275.912C117.792 275.163 115.403 274.726 112.989 274.614C110.575 274.726 108.185 275.163 105.881 275.912C104.046 276.52 102.144 276.89 100.22 277.016C99.5963 277.027 98.9747 276.934 98.3791 276.742C96.2039 276.009 94.4484 273.758 92.5901 271.365C91.2139 269.425 89.5957 267.679 87.7773 266.174C85.8092 264.838 83.6784 263.775 81.4402 263.014C78.6827 261.928 76.0793 260.904 74.7519 259.032C73.4246 257.161 73.3132 254.336 73.1591 251.308C73.1397 248.861 72.8115 246.428 72.1828 244.068C71.3671 241.853 70.273 239.758 68.9286 237.836C67.2844 235.258 65.7344 232.821 65.7344 230.393C65.7344 227.965 67.2844 225.529 68.9286 222.951C70.2696 221.046 71.3636 218.968 72.1828 216.771C72.811 214.409 73.1392 211.973 73.1591 209.523C73.3132 206.504 73.4503 203.643 74.7519 201.798C76.0536 199.953 78.6827 198.903 81.4402 197.826C83.6787 197.061 85.8095 195.996 87.7773 194.656C89.5957 193.151 91.2139 191.406 92.5901 189.465C94.4484 187.082 96.2039 184.822 98.3791 184.089C98.9761 183.904 99.5971 183.815 100.22 183.824C102.144 183.946 104.045 184.313 105.881 184.919C108.185 185.668 110.575 186.104 112.989 186.216C115.403 186.104 117.792 185.668 120.097 184.919C121.932 184.313 123.834 183.946 125.757 183.824C126.38 183.815 127.001 183.904 127.598 184.089C129.774 184.822 131.529 187.082 133.387 189.465C134.764 191.39 136.379 193.12 138.192 194.612C140.159 195.952 142.29 197.017 144.529 197.781C147.286 198.859 149.89 199.883 151.217 201.754C152.544 203.626 152.656 206.46 152.81 209.479C152.83 211.928 153.158 214.365 153.786 216.727C154.605 218.924 155.699 221.002 157.04 222.907C158.685 225.485 160.235 227.921 160.235 230.349C160.235 232.777 158.685 235.214 157.04 237.791C155.696 239.713 154.602 241.809 153.786 244.024C153.157 246.383 152.829 248.817 152.81 251.263C152.656 254.292 152.519 257.143 151.217 258.988C149.915 260.833 147.286 261.884 144.529 262.97C142.288 263.745 140.157 264.822 138.192 266.174C136.373 267.679 134.755 269.425 133.379 271.365C131.521 273.758 129.765 276.009 127.59 276.742C126.997 276.933 126.378 277.026 125.757 277.016Z" fill="url(#paint3_linear_1616_15353)"/>
<path d="M142.906 210.803C142.906 210.803 141.116 208.208 139.421 208.031C138.403 207.952 137.379 208.075 136.406 208.393C136.406 208.393 139.592 210.742 141.116 211.201C141.421 211.316 141.75 211.34 142.067 211.269C142.384 211.199 142.675 211.037 142.906 210.803Z" fill="url(#paint4_radial_1616_15353)"/>
<path d="M147.898 240.573C148.196 240.731 148.537 240.779 148.865 240.708C149.192 240.637 149.486 240.452 149.697 240.184C150.998 238.966 152.677 234.11 152.677 234.11C151.731 234.697 150.842 235.377 150.022 236.141C148.678 237.447 147.898 240.573 147.898 240.573Z" fill="url(#paint5_radial_1616_15353)"/>
<path d="M146.05 245.789C147.838 241.768 148.853 237.426 149.038 233.006C149.175 233.05 149.963 233.236 150.751 232.185C151.813 230.684 152.618 225.537 152.618 225.537C151.788 226.345 151.034 227.232 150.366 228.186C149.635 229.561 149.197 231.081 149.081 232.644C149.081 232.176 149.081 231.708 149.081 231.24C149.08 229.206 148.923 227.175 148.61 225.167C148.91 225.114 149.467 224.875 149.886 223.869C150.571 222.103 150.143 216.903 150.143 216.903C149.538 217.926 149.019 219.002 148.593 220.117C148.3 221.084 148.184 222.099 148.251 223.11C147.862 221.237 147.335 219.399 146.675 217.609C146.986 217.478 147.256 217.26 147.454 216.979C147.653 216.698 147.771 216.366 147.797 216.02C148.174 214.122 146.846 209.125 146.846 209.125C146.442 210.245 146.127 211.396 145.904 212.569C145.778 213.858 145.9 215.16 146.264 216.4C145.437 214.353 144.431 212.388 143.258 210.529C143.554 210.337 143.791 210.063 143.943 209.738C144.094 209.413 144.154 209.051 144.114 208.693C144.114 206.759 141.879 202.16 141.879 202.16C141.684 203.368 141.587 204.59 141.588 205.815C141.752 207.322 142.218 208.777 142.958 210.088C142.206 208.93 141.388 207.818 140.509 206.759C140.011 205.269 139.031 204.001 137.734 203.166C135.867 202.024 133.911 201.043 131.885 200.235C131.885 200.235 135.79 204.084 137.811 205.656C138.578 206.279 139.448 206.752 140.381 207.051C142.741 209.901 144.649 213.119 146.033 216.585C145.535 215.553 144.731 214.712 143.738 214.184C142.774 213.891 141.765 213.795 140.766 213.902C140.766 213.902 143.404 216.912 144.799 217.707C145.051 217.877 145.342 217.975 145.643 217.992C145.944 218.009 146.244 217.944 146.512 217.804C147.324 220.047 147.929 222.365 148.319 224.725C148.036 223.789 147.343 221.829 146.247 221.15C145.37 220.633 144.405 220.297 143.404 220.161C143.404 220.161 145.459 223.692 146.683 224.805C146.902 225.033 147.177 225.196 147.479 225.275C147.781 225.354 148.098 225.347 148.396 225.255C148.694 227.226 148.846 229.219 148.85 231.214C148.85 231.814 148.85 232.406 148.85 232.98C148.85 232.573 148.542 229.66 147.351 228.521C146.58 227.823 145.692 227.276 144.731 226.906C144.731 226.906 146.152 230.861 147.189 232.203C147.359 232.489 147.605 232.719 147.898 232.866C148.191 233.013 148.518 233.07 148.841 233.033C148.726 235.518 148.353 237.983 147.728 240.387C147.78 239.724 147.899 237.067 146.966 235.769C146.327 234.907 145.544 234.169 144.654 233.589C144.99 235.558 145.512 237.489 146.212 239.354C146.324 239.663 146.513 239.936 146.759 240.147C147.006 240.358 147.301 240.498 147.617 240.554C147.025 242.765 146.213 244.907 145.193 246.946C145.399 245.94 145.681 243.962 145.099 242.726C144.608 241.739 143.959 240.844 143.181 240.078C143.195 242.105 143.395 244.127 143.78 246.116C143.85 246.429 143.988 246.721 144.182 246.971C144.376 247.222 144.622 247.424 144.902 247.564C143.682 249.874 142.198 252.026 140.483 253.973C140.843 253.09 141.579 251.078 141.194 249.639C140.88 248.55 140.397 247.522 139.764 246.593C139.43 248.584 139.278 250.602 139.31 252.623C139.325 252.951 139.409 253.272 139.557 253.564C139.705 253.855 139.913 254.109 140.166 254.309C139.944 254.565 139.713 254.821 139.481 255.059C138.278 256.292 136.99 257.434 135.628 258.476C136.425 257.496 136.923 256.295 137.058 255.024C137.042 253.87 136.848 252.725 136.484 251.634C135.665 253.452 135.009 255.343 134.523 257.284C134.412 257.897 134.538 258.531 134.874 259.05C133.346 260.168 131.747 261.18 130.087 262.078C130.746 261.574 132.519 260.118 132.819 258.546C133 257.406 133 256.243 132.819 255.103C131.626 256.711 130.582 258.432 129.702 260.241C129.551 260.562 129.48 260.915 129.493 261.271C129.507 261.627 129.605 261.973 129.779 262.281C128.055 263.197 126.272 263.99 124.444 264.656C125.3 264.196 127.184 263.102 127.698 261.733C128.08 260.644 128.274 259.493 128.272 258.334C126.791 259.705 125.433 261.209 124.212 262.828C124.006 263.113 123.873 263.447 123.827 263.799C123.78 264.151 123.822 264.51 123.947 264.841C121.764 265.619 119.528 266.233 117.259 266.677C115.787 266.949 114.35 267.393 112.977 268.002C111.603 267.393 110.167 266.949 108.695 266.677C106.425 266.233 104.19 265.619 102.007 264.841C102.134 264.51 102.177 264.151 102.131 263.799C102.084 263.446 101.95 263.112 101.741 262.828C100.521 261.209 99.1622 259.705 97.682 258.334C97.6798 259.493 97.874 260.644 98.2558 261.733C98.7696 263.102 100.628 264.196 101.51 264.656C99.7011 263.982 97.9386 263.183 96.2348 262.263C96.4018 261.956 96.4937 261.611 96.5027 261.259C96.5116 260.907 96.4373 260.557 96.2862 260.241C95.4038 258.463 94.3631 256.772 93.1775 255.192C92.9963 256.332 92.9963 257.495 93.1775 258.635C93.4773 260.18 95.2499 261.636 95.9094 262.166C94.2496 261.268 92.6503 260.257 91.1223 259.138C91.4581 258.619 91.5841 257.985 91.4734 257.372C90.9873 255.431 90.3309 253.54 89.5123 251.722C89.1285 252.807 88.9146 253.949 88.8786 255.103C89.0355 256.349 89.5414 257.521 90.3344 258.476C88.9767 257.422 87.6946 256.268 86.4979 255.024C86.2666 254.786 86.0354 254.529 85.8128 254.273C86.0663 254.074 86.2744 253.82 86.4223 253.528C86.5703 253.237 86.6545 252.916 86.6691 252.587C86.7008 250.567 86.5489 248.548 86.2153 246.558C85.5822 247.487 85.0992 248.515 84.7851 249.603C84.3998 251.042 85.1362 253.073 85.4959 253.938C83.7811 251.99 82.2976 249.839 81.0771 247.529C81.3549 247.394 81.6004 247.197 81.7958 246.953C81.9912 246.709 82.1318 246.423 82.2075 246.116C82.588 244.136 82.7858 242.123 82.7984 240.104C82.0199 240.87 81.3715 241.765 80.8801 242.753C80.2978 243.988 80.5804 245.966 80.7859 246.972C79.7663 244.934 78.9541 242.792 78.3624 240.581C78.6897 240.539 79.0001 240.407 79.2609 240.199C79.5216 239.991 79.7231 239.714 79.8439 239.398C80.5442 237.533 81.0662 235.602 81.4025 233.633C80.5207 234.206 79.7438 234.936 79.1074 235.787C78.174 237.085 78.2939 239.742 78.3452 240.404C77.7203 238.001 77.3471 235.535 77.232 233.05C77.5555 233.088 77.8828 233.03 78.1755 232.883C78.4682 232.736 78.7143 232.506 78.8848 232.22C79.921 230.87 81.3425 226.923 81.3425 226.923C80.3812 227.294 79.4933 227.841 78.722 228.539C77.5317 229.678 77.2577 232.591 77.2234 232.997C77.2234 232.415 77.1806 231.823 77.1806 231.232C77.185 229.236 77.3367 227.244 77.6345 225.272C77.9327 225.365 78.2497 225.372 78.5515 225.293C78.8533 225.213 79.1284 225.051 79.3472 224.822C80.5718 223.727 82.6271 220.179 82.6271 220.179C81.626 220.314 80.6603 220.65 79.7839 221.167C78.6878 221.847 77.9941 223.816 77.7115 224.743C78.1015 222.382 78.7065 220.065 79.5185 217.821C79.787 217.962 80.0868 218.027 80.3875 218.01C80.6882 217.993 80.9792 217.894 81.2312 217.724C82.6271 216.93 85.2647 213.919 85.2647 213.919C84.2635 213.824 83.254 213.932 82.2931 214.237C81.2895 214.755 80.4731 215.59 79.9638 216.621C81.3472 213.155 83.2549 209.936 85.6158 207.086C86.5479 206.788 87.4188 206.315 88.1849 205.691C90.2059 204.12 94.111 200.271 94.111 200.271C92.0858 201.079 90.1294 202.059 88.262 203.202C86.965 204.036 85.9855 205.305 85.4874 206.795C84.6082 207.854 83.7904 208.965 83.0381 210.123C83.7779 208.812 84.2446 207.357 84.4083 205.85C84.4096 204.626 84.3122 203.403 84.1172 202.195C84.1172 202.195 81.8563 206.795 81.882 208.728C81.8428 209.086 81.9023 209.449 82.0538 209.773C82.2053 210.098 82.4426 210.372 82.7384 210.564C81.5657 212.423 80.5596 214.388 79.7326 216.435C80.1062 215.185 80.2343 213.87 80.1094 212.569C79.8829 211.366 79.5592 210.184 79.1417 209.037C79.1417 209.037 77.8143 214.034 78.1911 215.932C78.2168 216.278 78.3353 216.61 78.5334 216.891C78.7315 217.171 79.0014 217.39 79.3129 217.521C78.6524 219.31 78.1256 221.149 77.7372 223.021C77.8037 222.01 77.6876 220.996 77.3947 220.028C76.9686 218.913 76.45 217.838 75.8446 216.815C75.8446 216.815 75.4165 222.015 76.1016 223.78C76.4869 224.787 77.0778 225.025 77.3775 225.078C77.0649 227.087 76.9074 229.118 76.9065 231.152C76.9065 231.62 76.9065 232.088 76.9065 232.556C76.8012 231.018 76.384 229.52 75.6819 228.159C75.0135 227.206 74.2594 226.319 73.4297 225.511C73.4297 225.511 74.2347 230.658 75.2966 232.159C76.0502 233.209 76.838 233.041 77.0093 232.98C77.1802 237.406 78.1836 241.757 79.9638 245.789C79.482 244.971 78.844 244.262 78.0883 243.706C77.1569 243.15 76.1727 242.695 75.151 242.346C75.151 242.346 77.6345 246.761 79.116 247.643C79.3668 247.825 79.6658 247.922 79.9723 247.922C80.2788 247.922 80.5779 247.825 80.8287 247.643C81.8389 249.55 83.0262 251.35 84.3741 253.02C83.6979 252.344 82.889 251.827 82.0019 251.501C80.9766 251.229 79.9257 251.073 78.8676 251.033C78.8676 251.033 82.2931 254.565 83.9031 254.971C84.2044 255.083 84.5325 255.094 84.8402 255.002C85.1479 254.91 85.4195 254.72 85.6158 254.459C85.8556 254.724 86.0868 254.989 86.3266 255.245C87.2353 256.177 88.19 257.061 89.1869 257.893C88.4589 257.43 87.645 257.13 86.7976 257.01C85.7332 256.951 84.6658 257.004 83.6119 257.169C83.6119 257.169 87.4998 259.977 89.2126 260.065C89.5319 260.109 89.8569 260.054 90.1455 259.906C90.434 259.758 90.6729 259.524 90.8311 259.235C92.2822 260.304 93.8014 261.272 95.3784 262.131C94.2305 261.498 92.9544 261.154 91.6532 261.124C90.568 261.248 89.4978 261.484 88.4589 261.831C88.4589 261.831 92.8093 263.94 94.5734 263.773C94.9219 263.769 95.2603 263.652 95.5402 263.437C95.8202 263.223 96.0273 262.924 96.132 262.581C97.7228 263.421 99.3614 264.161 101.039 264.797C99.7659 264.374 98.4188 264.241 97.0911 264.408C95.9884 264.701 94.9158 265.103 93.8883 265.609C93.8883 265.609 98.7525 266.986 100.568 266.492C100.917 266.444 101.244 266.286 101.503 266.039C101.762 265.793 101.941 265.47 102.015 265.115C104.194 265.886 106.423 266.497 108.686 266.942C110.052 267.212 111.387 267.629 112.668 268.187C111.344 268.79 110.131 269.623 109.08 270.65L109.363 270.747C110.433 269.719 111.667 268.888 113.011 268.293C114.355 268.888 115.589 269.719 116.659 270.747L116.942 270.65C115.894 269.624 114.683 268.791 113.362 268.187C114.645 267.644 115.98 267.242 117.344 266.986C119.607 266.541 121.836 265.93 124.015 265.159C124.09 265.514 124.269 265.837 124.528 266.083C124.787 266.33 125.113 266.488 125.463 266.536C127.278 267.03 132.142 265.653 132.142 265.653C131.115 265.147 130.042 264.745 128.939 264.453C127.615 264.271 126.268 264.389 124.992 264.797C126.669 264.161 128.308 263.421 129.899 262.581C130.001 262.917 130.202 263.211 130.473 263.425C130.744 263.638 131.073 263.76 131.414 263.773C133.178 263.985 137.529 261.892 137.529 261.892C136.49 261.546 135.42 261.309 134.335 261.186C133.032 261.209 131.753 261.547 130.601 262.175C132.185 261.299 133.71 260.314 135.165 259.226C135.323 259.516 135.562 259.749 135.851 259.897C136.139 260.045 136.464 260.101 136.784 260.056C138.497 259.968 142.384 257.16 142.384 257.16C141.331 256.995 140.263 256.942 139.199 257.001C138.351 257.121 137.537 257.421 136.809 257.884C137.806 257.053 138.761 256.169 139.67 255.236C139.91 254.98 140.141 254.715 140.381 254.45C140.577 254.711 140.848 254.901 141.156 254.993C141.464 255.085 141.792 255.074 142.093 254.962C143.738 254.538 147.129 251.025 147.129 251.025C146.071 251.064 145.02 251.221 143.994 251.493C143.109 251.813 142.3 252.324 141.622 252.993C142.97 251.324 144.157 249.523 145.168 247.617C145.418 247.799 145.718 247.896 146.024 247.896C146.331 247.896 146.63 247.799 146.88 247.617C148.362 246.734 150.845 242.32 150.845 242.32C149.824 242.668 148.839 243.124 147.908 243.679C147.156 244.245 146.524 244.963 146.05 245.789Z" fill="url(#paint6_radial_1616_15353)"/>
<path d="M86.5635 208.04C84.8508 208.217 83.0781 210.812 83.0781 210.812C83.3094 211.046 83.6004 211.208 83.9172 211.278C84.234 211.348 84.5637 211.325 84.8679 211.21C86.3923 210.75 89.578 208.402 89.578 208.402C88.6049 208.083 87.5816 207.96 86.5635 208.04Z" fill="url(#paint7_radial_1616_15353)"/>
<path d="M78.091 240.573C78.091 240.573 77.3117 237.447 75.9672 236.158C75.1479 235.395 74.2588 234.715 73.3125 234.128C73.3125 234.128 75.0252 238.984 76.2927 240.202C76.5057 240.467 76.8007 240.648 77.1281 240.716C77.4555 240.783 77.7955 240.733 78.091 240.573Z" fill="url(#paint8_radial_1616_15353)"/>
<path d="M110.134 196.969L112.455 195.468L114.776 196.969L114.108 194.224L116.214 192.414L113.474 192.22L112.455 189.598L111.436 192.22L108.695 192.414L110.802 194.224L110.134 196.969Z" fill="url(#paint9_radial_1616_15353)"/>
<path d="M96.7084 198.382L96.991 199.838L97.7617 198.585L99.1833 198.761L98.2755 197.613L98.875 196.272L97.5391 196.819L96.4772 195.812L96.5628 197.287L95.3125 198.011L96.7084 198.382Z" fill="url(#paint10_radial_1616_15353)"/>
<path d="M102.729 197.534L104.065 195.998L105.992 196.572L104.99 194.78L106.112 193.067L104.151 193.508L102.918 191.875L102.712 193.932L100.828 194.629L102.661 195.468L102.729 197.534Z" fill="url(#paint11_radial_1616_15353)"/>
<path d="M127.055 198.585L127.826 199.838L128.108 198.382L129.496 198.011L128.245 197.287L128.331 195.812L127.278 196.819L125.942 196.272L126.541 197.613L125.625 198.761L127.055 198.585Z" fill="url(#paint12_radial_1616_15353)"/>
<path d="M118.807 196.572L120.734 195.998L122.079 197.534L122.147 195.468L123.98 194.629L122.087 193.932L121.882 191.875L120.657 193.508L118.688 193.067L119.818 194.78L118.807 196.572Z" fill="url(#paint13_radial_1616_15353)"/>
<g style="mix-blend-mode:multiply">
<path d="M142.906 211.263C142.906 211.263 141.116 208.667 139.421 208.482C138.402 208.407 137.379 208.533 136.406 208.852C136.406 208.852 139.592 211.201 141.116 211.66C141.421 211.775 141.75 211.799 142.067 211.728C142.384 211.658 142.675 211.497 142.906 211.263Z" fill="url(#paint14_linear_1616_15353)"/>
<path d="M147.898 241.014C148.195 241.173 148.535 241.222 148.863 241.153C149.19 241.084 149.485 240.901 149.697 240.634C150.998 239.416 152.677 234.552 152.677 234.552C151.729 235.14 150.84 235.823 150.022 236.591C148.678 237.898 147.898 241.014 147.898 241.014Z" fill="url(#paint15_linear_1616_15353)"/>
<path d="M146.048 246.24C147.835 242.218 148.85 237.877 149.037 233.457C149.174 233.501 149.962 233.686 150.75 232.636C151.812 231.135 152.617 225.979 152.617 225.979C151.788 226.789 151.035 227.676 150.364 228.628C149.639 229.989 149.201 231.494 149.08 233.042C149.08 232.583 149.08 232.115 149.08 231.647C149.079 229.61 148.921 227.576 148.609 225.564C148.909 225.511 149.465 225.282 149.885 224.276C150.57 222.51 150.142 217.301 150.142 217.301C149.536 218.324 149.017 219.399 148.592 220.515C148.299 221.482 148.183 222.497 148.249 223.507C147.861 221.632 147.334 219.791 146.673 217.999C146.984 217.868 147.253 217.651 147.451 217.372C147.649 217.093 147.768 216.763 147.795 216.418C148.172 214.52 146.845 209.523 146.845 209.523C146.426 210.67 146.102 211.851 145.877 213.055C145.751 214.344 145.873 215.646 146.237 216.886C145.411 214.838 144.405 212.873 143.231 211.015C143.527 210.823 143.764 210.549 143.915 210.224C144.067 209.9 144.126 209.537 144.087 209.179C144.087 207.237 141.852 202.646 141.852 202.646C141.656 203.854 141.559 205.077 141.561 206.301C141.725 207.808 142.191 209.263 142.931 210.574C142.181 209.425 141.366 208.323 140.49 207.272C139.993 205.779 139.014 204.508 137.716 203.67C135.847 202.533 133.891 201.555 131.867 200.748C131.867 200.748 135.772 204.588 137.793 206.16C138.559 206.785 139.43 207.26 140.362 207.564C142.723 210.414 144.631 213.632 146.014 217.098C145.517 216.066 144.712 215.225 143.719 214.697C142.766 214.379 141.763 214.257 140.764 214.335C140.764 214.335 143.402 217.345 144.798 218.14C145.05 218.31 145.341 218.408 145.642 218.425C145.942 218.442 146.242 218.377 146.511 218.237C147.323 220.48 147.928 222.798 148.318 225.158C148.035 224.223 147.341 222.263 146.245 221.574C145.367 221.062 144.402 220.729 143.402 220.594C143.402 220.594 145.457 224.125 146.682 225.238C146.901 225.466 147.176 225.629 147.478 225.708C147.779 225.788 148.097 225.781 148.395 225.688C148.693 227.66 148.845 229.652 148.849 231.647C148.849 232.239 148.849 232.83 148.849 233.413C148.849 233.007 148.54 230.093 147.35 228.999C146.581 228.297 145.693 227.749 144.729 227.383C144.729 227.383 146.151 231.338 147.187 232.68C147.359 232.964 147.605 233.193 147.898 233.338C148.191 233.483 148.517 233.54 148.84 233.501C148.701 235.977 148.305 238.431 147.658 240.82C147.71 240.158 147.83 237.509 146.896 236.203C146.257 235.34 145.474 234.602 144.584 234.022C144.921 235.994 145.443 237.928 146.142 239.796C146.261 240.114 146.46 240.394 146.719 240.607C146.978 240.82 147.288 240.957 147.615 241.005C147.024 243.216 146.212 245.358 145.192 247.397C145.397 246.39 145.68 244.413 145.098 243.177C144.606 242.19 143.958 241.295 143.179 240.528C143.192 242.547 143.39 244.56 143.77 246.541C143.84 246.853 143.978 247.145 144.172 247.396C144.366 247.646 144.612 247.849 144.892 247.988C143.669 250.294 142.186 252.443 140.473 254.389C140.833 253.506 141.569 251.493 141.184 250.063C140.873 248.97 140.393 247.935 139.763 247C139.429 248.99 139.277 251.009 139.309 253.029C139.322 253.359 139.406 253.682 139.554 253.975C139.702 254.268 139.91 254.524 140.165 254.724L139.48 255.475C138.28 256.716 136.991 257.864 135.626 258.909C136.427 257.932 136.925 256.729 137.056 255.457C137.039 254.306 136.845 253.165 136.483 252.076C135.664 253.894 135.008 255.785 134.522 257.726C134.408 258.339 134.534 258.974 134.873 259.492C133.349 260.617 131.749 261.629 130.086 262.52C130.745 262.025 132.518 260.56 132.817 258.988C132.998 257.845 132.998 256.68 132.817 255.537C131.632 257.121 130.592 258.814 129.709 260.595C129.559 260.916 129.487 261.269 129.5 261.625C129.514 261.98 129.612 262.327 129.786 262.635C128.059 263.546 126.277 264.343 124.451 265.018C125.307 264.559 127.191 263.464 127.705 262.087C128.087 261 128.281 259.853 128.279 258.697C126.798 260.067 125.44 261.571 124.219 263.191C124.013 263.475 123.88 263.81 123.834 264.162C123.787 264.514 123.829 264.872 123.954 265.204C121.771 265.982 119.535 266.596 117.266 267.04C112.984 267.879 110.475 269.6 109.07 271.021L109.353 271.11C110.749 269.741 113.189 268.117 117.309 267.305C119.568 266.883 121.795 266.293 123.971 265.539C124.046 265.894 124.224 266.217 124.484 266.464C124.743 266.71 125.069 266.868 125.418 266.916C127.234 267.411 132.098 266.033 132.098 266.033C131.072 265.523 129.999 265.121 128.895 264.833C127.571 264.651 126.224 264.769 124.947 265.177C126.623 264.537 128.262 263.798 129.854 262.961C129.959 263.303 130.167 263.602 130.447 263.814C130.727 264.027 131.065 264.142 131.413 264.144C133.177 264.365 137.527 262.273 137.527 262.273C136.49 261.921 135.419 261.685 134.333 261.566C133.032 261.59 131.753 261.926 130.599 262.546C132.182 261.671 133.707 260.688 135.164 259.606C135.322 259.896 135.561 260.13 135.849 260.278C136.138 260.426 136.463 260.481 136.782 260.436C138.495 260.348 142.383 257.541 142.383 257.541C141.33 257.371 140.262 257.317 139.197 257.382C138.35 257.501 137.536 257.802 136.808 258.265C137.81 257.382 138.769 256.499 139.668 255.616C139.908 255.36 140.139 255.095 140.379 254.83C140.577 255.09 140.849 255.278 141.156 255.369C141.464 255.459 141.791 255.447 142.092 255.334C143.736 254.919 147.127 251.405 147.127 251.405C146.069 251.444 145.018 251.601 143.993 251.873C143.098 252.207 142.287 252.744 141.621 253.444C142.969 251.775 144.156 249.974 145.166 248.068C145.418 248.247 145.717 248.343 146.023 248.343C146.329 248.343 146.627 248.247 146.879 248.068C148.36 247.185 150.844 242.771 150.844 242.771C149.823 243.124 148.839 243.583 147.907 244.139C147.154 244.701 146.521 245.416 146.048 246.24Z" fill="url(#paint16_linear_1616_15353)"/>
</g>
<g style="mix-blend-mode:multiply">
<path d="M142.906 211.263C142.906 211.263 141.116 208.667 139.421 208.482C138.402 208.407 137.379 208.533 136.406 208.852C136.406 208.852 139.592 211.201 141.116 211.66C141.421 211.775 141.75 211.799 142.067 211.728C142.384 211.658 142.675 211.497 142.906 211.263Z" fill="url(#paint17_linear_1616_15353)"/>
<path d="M147.898 241.014C148.195 241.173 148.535 241.222 148.863 241.153C149.19 241.084 149.485 240.901 149.697 240.634C150.998 239.416 152.677 234.552 152.677 234.552C151.729 235.14 150.84 235.823 150.022 236.591C148.678 237.898 147.898 241.014 147.898 241.014Z" fill="url(#paint18_linear_1616_15353)"/>
<path d="M146.048 246.24C147.835 242.218 148.85 237.877 149.037 233.457C149.174 233.501 149.962 233.686 150.75 232.636C151.812 231.135 152.617 225.979 152.617 225.979C151.788 226.789 151.035 227.676 150.364 228.628C149.639 229.989 149.201 231.494 149.08 233.042C149.08 232.583 149.08 232.115 149.08 231.647C149.079 229.61 148.921 227.576 148.609 225.564C148.909 225.511 149.465 225.282 149.885 224.276C150.57 222.51 150.142 217.301 150.142 217.301C149.536 218.324 149.017 219.399 148.592 220.515C148.299 221.482 148.183 222.497 148.249 223.507C147.861 221.632 147.334 219.791 146.673 217.999C146.984 217.868 147.253 217.651 147.451 217.372C147.649 217.093 147.768 216.763 147.795 216.418C148.172 214.52 146.845 209.523 146.845 209.523C146.426 210.67 146.102 211.851 145.877 213.055C145.751 214.344 145.873 215.646 146.237 216.886C145.411 214.838 144.405 212.873 143.231 211.015C143.527 210.823 143.764 210.549 143.915 210.224C144.067 209.9 144.126 209.537 144.087 209.179C144.087 207.237 141.852 202.646 141.852 202.646C141.656 203.854 141.559 205.077 141.561 206.301C141.725 207.808 142.191 209.263 142.931 210.574C142.181 209.425 141.366 208.323 140.49 207.272C139.993 205.779 139.014 204.508 137.716 203.67C135.847 202.533 133.891 201.555 131.867 200.748C131.867 200.748 135.772 204.588 137.793 206.16C138.559 206.785 139.43 207.26 140.362 207.564C142.723 210.414 144.631 213.632 146.014 217.098C145.517 216.066 144.712 215.225 143.719 214.697C142.766 214.379 141.763 214.257 140.764 214.335C140.764 214.335 143.402 217.345 144.798 218.14C145.05 218.31 145.341 218.408 145.642 218.425C145.942 218.442 146.242 218.377 146.511 218.237C147.323 220.48 147.928 222.798 148.318 225.158C148.035 224.223 147.341 222.263 146.245 221.574C145.367 221.062 144.402 220.729 143.402 220.594C143.402 220.594 145.457 224.125 146.682 225.238C146.901 225.466 147.176 225.629 147.478 225.708C147.779 225.788 148.097 225.781 148.395 225.688C148.693 227.66 148.845 229.652 148.849 231.647C148.849 232.239 148.849 232.83 148.849 233.413C148.849 233.007 148.54 230.093 147.35 228.999C146.581 228.297 145.693 227.749 144.729 227.383C144.729 227.383 146.151 231.338 147.187 232.68C147.359 232.964 147.605 233.193 147.898 233.338C148.191 233.483 148.517 233.54 148.84 233.501C148.701 235.977 148.305 238.431 147.658 240.82C147.71 240.158 147.83 237.509 146.896 236.203C146.257 235.34 145.474 234.602 144.584 234.022C144.921 235.994 145.443 237.928 146.142 239.796C146.261 240.114 146.46 240.394 146.719 240.607C146.978 240.82 147.288 240.957 147.615 241.005C147.024 243.216 146.212 245.358 145.192 247.397C145.397 246.39 145.68 244.413 145.098 243.177C144.606 242.19 143.958 241.295 143.179 240.528C143.192 242.547 143.39 244.56 143.77 246.541C143.84 246.853 143.978 247.145 144.172 247.396C144.366 247.646 144.612 247.849 144.892 247.988C143.669 250.294 142.186 252.443 140.473 254.389C140.833 253.506 141.569 251.493 141.184 250.063C140.873 248.97 140.393 247.935 139.763 247C139.429 248.99 139.277 251.009 139.309 253.029C139.322 253.359 139.406 253.682 139.554 253.975C139.702 254.268 139.91 254.524 140.165 254.724L139.48 255.475C138.28 256.716 136.991 257.864 135.626 258.909C136.427 257.932 136.925 256.729 137.056 255.457C137.039 254.306 136.845 253.165 136.483 252.076C135.664 253.894 135.008 255.785 134.522 257.726C134.408 258.339 134.534 258.974 134.873 259.492C133.349 260.617 131.749 261.629 130.086 262.52C130.745 262.025 132.518 260.56 132.817 258.988C132.998 257.845 132.998 256.68 132.817 255.537C131.632 257.121 130.592 258.814 129.709 260.595C129.559 260.916 129.487 261.269 129.5 261.625C129.514 261.98 129.612 262.327 129.786 262.635C128.059 263.546 126.277 264.343 124.451 265.018C125.307 264.559 127.191 263.464 127.705 262.087C128.087 261 128.281 259.853 128.279 258.697C126.798 260.067 125.44 261.571 124.219 263.191C124.013 263.475 123.88 263.81 123.834 264.162C123.787 264.514 123.829 264.872 123.954 265.204C121.771 265.982 119.535 266.596 117.266 267.04C112.984 267.879 110.475 269.6 109.07 271.021L109.353 271.11C110.749 269.741 113.189 268.117 117.309 267.305C119.568 266.883 121.795 266.293 123.971 265.539C124.046 265.894 124.224 266.217 124.484 266.464C124.743 266.71 125.069 266.868 125.418 266.916C127.234 267.411 132.098 266.033 132.098 266.033C131.072 265.523 129.999 265.121 128.895 264.833C127.571 264.651 126.224 264.769 124.947 265.177C126.623 264.537 128.262 263.798 129.854 262.961C129.959 263.303 130.167 263.602 130.447 263.814C130.727 264.027 131.065 264.142 131.413 264.144C133.177 264.365 137.527 262.273 137.527 262.273C136.49 261.921 135.419 261.685 134.333 261.566C133.032 261.59 131.753 261.926 130.599 262.546C132.182 261.671 133.707 260.688 135.164 259.606C135.322 259.896 135.561 260.13 135.849 260.278C136.138 260.426 136.463 260.481 136.782 260.436C138.495 260.348 142.383 257.541 142.383 257.541C141.33 257.371 140.262 257.317 139.197 257.382C138.35 257.501 137.536 257.802 136.808 258.265C137.81 257.382 138.769 256.499 139.668 255.616C139.908 255.36 140.139 255.095 140.379 254.83C140.577 255.09 140.849 255.278 141.156 255.369C141.464 255.459 141.791 255.447 142.092 255.334C143.736 254.919 147.127 251.405 147.127 251.405C146.069 251.444 145.018 251.601 143.993 251.873C143.098 252.207 142.287 252.744 141.621 253.444C142.969 251.775 144.156 249.974 145.166 248.068C145.418 248.247 145.717 248.343 146.023 248.343C146.329 248.343 146.627 248.247 146.879 248.068C148.36 247.185 150.844 242.771 150.844 242.771C149.823 243.124 148.839 243.583 147.907 244.139C147.154 244.701 146.521 245.416 146.048 246.24Z" fill="url(#paint19_linear_1616_15353)"/>
</g>
<g style="mix-blend-mode:multiply">
<path d="M82.8594 211.263C82.8594 211.263 84.6492 208.667 86.3448 208.482C87.3633 208.407 88.3862 208.533 89.3592 208.852C89.3592 208.852 86.1735 211.201 84.6492 211.66C84.345 211.775 84.0153 211.799 83.6985 211.728C83.3817 211.658 83.0907 211.497 82.8594 211.263Z" fill="url(#paint20_linear_1616_15353)"/>
<path d="M77.8622 241.014C77.5657 241.173 77.2252 241.222 76.8977 241.153C76.5702 241.084 76.2758 240.901 76.0638 240.634C74.7622 239.416 73.1094 234.552 73.1094 234.552C74.057 235.14 74.9462 235.823 75.7641 236.591C77.0829 237.898 77.8622 241.014 77.8622 241.014Z" fill="url(#paint21_linear_1616_15353)"/>
<path d="M79.7138 246.24C77.9269 242.218 76.912 237.877 76.7251 233.457C76.588 233.501 75.8002 233.686 75.0123 232.636C73.9675 231.109 73.1797 225.979 73.1797 225.979C74.0078 226.789 74.7618 227.676 75.4319 228.628C76.1572 229.989 76.5949 231.494 76.7165 233.042C76.7165 232.583 76.7165 232.115 76.7165 231.647C76.7177 229.61 76.8752 227.576 77.1875 225.564C76.8878 225.511 76.3311 225.282 75.9115 224.276C75.2264 222.51 75.6546 217.301 75.6546 217.301C76.2488 218.325 76.7559 219.4 77.1704 220.515C77.4633 221.482 77.5794 222.497 77.5129 223.507C77.9082 221.641 78.4407 219.808 79.1058 218.025C78.7954 217.894 78.5264 217.677 78.3284 217.398C78.1303 217.119 78.0111 216.789 77.9839 216.445C77.6071 214.547 78.9345 209.55 78.9345 209.55C79.3535 210.697 79.6772 211.878 79.9022 213.081C80.0281 214.37 79.9058 215.672 79.5425 216.913C80.361 214.856 81.3615 212.882 82.5312 211.015C82.2354 210.823 81.9981 210.549 81.8466 210.224C81.6951 209.9 81.6356 209.537 81.6749 209.179C81.6749 207.237 83.91 202.646 83.91 202.646C84.1056 203.854 84.203 205.077 84.2011 206.301C84.0374 207.808 83.5707 209.263 82.831 210.574C83.5813 209.425 84.3962 208.323 85.2716 207.272C85.7687 205.779 86.7482 204.508 88.0462 203.67C89.9151 202.533 91.8713 201.555 93.8952 200.748C93.8952 200.748 89.9902 204.588 87.9692 206.16C87.2027 206.785 86.3321 207.26 85.4001 207.564C83.0391 210.414 81.1315 213.632 79.748 217.098C80.2455 216.066 81.0496 215.225 82.0431 214.697C82.9958 214.379 83.9993 214.257 84.9976 214.335C84.9976 214.335 82.36 217.345 80.9641 218.14C80.7121 218.31 80.421 218.408 80.1203 218.425C79.8196 218.442 79.5199 218.377 79.2513 218.237C78.4394 220.48 77.8344 222.798 77.4444 225.158C77.727 224.223 78.4207 222.263 79.5168 221.574C80.3947 221.062 81.36 220.73 82.36 220.594C82.36 220.594 80.3047 224.125 79.0801 225.238C78.8613 225.466 78.5862 225.629 78.2844 225.708C77.9826 225.788 77.6655 225.781 77.3673 225.688C77.0692 227.66 76.9175 229.652 76.9135 231.647C76.9135 232.239 76.9135 232.83 76.9563 233.413C76.9563 233.007 77.2646 230.093 78.4549 228.999C79.2235 228.297 80.1121 227.749 81.0754 227.383C81.0754 227.383 79.6538 231.338 78.6176 232.68C78.4454 232.966 78.1975 233.195 77.9032 233.34C77.6088 233.486 77.2803 233.542 76.9563 233.501C77.0879 235.975 77.4726 238.429 78.1038 240.82C78.0524 240.158 77.9325 237.509 78.866 236.203C79.5052 235.34 80.2881 234.602 81.1782 234.022C80.8413 235.994 80.3194 237.928 79.6196 239.796C79.4964 240.11 79.2944 240.386 79.0341 240.594C78.7737 240.802 78.4645 240.934 78.1381 240.979C78.7298 243.19 79.542 245.332 80.5616 247.37C80.3561 246.364 80.0735 244.386 80.6558 243.15C81.1472 242.163 81.7956 241.268 82.574 240.502C82.5611 242.521 82.3633 244.534 81.9832 246.514C81.913 246.826 81.7758 247.119 81.5817 247.369C81.3875 247.62 81.1414 247.822 80.8613 247.962C82.0841 250.268 83.5674 252.416 85.2802 254.362C84.9205 253.48 84.184 251.467 84.5694 250.037C84.8856 248.952 85.3684 247.927 85.9995 247C86.3331 248.99 86.4851 251.009 86.4534 253.029C86.44 253.359 86.3563 253.682 86.2084 253.975C86.0604 254.268 85.8516 254.524 85.597 254.724L86.2821 255.475C87.4767 256.719 88.7591 257.869 90.1187 258.918C89.318 257.94 88.8199 256.738 88.6885 255.466C88.7257 254.311 88.9395 253.17 89.3222 252.085C90.1408 253.902 90.7944 255.793 91.2747 257.735C91.3336 258.038 91.3336 258.35 91.2749 258.653C91.2161 258.956 91.0996 259.244 90.9322 259.5C92.4562 260.626 94.0559 261.638 95.7193 262.529C95.0599 262.034 93.2872 260.569 92.9875 258.997C92.8064 257.854 92.8064 256.688 92.9875 255.545C94.1725 257.129 95.2132 258.823 96.0961 260.604C96.2441 260.925 96.3145 261.278 96.3011 261.633C96.2876 261.989 96.1909 262.335 96.019 262.643C97.7459 263.555 99.528 264.351 101.354 265.027C100.498 264.568 98.6138 263.473 98.1 262.096C97.718 261.009 97.5238 259.862 97.5262 258.706C99.0064 260.076 100.365 261.58 101.585 263.2C101.792 263.484 101.925 263.818 101.971 264.171C102.017 264.523 101.976 264.881 101.851 265.212C104.034 265.992 106.269 266.606 108.539 267.049C112.821 267.887 115.33 269.609 116.735 271.03L116.452 271.119C115.056 269.75 112.615 268.126 108.496 267.314C106.222 266.892 103.981 266.299 101.791 265.539C101.717 265.894 101.538 266.217 101.279 266.464C101.02 266.71 100.693 266.868 100.344 266.916C98.5282 267.411 93.664 266.033 93.664 266.033C94.6897 265.523 95.7627 265.121 96.8668 264.833C98.1914 264.651 99.5385 264.769 100.815 265.177C99.1386 264.537 97.5002 263.798 95.9077 262.961C95.8026 263.303 95.5952 263.602 95.3151 263.814C95.0351 264.027 94.6969 264.142 94.3491 264.144C92.585 264.365 88.2346 262.273 88.2346 262.273C89.2722 261.922 90.3429 261.685 91.4289 261.566C92.7302 261.591 94.0082 261.927 95.1627 262.546C93.5803 261.671 92.0555 260.688 90.5982 259.606C90.44 259.896 90.2011 260.13 89.9126 260.278C89.624 260.426 89.299 260.481 88.9797 260.436C87.2669 260.374 83.3876 257.594 83.3876 257.594C84.441 257.424 85.5089 257.37 86.5733 257.435C87.4207 257.554 88.2346 257.855 88.9626 258.317C87.9606 257.435 87.0015 256.552 86.1023 255.669C85.8625 255.413 85.6313 255.148 85.3915 254.883C85.194 255.143 84.922 255.331 84.6144 255.422C84.3067 255.512 83.9792 255.5 83.6788 255.386C82.0345 254.972 78.6433 251.458 78.6433 251.458C79.7014 251.497 80.7523 251.654 81.7776 251.926C82.671 252.243 83.4843 252.762 84.1583 253.444C82.8105 251.775 81.6231 249.974 80.613 248.068C80.3612 248.247 80.0625 248.343 79.7566 248.343C79.4507 248.343 79.152 248.247 78.9002 248.068C77.4187 247.185 74.9352 242.771 74.9352 242.771C75.9563 243.124 76.9404 243.583 77.8726 244.139C78.6191 244.703 79.2457 245.418 79.7138 246.24Z" fill="url(#paint22_linear_1616_15353)"/>
</g>
<g style="mix-blend-mode:multiply">
<path d="M82.8594 211.263C82.8594 211.263 84.6492 208.667 86.3448 208.482C87.3633 208.407 88.3862 208.533 89.3592 208.852C89.3592 208.852 86.1735 211.201 84.6492 211.66C84.345 211.775 84.0153 211.799 83.6985 211.728C83.3817 211.658 83.0907 211.497 82.8594 211.263Z" fill="url(#paint23_linear_1616_15353)"/>
<path d="M77.8622 241.014C77.5657 241.173 77.2252 241.222 76.8977 241.153C76.5702 241.084 76.2758 240.901 76.0638 240.634C74.7622 239.416 73.1094 234.552 73.1094 234.552C74.057 235.14 74.9462 235.823 75.7641 236.591C77.0829 237.898 77.8622 241.014 77.8622 241.014Z" fill="url(#paint24_linear_1616_15353)"/>
<path d="M79.7138 246.24C77.9269 242.218 76.912 237.877 76.7251 233.457C76.588 233.501 75.8002 233.686 75.0123 232.636C73.9675 231.109 73.1797 225.979 73.1797 225.979C74.0078 226.789 74.7618 227.676 75.4319 228.628C76.1572 229.989 76.5949 231.494 76.7165 233.042C76.7165 232.583 76.7165 232.115 76.7165 231.647C76.7177 229.61 76.8752 227.576 77.1875 225.564C76.8878 225.511 76.3311 225.282 75.9115 224.276C75.2264 222.51 75.6546 217.301 75.6546 217.301C76.2488 218.325 76.7559 219.4 77.1704 220.515C77.4633 221.482 77.5794 222.497 77.5129 223.507C77.9082 221.641 78.4407 219.808 79.1058 218.025C78.7954 217.894 78.5264 217.677 78.3284 217.398C78.1303 217.119 78.0111 216.789 77.9839 216.445C77.6071 214.547 78.9345 209.55 78.9345 209.55C79.3535 210.697 79.6772 211.878 79.9022 213.081C80.0281 214.37 79.9058 215.672 79.5425 216.913C80.361 214.856 81.3615 212.882 82.5312 211.015C82.2354 210.823 81.9981 210.549 81.8466 210.224C81.6951 209.9 81.6356 209.537 81.6749 209.179C81.6749 207.237 83.91 202.646 83.91 202.646C84.1056 203.854 84.203 205.077 84.2011 206.301C84.0374 207.808 83.5707 209.263 82.831 210.574C83.5813 209.425 84.3962 208.323 85.2716 207.272C85.7687 205.779 86.7482 204.508 88.0462 203.67C89.9151 202.533 91.8713 201.555 93.8952 200.748C93.8952 200.748 89.9902 204.588 87.9692 206.16C87.2027 206.785 86.3321 207.26 85.4001 207.564C83.0391 210.414 81.1315 213.632 79.748 217.098C80.2455 216.066 81.0496 215.225 82.0431 214.697C82.9958 214.379 83.9993 214.257 84.9976 214.335C84.9976 214.335 82.36 217.345 80.9641 218.14C80.7121 218.31 80.421 218.408 80.1203 218.425C79.8196 218.442 79.5199 218.377 79.2513 218.237C78.4394 220.48 77.8344 222.798 77.4444 225.158C77.727 224.223 78.4207 222.263 79.5168 221.574C80.3947 221.062 81.36 220.73 82.36 220.594C82.36 220.594 80.3047 224.125 79.0801 225.238C78.8613 225.466 78.5862 225.629 78.2844 225.708C77.9826 225.788 77.6655 225.781 77.3673 225.688C77.0692 227.66 76.9175 229.652 76.9135 231.647C76.9135 232.239 76.9135 232.83 76.9563 233.413C76.9563 233.007 77.2646 230.093 78.4549 228.999C79.2235 228.297 80.1121 227.749 81.0754 227.383C81.0754 227.383 79.6538 231.338 78.6176 232.68C78.4454 232.966 78.1975 233.195 77.9032 233.34C77.6088 233.486 77.2803 233.542 76.9563 233.501C77.0879 235.975 77.4726 238.429 78.1038 240.82C78.0524 240.158 77.9325 237.509 78.866 236.203C79.5052 235.34 80.2881 234.602 81.1782 234.022C80.8413 235.994 80.3194 237.928 79.6196 239.796C79.4964 240.11 79.2944 240.386 79.0341 240.594C78.7737 240.802 78.4645 240.934 78.1381 240.979C78.7298 243.19 79.542 245.332 80.5616 247.37C80.3561 246.364 80.0735 244.386 80.6558 243.15C81.1472 242.163 81.7956 241.268 82.574 240.502C82.5611 242.521 82.3633 244.534 81.9832 246.514C81.913 246.826 81.7758 247.119 81.5817 247.369C81.3875 247.62 81.1414 247.822 80.8613 247.962C82.0841 250.268 83.5674 252.416 85.2802 254.362C84.9205 253.48 84.184 251.467 84.5694 250.037C84.8856 248.952 85.3684 247.927 85.9995 247C86.3331 248.99 86.4851 251.009 86.4534 253.029C86.44 253.359 86.3563 253.682 86.2084 253.975C86.0604 254.268 85.8516 254.524 85.597 254.724L86.2821 255.475C87.4767 256.719 88.7591 257.869 90.1187 258.918C89.318 257.94 88.8199 256.738 88.6885 255.466C88.7257 254.311 88.9395 253.17 89.3222 252.085C90.1408 253.902 90.7944 255.793 91.2747 257.735C91.3336 258.038 91.3336 258.35 91.2749 258.653C91.2161 258.956 91.0996 259.244 90.9322 259.5C92.4562 260.626 94.0559 261.638 95.7193 262.529C95.0599 262.034 93.2872 260.569 92.9875 258.997C92.8064 257.854 92.8064 256.688 92.9875 255.545C94.1725 257.129 95.2132 258.823 96.0961 260.604C96.2441 260.925 96.3145 261.278 96.3011 261.633C96.2876 261.989 96.1909 262.335 96.019 262.643C97.7459 263.555 99.528 264.351 101.354 265.027C100.498 264.568 98.6138 263.473 98.1 262.096C97.718 261.009 97.5238 259.862 97.5262 258.706C99.0064 260.076 100.365 261.58 101.585 263.2C101.792 263.484 101.925 263.818 101.971 264.171C102.017 264.523 101.976 264.881 101.851 265.212C104.034 265.992 106.269 266.606 108.539 267.049C112.821 267.887 115.33 269.609 116.735 271.03L116.452 271.119C115.056 269.75 112.615 268.126 108.496 267.314C106.222 266.892 103.981 266.299 101.791 265.539C101.717 265.894 101.538 266.217 101.279 266.464C101.02 266.71 100.693 266.868 100.344 266.916C98.5282 267.411 93.664 266.033 93.664 266.033C94.6897 265.523 95.7627 265.121 96.8668 264.833C98.1914 264.651 99.5385 264.769 100.815 265.177C99.1386 264.537 97.5002 263.798 95.9077 262.961C95.8026 263.303 95.5952 263.602 95.3151 263.814C95.0351 264.027 94.6969 264.142 94.3491 264.144C92.585 264.365 88.2346 262.273 88.2346 262.273C89.2722 261.922 90.3429 261.685 91.4289 261.566C92.7302 261.591 94.0082 261.927 95.1627 262.546C93.5803 261.671 92.0555 260.688 90.5982 259.606C90.44 259.896 90.2011 260.13 89.9126 260.278C89.624 260.426 89.299 260.481 88.9797 260.436C87.2669 260.374 83.3876 257.594 83.3876 257.594C84.441 257.424 85.5089 257.37 86.5733 257.435C87.4207 257.554 88.2346 257.855 88.9626 258.317C87.9606 257.435 87.0015 256.552 86.1023 255.669C85.8625 255.413 85.6313 255.148 85.3915 254.883C85.194 255.143 84.922 255.331 84.6144 255.422C84.3067 255.512 83.9792 255.5 83.6788 255.386C82.0345 254.972 78.6433 251.458 78.6433 251.458C79.7014 251.497 80.7523 251.654 81.7776 251.926C82.671 252.243 83.4843 252.762 84.1583 253.444C82.8105 251.775 81.6231 249.974 80.613 248.068C80.3612 248.247 80.0625 248.343 79.7566 248.343C79.4507 248.343 79.152 248.247 78.9002 248.068C77.4187 247.185 74.9352 242.771 74.9352 242.771C75.9563 243.124 76.9404 243.583 77.8726 244.139C78.6191 244.703 79.2457 245.418 79.7138 246.24Z" fill="url(#paint25_linear_1616_15353)"/>
</g>
</g>
<defs>
<linearGradient id="paint0_linear_1616_15353" x1="100.989" y1="94.1213" x2="134.097" y2="94.1213" gradientUnits="userSpaceOnUse">
<stop stop-color="#F8EDCD"/>
<stop offset="1" stop-color="#BF9F4A"/>
</linearGradient>
<linearGradient id="paint1_linear_1616_15353" x1="127.201" y1="182.588" x2="89.2712" y2="302.66" gradientUnits="userSpaceOnUse">
<stop stop-color="#FFF5A8"/>
<stop offset="0.31" stop-color="#BD8100"/>
<stop offset="0.76" stop-color="#E0BE58"/>
<stop offset="1" stop-color="#F1DC83"/>
</linearGradient>
<linearGradient id="paint2_linear_1616_15353" x1="74.0408" y1="187.637" x2="154.282" y2="270.499" gradientUnits="userSpaceOnUse">
<stop stop-color="#FFF5A8"/>
<stop offset="0.31" stop-color="#BD8100"/>
<stop offset="0.76" stop-color="#E0BE58"/>
<stop offset="1" stop-color="#F1DC83"/>
</linearGradient>
<linearGradient id="paint3_linear_1616_15353" x1="131.512" y1="174.528" x2="67.0442" y2="357.485" gradientUnits="userSpaceOnUse">
<stop stop-color="#FFF5A8"/>
<stop offset="0.31" stop-color="#BD8100"/>
<stop offset="0.76" stop-color="#E0BE58"/>
<stop offset="1" stop-color="#F1DC83"/>
</linearGradient>
<radialGradient id="paint4_radial_1616_15353" cx="0" cy="0" r="1" gradientUnits="userSpaceOnUse" gradientTransform="translate(105.5 274.835) scale(83.7699 86.3586)">
<stop stop-color="#FFF5A8"/>
<stop offset="0.72" stop-color="#FFF5A8"/>
</radialGradient>
<radialGradient id="paint5_radial_1616_15353" cx="0" cy="0" r="1" gradientUnits="userSpaceOnUse" gradientTransform="translate(105.5 274.835) scale(83.77 86.3585)">
<stop stop-color="#FFF5A8"/>
<stop offset="0.72" stop-color="#FFF5A8"/>
</radialGradient>
<radialGradient id="paint6_radial_1616_15353" cx="0" cy="0" r="1" gradientUnits="userSpaceOnUse" gradientTransform="translate(105.501 274.835) scale(83.7699 86.3586)">
<stop stop-color="#FFF5A8"/>
<stop offset="0.72" stop-color="#FFF5A8"/>
</radialGradient>
<radialGradient id="paint7_radial_1616_15353" cx="0" cy="0" r="1" gradientUnits="userSpaceOnUse" gradientTransform="translate(105.498 274.835) scale(83.7699 86.3586)">
<stop stop-color="#FFF5A8"/>
<stop offset="0.72" stop-color="#FFF5A8"/>
</radialGradient>
<radialGradient id="paint8_radial_1616_15353" cx="0" cy="0" r="1" gradientUnits="userSpaceOnUse" gradientTransform="translate(105.503 274.835) scale(83.7699 86.3586)">
<stop stop-color="#FFF5A8"/>
<stop offset="0.72" stop-color="#FFF5A8"/>
</radialGradient>
<radialGradient id="paint9_radial_1616_15353" cx="0" cy="0" r="1" gradientUnits="userSpaceOnUse" gradientTransform="translate(105.501 274.835) scale(83.7699 86.3586)">
<stop stop-color="#FFF5A8"/>
<stop offset="0.72" stop-color="#FFF5A8"/>
</radialGradient>
<radialGradient id="paint10_radial_1616_15353" cx="0" cy="0" r="1" gradientUnits="userSpaceOnUse" gradientTransform="translate(105.503 274.835) scale(83.77 86.3586)">
<stop stop-color="#FFF5A8"/>
<stop offset="0.72" stop-color="#FFF5A8"/>
</radialGradient>
<radialGradient id="paint11_radial_1616_15353" cx="0" cy="0" r="1" gradientUnits="userSpaceOnUse" gradientTransform="translate(105.495 274.835) scale(83.77 86.3586)">
<stop stop-color="#FFF5A8"/>
<stop offset="0.72" stop-color="#FFF5A8"/>
</radialGradient>
<radialGradient id="paint12_radial_1616_15353" cx="0" cy="0" r="1" gradientUnits="userSpaceOnUse" gradientTransform="translate(105.5 274.835) scale(83.7699 86.3586)">
<stop stop-color="#FFF5A8"/>
<stop offset="0.72" stop-color="#FFF5A8"/>
</radialGradient>
<radialGradient id="paint13_radial_1616_15353" cx="0" cy="0" r="1" gradientUnits="userSpaceOnUse" gradientTransform="translate(105.499 274.835) scale(83.7699 86.3586)">
<stop stop-color="#FFF5A8"/>
<stop offset="0.72" stop-color="#FFF5A8"/>
</radialGradient>
<linearGradient id="paint14_linear_1616_15353" x1="101.74" y1="287.822" x2="168.894" y2="158.229" gradientUnits="userSpaceOnUse">
<stop stop-color="#C9BF85"/>
<stop offset="0.17" stop-color="#875900"/>
<stop offset="0.41" stop-color="#AA8F47"/>
<stop offset="0.59" stop-color="#C0B274"/>
<stop offset="0.67" stop-color="#C9BF85"/>
</linearGradient>
<linearGradient id="paint15_linear_1616_15353" x1="121" y1="297.807" x2="188.153" y2="168.214" gradientUnits="userSpaceOnUse">
<stop stop-color="#C9BF85"/>
<stop offset="0.17" stop-color="#875900"/>
<stop offset="0.41" stop-color="#AA8F47"/>
<stop offset="0.59" stop-color="#C0B274"/>
<stop offset="0.67" stop-color="#C9BF85"/>
</linearGradient>
<linearGradient id="paint16_linear_1616_15353" x1="107.846" y1="290.991" x2="174.999" y2="161.399" gradientUnits="userSpaceOnUse">
<stop stop-color="#C9BF85"/>
<stop offset="0.17" stop-color="#875900"/>
<stop offset="0.41" stop-color="#AA8F47"/>
<stop offset="0.59" stop-color="#C0B274"/>
<stop offset="0.67" stop-color="#C9BF85"/>
</linearGradient>
<linearGradient id="paint17_linear_1616_15353" x1="101.74" y1="287.822" x2="168.894" y2="158.229" gradientUnits="userSpaceOnUse">
<stop stop-color="#C9BF85"/>
<stop offset="0.17" stop-color="#875900"/>
<stop offset="0.41" stop-color="#AA8F47"/>
<stop offset="0.59" stop-color="#C0B274"/>
<stop offset="0.67" stop-color="#C9BF85"/>
</linearGradient>
<linearGradient id="paint18_linear_1616_15353" x1="121" y1="297.807" x2="188.153" y2="168.214" gradientUnits="userSpaceOnUse">
<stop stop-color="#C9BF85"/>
<stop offset="0.17" stop-color="#875900"/>
<stop offset="0.41" stop-color="#AA8F47"/>
<stop offset="0.59" stop-color="#C0B274"/>
<stop offset="0.67" stop-color="#C9BF85"/>
</linearGradient>
<linearGradient id="paint19_linear_1616_15353" x1="107.846" y1="290.991" x2="174.999" y2="161.399" gradientUnits="userSpaceOnUse">
<stop stop-color="#C9BF85"/>
<stop offset="0.17" stop-color="#875900"/>
<stop offset="0.41" stop-color="#AA8F47"/>
<stop offset="0.59" stop-color="#C0B274"/>
<stop offset="0.67" stop-color="#C9BF85"/>
</linearGradient>
<linearGradient id="paint20_linear_1616_15353" x1="124.034" y1="287.831" x2="56.8711" y2="158.23" gradientUnits="userSpaceOnUse">
<stop stop-color="#C9BF85"/>
<stop offset="0.17" stop-color="#875900"/>
<stop offset="0.41" stop-color="#AA8F47"/>
<stop offset="0.59" stop-color="#C0B274"/>
<stop offset="0.67" stop-color="#C9BF85"/>
</linearGradient>
<linearGradient id="paint21_linear_1616_15353" x1="104.761" y1="297.807" x2="37.6072" y2="168.214" gradientUnits="userSpaceOnUse">
<stop stop-color="#C9BF85"/>
<stop offset="0.17" stop-color="#875900"/>
<stop offset="0.41" stop-color="#AA8F47"/>
<stop offset="0.59" stop-color="#C0B274"/>
<stop offset="0.67" stop-color="#C9BF85"/>
</linearGradient>
<linearGradient id="paint22_linear_1616_15353" x1="117.916" y1="290.991" x2="50.7628" y2="161.399" gradientUnits="userSpaceOnUse">
<stop stop-color="#C9BF85"/>
<stop offset="0.17" stop-color="#875900"/>
<stop offset="0.41" stop-color="#AA8F47"/>
<stop offset="0.59" stop-color="#C0B274"/>
<stop offset="0.67" stop-color="#C9BF85"/>
</linearGradient>
<linearGradient id="paint23_linear_1616_15353" x1="124.034" y1="287.831" x2="56.8711" y2="158.23" gradientUnits="userSpaceOnUse">
<stop stop-color="#C9BF85"/>
<stop offset="0.17" stop-color="#875900"/>
<stop offset="0.41" stop-color="#AA8F47"/>
<stop offset="0.59" stop-color="#C0B274"/>
<stop offset="0.67" stop-color="#C9BF85"/>
</linearGradient>
<linearGradient id="paint24_linear_1616_15353" x1="104.761" y1="297.807" x2="37.6072" y2="168.214" gradientUnits="userSpaceOnUse">
<stop stop-color="#C9BF85"/>
<stop offset="0.17" stop-color="#875900"/>
<stop offset="0.41" stop-color="#AA8F47"/>
<stop offset="0.59" stop-color="#C0B274"/>
<stop offset="0.67" stop-color="#C9BF85"/>
</linearGradient>
<linearGradient id="paint25_linear_1616_15353" x1="117.916" y1="290.991" x2="50.7628" y2="161.399" gradientUnits="userSpaceOnUse">
<stop stop-color="#C9BF85"/>
<stop offset="0.17" stop-color="#875900"/>
<stop offset="0.41" stop-color="#AA8F47"/>
<stop offset="0.59" stop-color="#C0B274"/>
<stop offset="0.67" stop-color="#C9BF85"/>
</linearGradient>
<clipPath id="clip0_1616_15353">
<rect width="208.346" height="164.252" fill="white" transform="translate(8.82031 28.6621)"/>
</clipPath>
<clipPath id="clip1_1616_15353">
<rect width="100.315" height="99.2126" fill="white" transform="translate(62.8359 180.787)"/>
</clipPath>
</defs>
</svg>
