<svg width="307" height="307" viewBox="0 0 307 307" fill="none" xmlns="http://www.w3.org/2000/svg">
<g opacity="0.3">
<mask id="path-1-inside-1_1616_15345" fill="white">
<path d="M121.722 20.0269C90.3022 25.6033 64.519 47.7888 54.8054 77.5894L52.8866 83.5256L48.8093 84.6049C23.9255 90.9607 5.57742 110.328 0.840508 135.332C-0.658515 143.367 -0.0589057 157.337 2.03973 164.593C5.39754 175.925 11.0938 185.459 19.3684 193.494C27.643 201.529 36.3374 206.505 47.4302 209.623C52.0471 210.883 54.8054 211.242 62.7802 211.482L72.5538 211.842L72.7936 213.701C72.9735 214.72 73.3932 217.718 73.813 220.356C77.2907 244.581 93.4802 267.126 115.666 278.758C127.598 284.994 139.41 287.812 153.561 287.812C163.215 287.812 170.71 286.673 179.104 283.915C194.694 278.758 208.905 268.385 218.858 254.834C225.874 245.3 231.57 231.569 233.249 220.237C233.609 217.658 234.029 214.72 234.208 213.641L234.508 211.782L251.117 211.542L267.727 211.302L273.423 209.384C288.893 204.047 299.566 193.434 305.322 177.604C307.121 172.747 307.601 155.659 306.102 149.902C302.324 135.092 290.572 122.02 276.061 116.564C272.943 115.425 264.609 113.326 262.99 113.326C262.93 113.326 262.87 109.489 262.87 104.752C262.87 97.1367 262.69 95.6976 261.251 91.4404C257.054 78.7886 247.94 69.2549 235.528 64.6379C231.15 63.0189 229.591 62.7191 223.056 62.5392C218.918 62.3593 214.481 62.4793 213.162 62.7791L210.764 63.3187L208.785 60.0209C205.127 53.9048 200.87 48.7482 194.694 42.8121C183.002 31.5394 169.451 24.2841 153.321 20.6265C147.445 19.3074 127.898 18.9476 121.722 20.0269ZM148.704 30.3402C171.489 34.3576 192.116 49.8275 202.729 70.8738C205.067 75.4908 206.267 76.0304 211.124 74.7113C223.116 71.2935 234.988 74.2316 243.502 82.6861C247.76 87.0033 250.338 91.6203 251.957 97.8562C253.456 103.732 253.216 110.028 251.237 115.485C249.019 121.781 250.938 124.119 258.373 124.119C275.342 124.119 291.651 137.011 295.908 153.8C297.048 158.357 297.048 167.831 295.908 172.388C292.371 186.239 281.158 197.271 266.947 200.929C263.11 201.888 260.291 202.068 248.479 202.068H234.448L234.208 200.689C234.089 199.97 233.549 196.552 233.009 193.194C231.87 185.639 229.292 177.904 225.634 170.649C216.16 151.821 199.251 137.191 179.224 130.475C170.35 127.537 165.433 126.817 153.501 126.817C138.931 126.817 130.776 128.496 118.784 134.073C107.391 139.349 94.1397 150.502 87.0643 160.875C80.4087 170.529 75.252 183.6 73.753 194.333C73.3932 197.092 72.9136 200.03 72.7936 200.809L72.4938 202.248L63.6796 201.888C56.5442 201.649 53.846 201.289 49.5887 200.03C34.4186 195.533 22.3665 185.579 15.6509 172.148C11.3337 163.573 9.5948 156.258 9.5948 147.084C9.5948 133.113 14.8714 120.222 24.7649 109.908C32.9196 101.454 41.7938 96.4771 53.0065 94.1986C56.2444 93.539 59.4223 92.5197 60.022 91.98C60.6815 91.3804 61.461 89.8215 61.8208 88.5023C69.0161 61.9396 84.7858 43.7115 108.65 34.2377C121.062 29.3209 135.153 28.0017 148.704 30.3402ZM157.638 137.311C163.335 140.189 169.93 150.622 173.288 162.014L173.828 163.693H153.501H133.114L134.673 159.316C137.072 152.78 141.329 144.866 144.327 141.448C149.004 136.291 153.141 134.972 157.638 137.311ZM133.114 139.589C133.114 139.829 132.874 140.309 132.575 140.608C131.315 141.987 126.519 152.421 124.72 157.817L122.801 163.693H110.269C95.3989 163.693 95.8786 164.353 104.813 155.838C111.648 149.423 118.604 144.806 126.639 141.448C132.575 138.989 133.114 138.81 133.114 139.589ZM180.903 141.628C190.137 145.405 200.151 152.541 206.566 159.796L209.984 163.693H197.093H184.201L182.282 157.817C180.483 152.421 175.687 141.987 174.427 140.608C173.468 139.649 173.828 138.989 175.267 139.409C175.986 139.649 178.565 140.668 180.903 141.628ZM120.523 174.306C120.523 174.606 120.103 177.185 119.623 180.183C119.083 183.121 118.544 189.177 118.304 193.494L117.944 201.469H100.256H82.5673L82.987 197.931C83.5866 192.654 86.045 184.08 88.5034 178.684L90.722 173.887H105.592C113.807 173.887 120.523 174.067 120.523 174.306ZM176.526 174.906C177.306 177.364 178.745 188.457 179.104 194.693L179.464 201.469H153.501H127.538L127.898 194.993C128.257 188.997 129.757 177.304 130.476 174.906C130.776 173.947 132.395 173.887 153.501 173.887C174.607 173.887 176.226 173.947 176.526 174.906ZM218.918 179.283C221.377 184.979 223.475 192.774 224.075 198.051L224.435 201.469L206.806 201.349L189.178 201.169L188.818 194.273C188.458 187.978 187.619 180.902 186.719 175.805L186.36 173.887L201.53 174.007L216.76 174.187L218.918 179.283ZM117.764 212.621C117.944 213.161 118.124 215.5 118.124 217.898C118.124 221.915 119.563 235.527 120.343 238.465L120.642 239.844H105.532H90.4821L88.3835 235.407C85.9251 229.95 83.4667 221.196 82.987 215.679L82.5673 211.662H99.9559C115.306 211.662 117.465 211.782 117.764 212.621ZM179.104 218.378C178.745 224.674 177.306 236.366 176.526 238.764C176.226 239.784 174.607 239.844 153.441 239.844C135.753 239.844 130.596 239.664 130.416 239.064C129.697 237.205 128.198 225.033 127.898 218.678L127.538 211.662H153.501H179.464L179.104 218.378ZM224.255 213.401C224.255 218.318 221.377 228.931 218.079 236.366L216.52 239.844H201.41H186.36L186.659 238.465C187.379 235.826 188.878 222.155 188.878 218.797C188.878 216.939 189.058 214.54 189.238 213.521L189.657 211.662H206.926H224.255V213.401ZM123.82 253.695C125.259 258.911 129.097 268.085 131.256 271.623C132.275 273.302 132.815 274.621 132.515 274.621C131.315 274.621 123.641 271.443 119.923 269.404C112.248 265.267 103.374 258.012 98.8766 252.376L97.0179 250.037H109.909H122.741L123.82 253.695ZM173.348 251.656C170.11 262.689 163.754 273.002 158.118 276.42C150.443 281.157 140.969 272.462 134.673 254.954C133.834 252.555 133.114 250.457 133.114 250.277C133.114 250.157 142.288 250.037 153.441 250.037H173.828L173.348 251.656ZM209.265 250.397C209.265 250.637 207.886 252.376 206.207 254.294C200.151 261.25 189.358 268.805 179.764 272.762C177.246 273.782 174.907 274.621 174.667 274.621C174.367 274.621 175.567 271.803 177.306 268.325C179.044 264.847 181.323 259.331 182.342 256.033L184.261 250.037H196.733C203.628 250.037 209.265 250.217 209.265 250.397Z"/>
</mask>
<path d="M121.722 20.0269C90.3022 25.6033 64.519 47.7888 54.8054 77.5894L52.8866 83.5256L48.8093 84.6049C23.9255 90.9607 5.57742 110.328 0.840508 135.332C-0.658515 143.367 -0.0589057 157.337 2.03973 164.593C5.39754 175.925 11.0938 185.459 19.3684 193.494C27.643 201.529 36.3374 206.505 47.4302 209.623C52.0471 210.883 54.8054 211.242 62.7802 211.482L72.5538 211.842L72.7936 213.701C72.9735 214.72 73.3932 217.718 73.813 220.356C77.2907 244.581 93.4802 267.126 115.666 278.758C127.598 284.994 139.41 287.812 153.561 287.812C163.215 287.812 170.71 286.673 179.104 283.915C194.694 278.758 208.905 268.385 218.858 254.834C225.874 245.3 231.57 231.569 233.249 220.237C233.609 217.658 234.029 214.72 234.208 213.641L234.508 211.782L251.117 211.542L267.727 211.302L273.423 209.384C288.893 204.047 299.566 193.434 305.322 177.604C307.121 172.747 307.601 155.659 306.102 149.902C302.324 135.092 290.572 122.02 276.061 116.564C272.943 115.425 264.609 113.326 262.99 113.326C262.93 113.326 262.87 109.489 262.87 104.752C262.87 97.1367 262.69 95.6976 261.251 91.4404C257.054 78.7886 247.94 69.2549 235.528 64.6379C231.15 63.0189 229.591 62.7191 223.056 62.5392C218.918 62.3593 214.481 62.4793 213.162 62.7791L210.764 63.3187L208.785 60.0209C205.127 53.9048 200.87 48.7482 194.694 42.8121C183.002 31.5394 169.451 24.2841 153.321 20.6265C147.445 19.3074 127.898 18.9476 121.722 20.0269ZM148.704 30.3402C171.489 34.3576 192.116 49.8275 202.729 70.8738C205.067 75.4908 206.267 76.0304 211.124 74.7113C223.116 71.2935 234.988 74.2316 243.502 82.6861C247.76 87.0033 250.338 91.6203 251.957 97.8562C253.456 103.732 253.216 110.028 251.237 115.485C249.019 121.781 250.938 124.119 258.373 124.119C275.342 124.119 291.651 137.011 295.908 153.8C297.048 158.357 297.048 167.831 295.908 172.388C292.371 186.239 281.158 197.271 266.947 200.929C263.11 201.888 260.291 202.068 248.479 202.068H234.448L234.208 200.689C234.089 199.97 233.549 196.552 233.009 193.194C231.87 185.639 229.292 177.904 225.634 170.649C216.16 151.821 199.251 137.191 179.224 130.475C170.35 127.537 165.433 126.817 153.501 126.817C138.931 126.817 130.776 128.496 118.784 134.073C107.391 139.349 94.1397 150.502 87.0643 160.875C80.4087 170.529 75.252 183.6 73.753 194.333C73.3932 197.092 72.9136 200.03 72.7936 200.809L72.4938 202.248L63.6796 201.888C56.5442 201.649 53.846 201.289 49.5887 200.03C34.4186 195.533 22.3665 185.579 15.6509 172.148C11.3337 163.573 9.5948 156.258 9.5948 147.084C9.5948 133.113 14.8714 120.222 24.7649 109.908C32.9196 101.454 41.7938 96.4771 53.0065 94.1986C56.2444 93.539 59.4223 92.5197 60.022 91.98C60.6815 91.3804 61.461 89.8215 61.8208 88.5023C69.0161 61.9396 84.7858 43.7115 108.65 34.2377C121.062 29.3209 135.153 28.0017 148.704 30.3402ZM157.638 137.311C163.335 140.189 169.93 150.622 173.288 162.014L173.828 163.693H153.501H133.114L134.673 159.316C137.072 152.78 141.329 144.866 144.327 141.448C149.004 136.291 153.141 134.972 157.638 137.311ZM133.114 139.589C133.114 139.829 132.874 140.309 132.575 140.608C131.315 141.987 126.519 152.421 124.72 157.817L122.801 163.693H110.269C95.3989 163.693 95.8786 164.353 104.813 155.838C111.648 149.423 118.604 144.806 126.639 141.448C132.575 138.989 133.114 138.81 133.114 139.589ZM180.903 141.628C190.137 145.405 200.151 152.541 206.566 159.796L209.984 163.693H197.093H184.201L182.282 157.817C180.483 152.421 175.687 141.987 174.427 140.608C173.468 139.649 173.828 138.989 175.267 139.409C175.986 139.649 178.565 140.668 180.903 141.628ZM120.523 174.306C120.523 174.606 120.103 177.185 119.623 180.183C119.083 183.121 118.544 189.177 118.304 193.494L117.944 201.469H100.256H82.5673L82.987 197.931C83.5866 192.654 86.045 184.08 88.5034 178.684L90.722 173.887H105.592C113.807 173.887 120.523 174.067 120.523 174.306ZM176.526 174.906C177.306 177.364 178.745 188.457 179.104 194.693L179.464 201.469H153.501H127.538L127.898 194.993C128.257 188.997 129.757 177.304 130.476 174.906C130.776 173.947 132.395 173.887 153.501 173.887C174.607 173.887 176.226 173.947 176.526 174.906ZM218.918 179.283C221.377 184.979 223.475 192.774 224.075 198.051L224.435 201.469L206.806 201.349L189.178 201.169L188.818 194.273C188.458 187.978 187.619 180.902 186.719 175.805L186.36 173.887L201.53 174.007L216.76 174.187L218.918 179.283ZM117.764 212.621C117.944 213.161 118.124 215.5 118.124 217.898C118.124 221.915 119.563 235.527 120.343 238.465L120.642 239.844H105.532H90.4821L88.3835 235.407C85.9251 229.95 83.4667 221.196 82.987 215.679L82.5673 211.662H99.9559C115.306 211.662 117.465 211.782 117.764 212.621ZM179.104 218.378C178.745 224.674 177.306 236.366 176.526 238.764C176.226 239.784 174.607 239.844 153.441 239.844C135.753 239.844 130.596 239.664 130.416 239.064C129.697 237.205 128.198 225.033 127.898 218.678L127.538 211.662H153.501H179.464L179.104 218.378ZM224.255 213.401C224.255 218.318 221.377 228.931 218.079 236.366L216.52 239.844H201.41H186.36L186.659 238.465C187.379 235.826 188.878 222.155 188.878 218.797C188.878 216.939 189.058 214.54 189.238 213.521L189.657 211.662H206.926H224.255V213.401ZM123.82 253.695C125.259 258.911 129.097 268.085 131.256 271.623C132.275 273.302 132.815 274.621 132.515 274.621C131.315 274.621 123.641 271.443 119.923 269.404C112.248 265.267 103.374 258.012 98.8766 252.376L97.0179 250.037H109.909H122.741L123.82 253.695ZM173.348 251.656C170.11 262.689 163.754 273.002 158.118 276.42C150.443 281.157 140.969 272.462 134.673 254.954C133.834 252.555 133.114 250.457 133.114 250.277C133.114 250.157 142.288 250.037 153.441 250.037H173.828L173.348 251.656ZM209.265 250.397C209.265 250.637 207.886 252.376 206.207 254.294C200.151 261.25 189.358 268.805 179.764 272.762C177.246 273.782 174.907 274.621 174.667 274.621C174.367 274.621 175.567 271.803 177.306 268.325C179.044 264.847 181.323 259.331 182.342 256.033L184.261 250.037H196.733C203.628 250.037 209.265 250.217 209.265 250.397Z" fill="#7A8872" stroke="#E6D7C6" stroke-width="4" mask="url(#path-1-inside-1_1616_15345)"/>
</g>
</svg>
