<svg width="304" height="304" viewBox="0 0 304 304" fill="none" xmlns="http://www.w3.org/2000/svg">
<g opacity="0.3" clip-path="url(#clip0_1616_15338)">
<mask id="path-1-inside-1_1616_15338" fill="white">
<path d="M66.7969 1.12811C65.8469 1.72186 55.9906 11.2812 45.0063 22.325C31.5281 35.8625 24.7 43.1656 24.0469 44.65C23.3344 46.4312 23.1563 49.6969 23.1563 61.75V76.5937H20.6625C17.0406 76.5937 14.0125 77.6031 11.8156 79.3844C8.55 82.175 8.3125 83.4219 8.3125 98.8594C8.3125 112.041 8.37188 112.872 9.5 114C11.0438 115.544 14.25 115.544 16.0906 114.059C17.5156 112.931 17.5156 112.694 17.8125 99.6312L18.1094 86.3906L56.7625 86.2125C92.9219 86.0937 95.5344 86.1531 96.7219 87.1031C97.4344 87.6969 100.344 93.1 103.253 99.1562C107.409 107.884 108.894 110.437 110.675 111.922L112.931 113.703L178.6 114L244.328 114.297L244.506 165.478L244.625 216.719H228.653H212.622L212.444 207.041C212.266 197.659 212.206 197.244 210.663 194.928C208.466 191.603 205.675 190.416 199.084 190.119L193.563 189.881V181.687C193.563 169.456 191.425 162.509 185.013 154.019C176.225 142.262 160.194 136.266 145.469 139.175C133.297 141.55 122.253 149.803 117.088 160.312C113.644 167.319 112.813 171.119 112.397 181.153L112.041 189.822L106.638 190.119C99.5125 190.475 96.1281 192.316 94.4656 196.709C94.05 197.837 93.8125 208.287 93.8125 227.466V256.5H56.5844C36.0406 256.5 18.9406 256.262 18.5844 256.025C17.9906 255.669 17.8125 241.775 17.6938 192.494L17.5156 129.497L16.2094 128.131C14.3688 126.291 10.925 126.35 9.44063 128.191C8.3125 129.556 8.3125 131.694 8.43125 194.512C8.60938 259.291 8.60938 259.409 9.85625 261.072C10.5094 261.962 11.9938 263.328 13.0625 264.041L15.0219 265.406H54.3875H93.7531L93.9313 281.616L94.1094 297.884L95.8313 300.081C98.7406 303.941 99.0375 304 123.203 304C144.103 304 144.934 303.941 146.062 302.812C147.666 301.209 147.666 297.884 146.062 296.281C144.934 295.153 144.103 295.094 125.044 295.094C114.119 295.094 104.797 294.916 104.263 294.737C103.431 294.381 103.313 289.691 103.313 247.297C103.313 204.903 103.431 200.212 104.263 199.856C105.45 199.381 200.925 199.381 202.113 199.856C202.944 200.153 203.063 201.519 203.063 208.466V216.719H183.053C160.847 216.719 158.175 217.075 151.881 220.4C141.728 225.803 135.969 235.481 135.969 246.941C136.028 253.175 136.681 256.262 139.116 261.25C142.975 269.087 151.763 275.619 160.55 277.222C162.628 277.578 172.247 277.875 183.588 277.875H203.063V285.772C203.063 291.116 202.825 293.906 202.35 294.381C201.816 294.916 196.353 295.094 181.331 295.094H160.966L159.778 296.637C159.066 297.528 158.531 298.834 158.531 299.547C158.531 300.259 159.066 301.566 159.778 302.456L160.966 304H182.994H205.022L207.575 302.516C211.791 300.022 212.563 297.647 212.563 286.9V277.875H240.053C257.094 277.875 268.909 277.637 271.106 277.222C282.388 275.203 291.888 266.297 294.856 255.016C295.925 251.097 295.866 243.378 294.797 239.341C292.006 228.653 283.219 220.162 272.472 217.609C270.156 217.075 265.763 216.719 261.428 216.719H254.125V164.469C254.125 108.122 254.244 110.616 251.038 107.647C248.959 105.687 245.634 104.5 242.25 104.5H239.281L239.163 55.6344L238.984 6.76874L237.381 4.33435C234.294 -0.356262 241.478 0 150.1 0C71.1313 0 68.5188 0.0593567 66.7969 1.12811ZM228.831 9.26248C229.663 9.61874 229.781 14.3687 229.781 57.0594V104.5H173.138H116.494L114.059 99.3937C112.753 96.6031 111.625 94.1687 111.625 94.05C111.625 93.9312 132.228 93.7531 157.403 93.6937L203.181 93.5156L204.309 92.0906C205.853 90.1906 205.734 87.5187 203.953 85.7969L202.528 84.3125H155.028H107.528L104.381 81.1062C101.769 78.4937 100.581 77.7812 98.0281 77.2469C95.95 76.8312 84.6094 76.5937 63.8281 76.5937H32.6563V63.8875V51.1219L49.4594 50.9437C68.1625 50.7656 69.4688 50.4687 72.0219 46.55L73.3281 44.5312H137.928H202.528L203.953 43.0469C205.913 41.1469 205.913 38.4156 203.953 36.5156L202.528 35.0312H138.344H74.2188V21.9688V8.90625H151.05C193.325 8.90625 228.297 9.08435 228.831 9.26248ZM64.0063 41.0875C63.5906 41.325 57.8906 41.5625 51.3594 41.5625H39.4844L51.9531 29.0938L64.4219 16.625L64.6 28.6187C64.7188 37.7625 64.5406 40.6719 64.0063 41.0875ZM162.688 149.625C172.544 152.891 180.559 161.441 183.113 171.356C183.766 173.731 184.063 177.65 184.063 182.519V190H179.966H175.869L175.631 181.509C175.453 173.316 175.394 172.9 173.494 169.1C171.059 164.172 166.369 159.719 161.619 157.878C159.066 156.869 156.988 156.512 152.891 156.512C148.081 156.453 147.131 156.631 143.569 158.353C136.503 161.678 131.872 167.853 130.625 175.512C130.269 177.412 130.031 181.509 130.031 184.478V190H125.816H121.541L121.897 181.806C122.313 172.188 123.441 167.794 127.063 162.272C131.456 155.562 139.472 149.981 146.953 148.497C151.288 147.606 158.234 148.141 162.688 149.625ZM156.809 166.369C159.897 167.259 163.756 170.703 165.122 173.612C166.013 175.512 166.25 177.531 166.25 182.994V190H152.891H139.531V184.181C139.531 181.034 139.828 177.353 140.184 176.047C142.203 168.447 149.566 164.172 156.809 166.369ZM273.956 228.237C286.366 234.294 289.988 249.434 281.734 260.241C280.666 261.666 278.469 263.684 276.866 264.694C270.869 268.494 272.828 268.375 215.769 268.375C165.834 268.375 163.875 268.316 160.253 267.188C155.384 265.703 151.05 262.378 148.556 258.281C145.944 253.887 145.291 251.097 145.588 245.812C145.825 242.191 146.241 240.647 147.844 237.559C150.753 232.156 155.741 228.178 161.322 226.872C162.569 226.575 187.031 226.337 217.016 226.397L270.453 226.516L273.956 228.237Z"/>
</mask>
<path d="M66.7969 1.12811C65.8469 1.72186 55.9906 11.2812 45.0063 22.325C31.5281 35.8625 24.7 43.1656 24.0469 44.65C23.3344 46.4312 23.1563 49.6969 23.1563 61.75V76.5937H20.6625C17.0406 76.5937 14.0125 77.6031 11.8156 79.3844C8.55 82.175 8.3125 83.4219 8.3125 98.8594C8.3125 112.041 8.37188 112.872 9.5 114C11.0438 115.544 14.25 115.544 16.0906 114.059C17.5156 112.931 17.5156 112.694 17.8125 99.6312L18.1094 86.3906L56.7625 86.2125C92.9219 86.0937 95.5344 86.1531 96.7219 87.1031C97.4344 87.6969 100.344 93.1 103.253 99.1562C107.409 107.884 108.894 110.437 110.675 111.922L112.931 113.703L178.6 114L244.328 114.297L244.506 165.478L244.625 216.719H228.653H212.622L212.444 207.041C212.266 197.659 212.206 197.244 210.663 194.928C208.466 191.603 205.675 190.416 199.084 190.119L193.563 189.881V181.687C193.563 169.456 191.425 162.509 185.013 154.019C176.225 142.262 160.194 136.266 145.469 139.175C133.297 141.55 122.253 149.803 117.088 160.312C113.644 167.319 112.813 171.119 112.397 181.153L112.041 189.822L106.638 190.119C99.5125 190.475 96.1281 192.316 94.4656 196.709C94.05 197.837 93.8125 208.287 93.8125 227.466V256.5H56.5844C36.0406 256.5 18.9406 256.262 18.5844 256.025C17.9906 255.669 17.8125 241.775 17.6938 192.494L17.5156 129.497L16.2094 128.131C14.3688 126.291 10.925 126.35 9.44063 128.191C8.3125 129.556 8.3125 131.694 8.43125 194.512C8.60938 259.291 8.60938 259.409 9.85625 261.072C10.5094 261.962 11.9938 263.328 13.0625 264.041L15.0219 265.406H54.3875H93.7531L93.9313 281.616L94.1094 297.884L95.8313 300.081C98.7406 303.941 99.0375 304 123.203 304C144.103 304 144.934 303.941 146.062 302.812C147.666 301.209 147.666 297.884 146.062 296.281C144.934 295.153 144.103 295.094 125.044 295.094C114.119 295.094 104.797 294.916 104.263 294.737C103.431 294.381 103.313 289.691 103.313 247.297C103.313 204.903 103.431 200.212 104.263 199.856C105.45 199.381 200.925 199.381 202.113 199.856C202.944 200.153 203.063 201.519 203.063 208.466V216.719H183.053C160.847 216.719 158.175 217.075 151.881 220.4C141.728 225.803 135.969 235.481 135.969 246.941C136.028 253.175 136.681 256.262 139.116 261.25C142.975 269.087 151.763 275.619 160.55 277.222C162.628 277.578 172.247 277.875 183.588 277.875H203.063V285.772C203.063 291.116 202.825 293.906 202.35 294.381C201.816 294.916 196.353 295.094 181.331 295.094H160.966L159.778 296.637C159.066 297.528 158.531 298.834 158.531 299.547C158.531 300.259 159.066 301.566 159.778 302.456L160.966 304H182.994H205.022L207.575 302.516C211.791 300.022 212.563 297.647 212.563 286.9V277.875H240.053C257.094 277.875 268.909 277.637 271.106 277.222C282.388 275.203 291.888 266.297 294.856 255.016C295.925 251.097 295.866 243.378 294.797 239.341C292.006 228.653 283.219 220.162 272.472 217.609C270.156 217.075 265.763 216.719 261.428 216.719H254.125V164.469C254.125 108.122 254.244 110.616 251.038 107.647C248.959 105.687 245.634 104.5 242.25 104.5H239.281L239.163 55.6344L238.984 6.76874L237.381 4.33435C234.294 -0.356262 241.478 0 150.1 0C71.1313 0 68.5188 0.0593567 66.7969 1.12811ZM228.831 9.26248C229.663 9.61874 229.781 14.3687 229.781 57.0594V104.5H173.138H116.494L114.059 99.3937C112.753 96.6031 111.625 94.1687 111.625 94.05C111.625 93.9312 132.228 93.7531 157.403 93.6937L203.181 93.5156L204.309 92.0906C205.853 90.1906 205.734 87.5187 203.953 85.7969L202.528 84.3125H155.028H107.528L104.381 81.1062C101.769 78.4937 100.581 77.7812 98.0281 77.2469C95.95 76.8312 84.6094 76.5937 63.8281 76.5937H32.6563V63.8875V51.1219L49.4594 50.9437C68.1625 50.7656 69.4688 50.4687 72.0219 46.55L73.3281 44.5312H137.928H202.528L203.953 43.0469C205.913 41.1469 205.913 38.4156 203.953 36.5156L202.528 35.0312H138.344H74.2188V21.9688V8.90625H151.05C193.325 8.90625 228.297 9.08435 228.831 9.26248ZM64.0063 41.0875C63.5906 41.325 57.8906 41.5625 51.3594 41.5625H39.4844L51.9531 29.0938L64.4219 16.625L64.6 28.6187C64.7188 37.7625 64.5406 40.6719 64.0063 41.0875ZM162.688 149.625C172.544 152.891 180.559 161.441 183.113 171.356C183.766 173.731 184.063 177.65 184.063 182.519V190H179.966H175.869L175.631 181.509C175.453 173.316 175.394 172.9 173.494 169.1C171.059 164.172 166.369 159.719 161.619 157.878C159.066 156.869 156.988 156.512 152.891 156.512C148.081 156.453 147.131 156.631 143.569 158.353C136.503 161.678 131.872 167.853 130.625 175.512C130.269 177.412 130.031 181.509 130.031 184.478V190H125.816H121.541L121.897 181.806C122.313 172.188 123.441 167.794 127.063 162.272C131.456 155.562 139.472 149.981 146.953 148.497C151.288 147.606 158.234 148.141 162.688 149.625ZM156.809 166.369C159.897 167.259 163.756 170.703 165.122 173.612C166.013 175.512 166.25 177.531 166.25 182.994V190H152.891H139.531V184.181C139.531 181.034 139.828 177.353 140.184 176.047C142.203 168.447 149.566 164.172 156.809 166.369ZM273.956 228.237C286.366 234.294 289.988 249.434 281.734 260.241C280.666 261.666 278.469 263.684 276.866 264.694C270.869 268.494 272.828 268.375 215.769 268.375C165.834 268.375 163.875 268.316 160.253 267.188C155.384 265.703 151.05 262.378 148.556 258.281C145.944 253.887 145.291 251.097 145.588 245.812C145.825 242.191 146.241 240.647 147.844 237.559C150.753 232.156 155.741 228.178 161.322 226.872C162.569 226.575 187.031 226.337 217.016 226.397L270.453 226.516L273.956 228.237Z" fill="#7A8872" stroke="#ECDDCC" stroke-width="4" mask="url(#path-1-inside-1_1616_15338)"/>
<path d="M202.512 67.875L203.398 66.7217L203.402 66.7158L203.407 66.709C204.124 65.8069 204.393 65.0708 204.393 64.4219C204.393 63.7729 204.124 63.0368 203.407 62.1348L203.402 62.1279L203.398 62.1221L202.512 60.9688H59.9258L59.0391 62.1221L59.0342 62.1299L59.0273 62.1367L58.8154 62.4268C58.6089 62.7323 58.4221 63.0803 58.2773 63.4229C58.0748 63.9023 58 64.2623 58 64.4219C58 64.5814 58.0748 64.9414 58.2773 65.4209C58.4704 65.8776 58.7375 66.3448 59.0273 66.707L59.0342 66.7139L59.0391 66.7217L59.9258 67.875H202.512Z" fill="#7A8872" stroke="#E7D7C6" stroke-width="2"/>
<path d="M169.833 257.86C170.697 257.838 171.647 257.434 172.54 256.516L174.86 254.195L175.567 254.902L177.171 256.505L177.178 256.513L177.186 256.52C178.375 257.758 179.796 258.057 180.951 257.733C182.101 257.411 183.114 256.437 183.435 254.836C183.637 253.548 183.472 252.75 182.99 252.002C182.693 251.556 182.449 251.171 182.276 250.85C182.124 250.565 181.939 250.177 181.929 249.771C181.923 249.532 181.975 249.249 182.158 248.988C182.336 248.735 182.572 248.596 182.764 248.52C183.101 248.386 183.489 248.375 183.767 248.375C183.721 248.375 183.753 248.383 183.887 248.33C184.006 248.283 184.16 248.205 184.338 248.095C184.695 247.873 185.086 247.558 185.409 247.21L185.422 247.196L185.435 247.184C186.249 246.369 186.61 245.459 186.604 244.594C186.599 243.727 186.225 242.797 185.375 241.947C184.733 241.305 184.43 241.105 184.114 241.017C183.76 240.918 183.246 240.921 182.078 241.101L182.07 241.103L182.062 241.104L179.449 241.46L178.313 241.614V238.45C178.313 237.8 178.223 237.364 178.061 237.021C177.9 236.68 177.633 236.35 177.151 235.97C176.283 235.285 175.539 235.008 174.875 234.997C174.217 234.987 173.485 235.237 172.63 235.91L172.629 235.911L172.52 236.004C172.26 236.238 171.969 236.605 171.712 237.05C171.42 237.555 171.223 238.077 171.158 238.487L171.156 238.499L171.154 238.51L171.02 239.196C170.971 239.413 170.918 239.616 170.854 239.798C170.722 240.177 170.499 240.603 170.047 240.886C169.621 241.152 169.146 241.191 168.751 241.185C168.349 241.178 167.859 241.117 167.309 241.045L167.296 241.043L167.284 241.041C166.366 240.898 165.923 240.917 165.599 241.021C165.281 241.122 164.946 241.347 164.346 241.947C163.496 242.797 163.123 243.727 163.117 244.594C163.112 245.459 163.471 246.369 164.286 247.184L164.3 247.196L164.312 247.21C164.636 247.558 165.027 247.873 165.384 248.095C165.561 248.205 165.716 248.283 165.835 248.33C165.968 248.383 166 248.375 165.954 248.375C166.277 248.375 166.689 248.407 167.05 248.595C167.249 248.698 167.452 248.859 167.6 249.099C167.748 249.339 167.801 249.596 167.801 249.827C167.801 250.245 167.629 250.634 167.467 250.931C167.291 251.254 167.046 251.611 166.751 251.999L166.748 252.002L166.655 252.13C165.735 253.468 165.951 255.425 167.242 256.671L167.266 256.694C168.078 257.531 168.976 257.882 169.833 257.86Z" fill="#7A8872" stroke="#ECDDCC" stroke-width="2"/>
<path d="M210.802 257.86C211.666 257.838 212.616 257.434 213.509 256.516L215.829 254.195L216.536 254.902L218.14 256.505L218.146 256.513L218.154 256.52C219.344 257.758 220.765 258.057 221.92 257.733C223.07 257.411 224.083 256.437 224.403 254.836C224.606 253.548 224.441 252.75 223.959 252.002C223.662 251.556 223.418 251.171 223.245 250.85C223.092 250.565 222.908 250.177 222.897 249.771C222.892 249.532 222.944 249.249 223.127 248.988C223.305 248.735 223.54 248.596 223.732 248.52C224.069 248.386 224.458 248.375 224.735 248.375C224.689 248.375 224.722 248.383 224.855 248.33C224.975 248.283 225.129 248.205 225.307 248.095C225.664 247.873 226.054 247.558 226.378 247.21L226.391 247.196L226.403 247.184C227.218 246.369 227.579 245.459 227.573 244.594C227.568 243.727 227.194 242.797 226.344 241.947C225.701 241.305 225.399 241.105 225.083 241.017C224.729 240.918 224.215 240.921 223.047 241.101L223.039 241.103L223.03 241.104L220.418 241.46L219.282 241.614V238.45C219.282 237.8 219.191 237.364 219.029 237.021C218.869 236.68 218.601 236.35 218.12 235.97C217.251 235.285 216.507 235.008 215.844 234.997C215.186 234.987 214.454 235.237 213.599 235.91L213.598 235.911L213.488 236.004C213.229 236.238 212.937 236.605 212.681 237.05C212.389 237.555 212.192 238.077 212.127 238.487L212.125 238.499L212.123 238.51L211.988 239.196C211.94 239.413 211.887 239.616 211.823 239.798C211.691 240.177 211.468 240.603 211.016 240.886C210.59 241.152 210.115 241.191 209.72 241.185C209.318 241.178 208.828 241.117 208.277 241.045L208.265 241.043L208.253 241.041C207.335 240.898 206.891 240.917 206.567 241.021C206.249 241.122 205.915 241.347 205.314 241.947C204.464 242.797 204.092 243.727 204.086 244.594C204.08 245.459 204.44 246.369 205.255 247.184L205.269 247.196L205.281 247.21C205.605 247.558 205.996 247.873 206.353 248.095C206.53 248.205 206.684 248.283 206.804 248.33C206.937 248.383 206.969 248.375 206.923 248.375C207.246 248.375 207.657 248.407 208.019 248.595C208.218 248.698 208.421 248.859 208.568 249.099C208.716 249.339 208.769 249.596 208.77 249.827C208.77 250.245 208.597 250.634 208.436 250.931C208.26 251.254 208.014 251.611 207.72 251.999L207.717 252.002L207.624 252.13C206.704 253.468 206.919 255.425 208.211 256.671L208.234 256.694C209.046 257.531 209.945 257.882 210.802 257.86Z" fill="#7A8872" stroke="#ECDDCC" stroke-width="2"/>
<path d="M259.122 256.521C260.791 258.263 262.716 258.141 263.973 257.193C265.246 256.233 265.961 254.324 264.868 252.138C264.578 251.572 264.344 251.117 264.185 250.769C264.047 250.469 263.874 250.071 263.864 249.69C263.858 249.453 263.912 249.134 264.147 248.854C264.368 248.591 264.646 248.488 264.819 248.443C265.114 248.367 265.486 248.375 265.703 248.375C265.657 248.375 265.689 248.383 265.823 248.33C265.943 248.283 266.097 248.205 266.274 248.095C266.631 247.873 267.022 247.558 267.346 247.21L267.357 247.196L267.371 247.184C268.186 246.369 268.545 245.46 268.54 244.595C268.535 243.728 268.162 242.797 267.312 241.947C266.669 241.305 266.367 241.105 266.051 241.017C265.696 240.918 265.183 240.921 264.015 241.101L264.006 241.103L263.997 241.104L261.385 241.46L260.25 241.614V238.45C260.25 237.8 260.159 237.364 259.997 237.021C259.837 236.681 259.569 236.352 259.09 235.973C258.186 235.283 257.442 235.007 256.788 234.997C256.143 234.987 255.427 235.232 254.57 235.906H254.571C254.246 236.166 253.889 236.597 253.579 237.11C253.309 237.558 253.109 238.015 253.003 238.392L252.964 238.548C252.881 239.004 252.801 239.434 252.688 239.778C252.57 240.142 252.366 240.576 251.926 240.87C251.502 241.152 251.026 241.191 250.643 241.185C250.253 241.178 249.776 241.116 249.241 241.044L249.231 241.043C245.683 240.53 243.635 244.642 246.216 247.177L246.232 247.193L246.248 247.21C246.572 247.558 246.963 247.873 247.319 248.095C247.497 248.205 247.651 248.283 247.771 248.33C247.904 248.383 247.937 248.375 247.891 248.375C248.214 248.375 248.625 248.407 248.986 248.595C249.186 248.698 249.389 248.859 249.536 249.099C249.684 249.34 249.736 249.597 249.736 249.828C249.736 250.246 249.565 250.634 249.403 250.931C249.227 251.254 248.981 251.611 248.687 251.999L248.685 252.002L248.592 252.13C247.671 253.468 247.887 255.425 249.179 256.671L249.202 256.694C250.014 257.531 250.912 257.882 251.77 257.86C252.634 257.838 253.584 257.434 254.477 256.516L256.797 254.195L259.122 256.521Z" fill="#7A8872" stroke="#ECDDCC" stroke-width="2"/>
</g>
<defs>
<clipPath id="clip0_1616_15338">
<rect width="304" height="304" fill="white"/>
</clipPath>
</defs>
</svg>
