<svg width="31" height="31" viewBox="0 0 31 31" fill="none" xmlns="http://www.w3.org/2000/svg">
<path d="M2.36763 18.2131C2.36763 16.4597 2.34341 14.7062 2.37793 12.954C2.39488 12.0888 2.7624 11.3271 3.29642 10.6429C3.8583 9.92242 4.65933 9.51433 5.38468 9.01179C7.01279 7.8832 8.66027 6.78246 10.2993 5.6696C11.0513 5.15919 11.7712 4.59369 12.5595 4.14746C14.19 3.22412 15.7836 3.42997 17.3021 4.4623C18.6541 5.38201 20.0037 6.30595 21.3551 7.22626C22.6327 8.09572 23.9266 8.94156 25.1853 9.83705C26.1541 10.5261 26.7759 11.4549 26.9369 12.6694C26.9757 12.9625 26.9727 13.2501 26.9751 13.5395C26.9775 13.8247 26.6627 14.1546 26.369 14.2206C26.03 14.2969 25.6745 14.1407 25.5208 13.8422C25.4299 13.6654 25.3724 13.4814 25.3791 13.2743C25.4087 12.3304 24.9589 11.6238 24.2154 11.1085C22.5667 9.9648 20.9004 8.8465 19.2396 7.71972C18.1613 6.98831 17.1023 6.22421 15.9925 5.54367C15.057 4.97029 14.0732 5.03265 13.1577 5.64539C11.6137 6.67831 10.0813 7.72699 8.54584 8.77263C7.39242 9.55792 6.24263 10.3487 5.09164 11.1376C4.43713 11.5856 4.09564 12.2347 3.95759 12.9903C3.92853 13.1502 3.9691 13.3445 3.9697 13.5225C3.97273 16.766 3.98545 20.0089 3.9691 23.2518C3.96304 24.4797 4.92634 25.6192 6.1609 25.8081C6.36131 25.839 6.55082 25.8129 6.74396 25.8135C9.51822 25.8202 12.2931 25.8184 15.0673 25.8178C15.3519 25.8178 15.622 25.8559 15.8496 26.0515C16.1178 26.2822 16.1106 26.5922 16.047 26.8822C15.9858 27.1607 15.763 27.3363 15.4785 27.3968C15.3368 27.4271 15.1878 27.432 15.0419 27.432C12.2858 27.4338 9.52972 27.4211 6.77363 27.441C5.96351 27.4471 5.21213 27.2842 4.51281 26.8925C3.4157 26.2779 2.7515 25.3322 2.45361 24.1201C2.36642 23.7646 2.36218 23.4002 2.36218 23.0363V18.2125H2.36945L2.36763 18.2131Z" fill="#7A8872"/>
<path d="M28.6424 20.4304C28.6346 21.6873 28.1968 22.7875 27.44 23.7786C26.335 25.2263 24.8825 26.2162 23.2519 26.9664C22.8596 27.1468 22.4666 27.3539 22.0259 27.3975C21.5209 27.4478 21.0965 27.1783 20.6617 26.99C19.7075 26.5771 18.8157 26.0443 18.0098 25.3886C16.9757 24.5476 16.0844 23.5673 15.5982 22.3067C14.9594 20.6502 15.1187 19.0366 16.1401 17.5732C16.8612 16.5396 17.899 16.0147 19.1777 15.985C20.1465 15.962 21.0166 16.243 21.8031 16.7921C21.9151 16.8702 21.9665 16.8757 22.0785 16.7945C22.9407 16.1685 23.9131 15.8821 24.9703 15.9947C26.3338 16.14 27.374 16.8151 28.0358 18.0333C28.4529 18.8017 28.6388 19.5591 28.6424 20.4292V20.4304ZM16.8431 20.4715C16.8431 20.609 16.82 20.7519 16.8467 20.8839C17.018 21.7358 17.3934 22.4968 17.9668 23.1429C18.941 24.2412 20.138 25.0374 21.4828 25.6138C21.6989 25.7064 21.9211 25.8233 22.1724 25.6949C22.3062 25.6265 22.4539 25.5853 22.5908 25.5218C23.9482 24.8897 25.1755 24.0801 26.117 22.8916C26.6153 22.2631 26.9762 21.5608 27.0349 20.7543C27.0955 19.92 26.9344 19.1335 26.3949 18.4414C25.8058 17.6864 24.8982 17.4817 24.1129 17.618C23.5062 17.7233 23.014 18.0315 22.5938 18.4723C22.2239 18.8604 21.6444 18.8531 21.2739 18.465C21.1304 18.3143 20.9826 18.1677 20.8071 18.0503C19.7445 17.3395 18.3943 17.42 17.6126 18.2876C17.0622 18.8985 16.8352 19.6499 16.8424 20.4715H16.8431Z" fill="#7A8872"/>
</svg>
