<svg width="31" height="31" viewBox="0 0 31 31" fill="none" xmlns="http://www.w3.org/2000/svg">
<path d="M22.878 12.547H14.0208M24.3542 5.16602C25.1372 5.16602 25.8881 5.47707 26.4418 6.03075C26.9955 6.58443 27.3065 7.33538 27.3065 8.1184V22.8803C27.3065 23.6633 26.9955 24.4143 26.4418 24.9679C25.8881 25.5216 25.1372 25.8327 24.3542 25.8327L19.9271 25.8312L16.5407 29.2176C16.2865 29.4718 15.9483 29.6244 15.5896 29.647C15.2308 29.6696 14.8761 29.5604 14.5921 29.3401L14.4534 29.2176L11.067 25.8312L6.63988 25.8327C5.85686 25.8327 5.10591 25.5216 4.55223 24.9679C3.99855 24.4143 3.6875 23.6633 3.6875 22.8803V8.1184C3.6875 7.33538 3.99855 6.58443 4.55223 6.03075C5.10591 5.47707 5.85686 5.16602 6.63988 5.16602H24.3542Z" stroke="#7A8872" stroke-width="1.5" stroke-linecap="round" stroke-linejoin="round"/>
<path fill-rule="evenodd" clip-rule="evenodd" d="M9.5919 14.0227C10.33 14.0227 11.0681 13.2846 11.0681 12.5465C11.0681 11.8084 10.33 11.0703 9.5919 11.0703C8.85381 11.0703 8.11719 11.8084 8.11719 12.5465C8.11719 13.2846 8.85381 14.0227 9.5919 14.0227ZM9.5919 19.9275C10.33 19.9275 11.0681 19.1894 11.0681 18.4513C11.0681 17.7132 10.33 16.9751 9.5919 16.9751C8.85381 16.9751 8.11719 17.7132 8.11719 18.4513C8.11719 19.1894 8.85381 19.9275 9.5919 19.9275Z" fill="#7A8872"/>
<path d="M22.8806 18.4512H14.0234" stroke="#7A8872" stroke-width="1.5" stroke-linecap="round" stroke-linejoin="round"/>
</svg>
