<svg width="31" height="31" viewBox="0 0 31 31" fill="none" xmlns="http://www.w3.org/2000/svg">
<path d="M26.2622 22.8076C26.4043 22.3349 26.4818 21.8324 26.4818 21.3132V9.68815C26.4818 8.31787 25.9374 7.0037 24.9685 6.03477C23.9996 5.06583 22.6854 4.52148 21.3151 4.52148H9.6901C8.31982 4.52148 7.00566 5.06583 6.03672 6.03477C5.06778 7.0037 4.52344 8.31787 4.52344 9.68815V21.4036C4.54715 22.7581 5.10194 24.0492 6.06832 24.9986C7.0347 25.9481 8.33534 26.48 9.6901 26.4798H21.3151L21.4662 26.4772M26.2622 22.8076L26.1485 22.6733L22.9633 18.8293C22.7216 18.5377 22.4187 18.3028 22.0762 18.1413C21.7336 17.9797 21.3598 17.8955 20.981 17.8945C20.6023 17.8935 20.228 17.9758 19.8846 18.1356C19.5412 18.2953 19.2372 18.5286 18.994 18.8189L17.2993 20.8417L17.0229 21.1788M26.2622 22.8076C25.9489 23.8452 25.3171 24.7567 24.4564 25.4155C23.5957 26.0743 22.5497 26.4457 21.4662 26.4772M17.0229 21.1788L21.3461 26.3403L21.4662 26.4772M17.0229 21.1788L12.8547 16.202C12.6122 15.9126 12.3093 15.6799 11.9672 15.5203C11.625 15.3606 11.2521 15.2778 10.8746 15.2778C10.497 15.2778 10.1241 15.3606 9.78197 15.5203C9.43986 15.6799 9.13691 15.9126 8.89444 16.202L4.75335 21.1452L4.52473 21.4049" stroke="#7A8872" stroke-width="1.5" stroke-linecap="round" stroke-linejoin="round"/>
<path d="M19.4922 13.4453C20.5622 13.4453 21.4297 12.5779 21.4297 11.5078C21.4297 10.4378 20.5622 9.57031 19.4922 9.57031C18.4221 9.57031 17.5547 10.4378 17.5547 11.5078C17.5547 12.5779 18.4221 13.4453 19.4922 13.4453Z" fill="#7A8872"/>
</svg>
