<svg width="171" height="34" viewBox="0 0 171 34" fill="none" xmlns="http://www.w3.org/2000/svg">
<g opacity="0.5">
<path d="M89.3092 1.0083C87.2523 2.37959 85.4776 6.13047 84.913 10.2847C84.1467 15.8908 85.0743 20.9323 87.5346 24.4009L88.9462 26.3772L87.2119 27.5064C83.5014 29.9667 77.8952 31.1767 74.588 30.2894C72.0874 29.6037 69.2238 27.5064 67.5299 25.0462L65.9973 22.8683L68.0542 20.6903C71.3614 17.1814 72.2487 13.4709 70.2321 11.4946C67.3686 8.59072 63.174 12.5029 63.174 18.0688V20.5693L60.8751 22.3843C54.8656 27.1031 46.8799 29.6844 37.1599 30.128C31.9974 30.3297 28.3271 29.886 19.6154 28.0308C12.517 26.4981 8.84677 26.7805 4.36992 29.2407C2.31298 30.37 -0.671587 33.0723 0.135054 33.0723C0.417378 33.0723 0.740034 32.9109 0.86103 32.6689C1.26435 31.9833 6.02353 29.5231 7.83847 29.0391C10.944 28.2324 14.4126 28.5147 20.0994 30.007C28.8515 32.306 32.1587 32.8303 38.1682 32.7899C47.4445 32.7496 54.7446 30.7733 61.3188 26.4578L64.5856 24.3202L65.9166 26.4578C67.4089 28.8777 69.9498 31.1363 72.2084 32.064C74.4267 32.9916 78.4599 33.2739 81.4041 32.6689C83.8644 32.2253 88.8252 30.128 90.3578 28.9584C91.0435 28.4341 91.2855 28.4744 93.0601 29.6844C97.3353 32.548 103.627 33.7579 108.386 32.6689C111.613 31.943 117.542 28.9584 119.921 26.8208L122.018 25.0059L123.47 25.9738C127.705 28.8777 131.456 29.3617 142.023 28.4341C152.792 27.4661 161.262 27.7484 165.819 29.1197C167.594 29.6844 169.409 30.249 169.852 30.4104C170.498 30.6927 170.498 30.5717 169.691 29.9264C168.4 28.8777 163.359 27.1838 159.769 26.5385C156.301 25.9738 149.767 25.8932 139.402 26.3772C130.569 26.7805 128.794 26.4981 125.205 24.2396L123.309 23.0296L124.398 20.6903C125.326 18.6737 125.447 17.8268 125.487 14.5195C125.487 10.0427 125.245 8.95371 123.833 7.3001C122.664 5.92881 121.454 5.72715 119.679 6.61445C117.905 7.54209 117.017 10.083 117.017 14.1162C117.017 17.1814 117.179 17.8671 118.268 20.0854L119.518 22.6263L117.259 24.6429C113.307 28.1921 106.975 30.5717 102.82 30.0877C100.199 29.765 97.3756 28.8374 95.117 27.5468L93.4231 26.5385L95.2783 24.4815C96.327 23.3119 97.7386 21.2147 98.4242 19.7627C99.5939 17.3428 99.6745 16.8185 99.6745 12.9063C99.6745 7.58242 98.5049 3.38789 96.448 1.33096C95.2783 0.161331 94.875 0 92.9391 0C91.3258 0 90.4385 0.241993 89.3092 1.0083ZM94.4314 2.98457C95.9236 4.47686 96.8513 8.10674 96.8513 12.5029C96.8513 15.9312 96.7303 16.5765 95.6817 18.6334C95.0363 19.8837 93.786 21.7793 92.8584 22.8279L91.1645 24.7639L89.7932 22.7876C86.002 17.2621 86.002 7.58242 89.7932 3.58955C91.5678 1.73428 92.9794 1.53262 94.4314 2.98457ZM122.018 8.79239C123.148 10.8897 122.825 16.6571 121.454 19.319L120.97 20.287L120.284 19.319C118.348 16.5765 118.066 11.9786 119.639 9.35703C120.526 7.90508 121.413 7.70342 122.018 8.79239ZM67.9735 14.4792C67.7719 15.0438 66.9652 16.2538 66.1989 17.1411C64.868 18.6737 64.8276 18.7141 64.8276 17.7461C64.7873 16.3748 66.1586 13.4709 67.0459 12.9869C68.0542 12.4223 68.4575 13.1079 67.9735 14.4792Z" fill="#7A8872"/>
</g>
</svg>
