<svg width="80" height="80" viewBox="0 0 80 80" fill="none" xmlns="http://www.w3.org/2000/svg">
<path d="M26.9549 2.72618C25.6111 2.8568 25.4549 3.26496 26.408 4.19557C27.283 5.02822 27.6267 5.68128 27.8299 6.79149C28.0486 8.06496 27.7986 10.7752 27.2049 13.3058C26.0642 18.2201 25.7049 21.4037 25.9392 24.4405C26.1424 27.0201 26.4705 28.4895 27.283 30.4486C28.0486 32.3099 28.8142 33.5343 30.033 34.8078C31.2517 36.0976 32.6267 36.9466 35.158 37.9588C36.8767 38.6609 38.2517 39.4282 38.0799 39.6241C38.0486 39.6568 37.5174 39.5752 36.8924 39.4282C33.9236 38.7752 30.408 36.3099 27.4705 32.816C25.3767 30.3344 22.9861 27.8201 21.783 26.8568C20.5799 25.8935 18.5174 24.7507 16.8767 24.1466C15.9861 23.8201 15.5486 23.7711 13.4392 23.7548H11.0174L9.53299 24.5221C7.15799 25.7466 5.54862 27.7548 3.47049 32.1139C2.34549 34.465 2.28299 34.6282 2.54862 34.8895C2.79862 35.1507 2.84549 35.1507 3.54862 34.8895C3.97049 34.7425 4.65799 34.6119 5.07987 34.6119C6.57987 34.6119 8.73612 36.016 11.7674 38.9384C15.3924 42.4486 17.3299 43.967 19.7674 45.2241C22.1736 46.465 22.9861 46.7425 25.0799 47.1017C26.8924 47.4119 28.5486 47.4119 30.158 47.0854C32.2986 46.6609 33.8924 45.7629 36.533 43.4609C37.2361 42.8405 38.0642 42.2527 38.3611 42.1548L38.908 41.9915L38.6111 42.4323C38.1111 43.167 36.7986 44.3588 35.6736 45.1099C33.1111 46.8405 31.2049 47.5588 26.533 48.5711C24.6111 48.9956 22.4236 49.5507 21.658 49.8119C18.158 51.0201 15.283 53.1588 13.6111 55.7711C12.4705 57.5507 12.158 58.5303 12.0642 60.6527C12.0017 62.2854 12.033 62.5629 12.408 63.7384C12.6424 64.4405 13.0955 65.5833 13.4236 66.269C14.1892 67.869 16.408 71.5099 16.7674 71.7384C17.1736 72.016 17.5642 71.6568 17.6892 70.8894C17.8299 69.9588 18.3299 69.0282 18.9861 68.4241C19.9392 67.5588 22.4705 66.3507 25.1736 65.4854C31.6424 63.4119 34.6736 61.7629 37.5017 58.7915C39.1736 57.0119 40.2986 55.2813 40.9236 53.4364C41.7986 50.9548 41.8455 48.9629 41.1892 44.9792C41.0799 44.3425 41.033 43.4609 41.0799 43.0201L41.1736 42.2037L41.5174 43.1833C42.0955 44.816 42.2361 45.6976 42.2205 47.9997C42.2205 50.9058 41.9549 52.3262 40.5486 56.8323C38.9861 61.8609 38.8299 62.6609 38.8299 65.9588C38.8455 69.1425 39.0486 70.1548 40.1111 72.4405C40.5955 73.469 41.0799 74.2201 41.6267 74.7752C44.0174 77.2078 46.1736 77.8282 51.6892 77.6323C53.3611 77.5833 54.8142 77.4854 54.9392 77.4364C55.3455 77.2731 55.158 76.6854 54.4861 75.9997C54.1111 75.6241 53.6424 74.9711 53.4549 74.5466C53.1111 73.8119 53.0955 73.6323 53.1736 71.4609C53.2361 69.5997 53.3455 68.7343 53.7361 67.1017C54.0174 65.9752 54.4549 63.7711 54.7049 62.2037C55.1424 59.6568 55.1736 59.118 55.0955 57.1425C54.9236 52.4568 53.8767 49.0935 51.7674 46.3997C50.2517 44.4568 48.908 43.5588 45.4861 42.1711C43.6424 41.4364 42.4392 40.6527 43.1267 40.6527C44.408 40.6527 46.7674 41.6976 48.9236 43.1833C50.9236 44.5711 51.7674 45.4037 54.6424 48.7833C57.908 52.6037 59.8455 54.2527 62.533 55.4609C64.3142 56.2772 65.1267 56.4731 67.033 56.5874C69.033 56.718 69.9549 56.5384 71.658 55.6731C73.0799 54.9548 74.1892 53.8446 75.5642 51.7548C76.5955 50.1711 78.6424 45.9915 78.5642 45.5997C78.5017 45.2568 78.2361 45.2568 76.4705 45.567L75.3455 45.7629L74.2049 45.1915C72.6424 44.4078 71.158 43.2813 69.2986 41.4364C65.4236 37.6323 63.283 35.9833 60.3767 34.6119C56.7674 32.9139 53.283 32.4895 49.9705 33.3874C48.3767 33.8119 46.8142 34.7752 44.4705 36.7833C43.7986 37.3711 42.9705 37.9588 42.6267 38.0895L42.033 38.3507L42.3299 37.9099C43.5174 36.1629 46.5799 34.0731 49.658 32.9139C50.283 32.6854 52.3455 32.1629 54.2674 31.7548C59.4861 30.6282 61.9236 29.665 64.2986 27.8037C65.783 26.6446 66.6424 25.6976 67.5642 24.2119C68.408 22.8405 68.7049 21.9262 68.8924 20.1956C69.1111 18.0731 68.783 16.5384 67.5017 13.8772C66.7986 12.4078 64.408 8.53843 64.1267 8.42414C63.7049 8.26088 63.4549 8.5221 63.2986 9.3221C63.0642 10.465 62.6111 11.3139 61.9236 11.9017C60.908 12.7833 58.7674 13.8119 56.3299 14.6119C52.783 15.7711 49.7205 16.9466 48.5955 17.5833C45.7986 19.167 43.5799 21.0446 42.033 23.1833C40.8924 24.7507 40.4392 25.5833 39.908 27.1017C39.3142 28.816 39.2205 31.5588 39.658 34.4486C39.8611 35.7874 39.9392 36.7507 39.8611 37.2241L39.7517 37.9588L39.2986 36.5711C38.9236 35.3792 38.8455 34.8568 38.783 32.865C38.6892 29.6976 38.9705 28.0486 40.3455 23.7548C42.0955 18.269 42.4861 15.9833 42.1892 12.9303C41.9549 10.5303 41.6892 9.53435 40.7674 7.65679C39.8924 5.89353 39.0486 4.93027 37.4236 3.91802C35.8767 2.95476 34.7517 2.74251 31.0174 2.69353C29.2205 2.6772 27.3924 2.6772 26.9549 2.72618ZM33.0486 3.75475C34.9705 3.98332 36.0017 4.32618 37.1111 5.06087C38.3924 5.94251 39.0799 6.72618 39.8299 8.17924C40.7986 10.0405 41.1267 11.5588 41.1424 14.2037C41.1736 17.0446 40.9236 18.3344 39.4549 22.9711C37.9236 27.8037 37.7517 28.7507 37.7517 32.3262C37.7674 34.7425 37.8142 35.3629 38.0955 36.3262C38.408 37.4201 38.408 37.4527 38.1111 37.0609C37.9392 36.8323 37.5174 36.0323 37.1424 35.2813C36.4861 33.9099 36.4861 33.8772 36.4236 31.8854C36.3924 30.6282 36.4705 28.9956 36.6424 27.5425C36.9705 24.6854 37.0174 21.3711 36.7361 19.7548C36.4392 18.0731 35.7049 15.9997 35.0017 14.8895C34.5174 14.1384 34.1424 13.7956 33.1424 13.1752C31.2361 11.9833 30.5799 12.2935 31.6267 13.8772C31.9392 14.3507 32.2674 15.0364 32.3611 15.3956C32.5799 16.2282 32.4392 20.3262 32.1111 22.9384C31.783 25.5833 31.8142 28.3915 32.1892 29.9752C32.5642 31.5752 33.783 34.1548 34.908 35.8037L35.7517 37.0446L34.5017 36.4895C31.2674 35.0527 29.4705 33.1262 28.1267 29.5997C27.3299 27.5262 27.0486 25.9915 26.9236 23.265C26.8455 21.4364 26.8924 20.7833 27.2517 18.6119C27.4705 17.2241 27.8455 15.3139 28.0642 14.367C28.7049 11.5915 28.908 10.1548 28.908 8.24455C28.908 6.18741 28.783 5.59966 28.1424 4.53843L27.6736 3.77108L28.7205 3.70577C30.9392 3.59149 31.6892 3.60782 33.0486 3.75475ZM65.3455 12.2282C67.0174 15.069 67.9705 17.567 67.9705 19.0854C67.9549 21.9752 66.408 24.7507 63.5642 26.9548C61.283 28.718 59.1892 29.5343 54.1736 30.6282C52.2674 31.0364 50.2049 31.5425 49.5955 31.7548C46.8924 32.7017 44.2517 34.269 42.6111 35.8854L41.6736 36.816L42.0799 35.9833C42.533 35.0364 43.4236 33.7792 44.033 33.2078C44.7674 32.5221 46.4236 31.5588 48.4705 30.6282C52.9236 28.6037 54.5799 27.5752 56.4236 25.6486C58.4705 23.5099 59.2205 21.9915 59.2205 20.016C59.2205 18.416 59.0955 17.9588 58.658 17.9588C58.3611 17.9588 58.2049 18.1384 57.8455 18.9874C57.5955 19.5425 57.1736 20.2119 56.8924 20.4568C55.9705 21.2568 54.1892 22.2527 50.9236 23.7711C47.3611 25.4201 45.8142 26.367 44.5955 27.6731C43.5486 28.816 42.2205 30.9058 41.3455 32.7997L40.658 34.318L40.4705 32.6527C40.3611 31.7384 40.3142 30.5303 40.3767 29.9588C40.4861 28.8813 41.0017 27.118 41.533 26.0241C42.0174 25.0282 43.6111 22.8895 44.5486 21.9425C45.5642 20.9303 47.9705 19.1833 49.3455 18.465C50.6424 17.7792 53.5174 16.6854 56.2049 15.8364C58.8299 15.0201 60.3924 14.318 61.8455 13.3384C62.9392 12.6037 63.8299 11.5588 64.0017 10.8241C64.0642 10.6119 64.1424 10.4486 64.2049 10.4486C64.2517 10.4486 64.7674 11.2486 65.3455 12.2282ZM33.7674 15.0527C34.283 15.6078 35.1111 17.5507 35.4705 19.0201C35.9861 21.0935 36.033 23.265 35.6267 27.1017C35.2361 30.8078 35.2517 33.3711 35.6736 34.6119C35.8924 35.2486 35.8924 35.2976 35.6892 35.0201C35.0174 34.0731 33.8767 31.7384 33.4549 30.4486C32.783 28.3099 32.7205 27.1017 33.1267 23.265C33.4861 19.9507 33.6111 16.1956 33.408 15.216C33.2674 14.5956 33.3142 14.5792 33.7674 15.0527ZM57.6892 22.0731C57.4236 22.6446 56.7517 23.6241 56.1892 24.2609C54.408 26.2854 52.4861 27.5915 48.8455 29.2078C45.8142 30.5792 44.2517 31.4772 43.1424 32.5548L42.1267 33.5507L42.7205 32.4078C44.0955 29.7956 45.7205 27.8527 47.408 26.7915C47.8924 26.4976 49.5174 25.665 51.0174 24.9629C54.4549 23.3629 56.6267 22.1874 57.4236 21.4854C57.7674 21.1752 58.0799 20.9629 58.1111 20.9956C58.1424 21.0282 57.9549 21.518 57.6892 22.0731ZM16.0174 25.0609C17.3767 25.4364 19.658 26.6446 21.0486 27.7221C22.4236 28.7997 23.4392 29.8119 25.3611 32.0813C27.4705 34.5629 29.0955 36.2609 30.2517 37.1588C32.0017 38.5466 33.7986 39.5915 35.283 40.0813C37.3767 40.7833 37.3924 40.7997 36.0017 40.7997C33.2986 40.8323 32.0486 40.2772 28.3455 37.4527C25.1736 35.0364 23.7205 34.1384 21.8767 33.4201C20.0799 32.718 18.3611 32.4241 16.8142 32.5221C15.8611 32.5874 15.4861 32.7017 14.5955 33.2078C13.2517 33.9752 12.9392 34.269 13.0017 34.6772C13.0486 34.9874 13.158 35.0201 14.4549 35.0201C15.7517 35.0201 15.9392 35.069 16.8767 35.5752C18.1111 36.2446 19.5955 37.2731 22.2517 39.3139C24.6736 41.1752 26.408 42.1711 28.0642 42.6446C29.1267 42.9384 29.7205 43.0037 32.3142 43.0037C33.9549 43.0201 35.3142 43.0364 35.3142 43.0527C35.3142 43.216 32.908 44.865 32.0174 45.2895C28.8924 46.8405 24.8455 46.5303 20.6736 44.4241C17.8611 42.9874 16.1111 41.6323 12.2049 37.8119C10.3924 36.0323 8.50174 34.5956 7.11112 33.9425C6.53299 33.665 6.03299 33.567 5.12674 33.567L3.93924 33.5507L4.79862 31.8364C5.79862 29.8772 7.11112 27.869 8.09549 26.8241C8.79862 26.1058 10.5486 25.1099 11.658 24.8323C12.4236 24.6201 14.8924 24.767 16.0174 25.0609ZM19.6424 33.8935C22.1267 34.465 23.6736 35.3303 27.7361 38.4323C30.283 40.3752 32.408 41.5507 33.7517 41.7792C34.4861 41.8935 34.2986 41.9262 32.4705 41.9425C28.1892 41.9752 26.9549 41.4854 22.1111 37.7956C18.7674 35.265 16.658 33.9588 15.8767 33.9588C15.408 33.9588 15.6736 33.7956 16.4236 33.6486C17.2049 33.469 18.2205 33.5507 19.6424 33.8935ZM56.3767 34.367C58.2049 34.7588 60.9392 35.9997 62.8924 37.3058C63.9392 38.0078 66.4236 40.1792 68.5174 42.2527C70.283 43.9997 72.6267 45.7629 73.9549 46.3507C74.5017 46.5956 75.0486 46.6935 75.8924 46.6935H77.0642L76.1736 48.4405C74.3767 51.9833 72.8611 53.8282 70.8924 54.7915L69.6111 55.4282H67.5017C65.6892 55.4119 65.2517 55.3629 64.3767 55.0364C62.7517 54.416 61.1111 53.5017 59.8455 52.4895C58.283 51.2323 57.7674 50.7099 55.8142 48.4078C54.908 47.3303 53.7049 45.9425 53.1424 45.3221C50.908 42.8895 47.283 40.5384 44.6892 39.8364L43.5174 39.5262H45.1736C47.7986 39.5099 48.8924 39.967 52.2049 42.4976C57.0799 46.2201 59.0955 47.2486 62.3611 47.7058C64.2361 47.967 65.3299 47.7384 66.7986 46.8241C67.6892 46.2527 67.908 46.0405 67.9392 45.6486L68.0017 45.1915L66.8455 45.2895C65.9549 45.3711 65.533 45.3221 64.9236 45.0935C63.8767 44.7017 61.8142 43.3303 59.0017 41.1752C56.2986 39.0854 54.783 38.2037 53.0486 37.6813C51.9236 37.3384 51.4705 37.3058 48.7205 37.3058C47.0174 37.3058 45.6267 37.2895 45.6267 37.2731C45.6267 37.2568 46.0642 36.9139 46.6111 36.4895C47.9705 35.4119 49.7674 34.4976 51.1111 34.2201C52.4549 33.9262 54.6892 33.9915 56.3767 34.367ZM52.4705 38.7099C54.158 39.1507 55.5799 39.9507 57.8924 41.7303C61.3611 44.4078 63.4861 45.7792 64.9236 46.2854L65.2361 46.3997L64.9236 46.5303C64.4236 46.7588 62.7674 46.7099 61.5799 46.4486C59.033 45.8935 57.2205 44.8976 53.283 41.8935C50.8299 40.016 48.6111 38.7425 47.5017 38.5629L46.7986 38.4486L47.4236 38.3507C48.4236 38.1711 51.1892 38.367 52.4705 38.7099ZM43.7674 44.8486C44.7361 46.9058 44.8299 47.8527 44.3767 52.2282C43.7674 58.3017 44.0486 61.3384 45.4705 64.4241C46.1736 65.9262 46.7517 66.5303 48.3455 67.4282C49.158 67.869 49.4392 67.967 49.6424 67.8201C50.0642 67.5425 50.033 67.3956 49.3924 66.4976C48.283 64.9466 48.2205 63.5262 48.908 56.9139C49.2049 54.1221 49.2361 53.4364 49.0955 52.0976C48.8142 49.5997 48.0955 47.6895 46.4236 45.0609C45.9392 44.2935 45.4861 43.5752 45.4236 43.4772C45.3611 43.3629 45.8611 43.5099 46.5486 43.8201C49.9861 45.3384 51.9549 47.6895 53.2674 51.8364C54.4392 55.5752 54.2986 59.918 52.8142 66.4486C52.2361 68.9956 52.033 70.3997 52.033 72.1629C52.033 73.9262 52.3142 75.0364 52.9549 75.9017L53.4705 76.5711H50.8924C46.6111 76.5711 45.0955 76.2119 43.3142 74.8078C41.5174 73.4037 40.3299 70.9874 39.908 67.967C39.5017 64.9466 39.8142 62.8568 41.4861 57.4854C42.908 52.8976 43.1424 51.7874 43.2361 48.865C43.3299 46.4813 43.158 44.7017 42.7205 43.3629L42.5017 42.6935L42.8142 43.1017C42.9861 43.3303 43.408 44.1139 43.7674 44.8486ZM38.7205 44.6037C38.4392 45.1752 37.7517 46.1058 37.1892 46.6935C36.0642 47.869 35.1111 48.4568 31.4861 50.1221C30.283 50.6772 28.783 51.4282 28.158 51.7874C25.7049 53.1915 23.3455 55.5588 22.408 57.5507C21.8767 58.6772 21.8611 58.7262 21.908 60.4895C21.9549 62.2037 21.9705 62.2854 22.2986 62.3343C22.5955 62.3833 22.7205 62.2201 23.0955 61.3548C23.3767 60.6854 23.783 60.0976 24.1892 59.7384C24.9549 59.0527 27.4549 57.6813 29.9236 56.5711C35.5486 54.0405 37.3142 52.4078 39.5174 47.6895C40.3924 45.8119 40.3924 45.8119 40.5642 48.6527C40.6736 50.465 40.533 51.3303 39.8455 53.2568C39.1111 55.3139 37.0486 58.0078 34.9861 59.6078C32.3299 61.6486 29.783 62.8568 24.8299 64.4078C22.0955 65.2568 19.3142 66.6119 18.2361 67.5915C17.8455 67.967 17.3455 68.6201 17.1424 69.0772L16.7674 69.9099L15.658 68.0486C13.1892 63.9343 12.5799 61.4201 13.408 58.6609C14.283 55.7384 17.3142 52.7833 20.9861 51.2813C22.8767 50.5139 23.4705 50.3507 27.5486 49.469C29.2517 49.1099 31.1424 48.6201 31.7674 48.3752C34.2674 47.4446 37.2205 45.6323 38.5174 44.2446C38.8455 43.8854 39.158 43.5915 39.1892 43.5915C39.2205 43.5915 39.0017 44.0486 38.7205 44.6037ZM46.0642 46.5629C47.4392 49.0119 48.1111 51.265 48.1267 53.4364C48.1267 54.0405 47.9861 55.8364 47.8142 57.4364C47.4705 60.4895 47.3611 64.1956 47.5642 65.1425C47.6892 65.7139 47.6892 65.7139 47.3767 65.4201C46.9705 65.0446 46.158 63.4446 45.7674 62.2527C44.9549 59.8037 44.8767 57.4201 45.408 52.6527C45.6892 50.1548 45.6892 47.1833 45.408 46.0731C45.2986 45.5997 45.2205 45.2241 45.2517 45.2241C45.283 45.2241 45.6424 45.8282 46.0642 46.5629ZM38.1736 48.016C37.2986 49.6976 35.9236 51.5588 34.8455 52.5058C33.7674 53.4527 32.4236 54.2037 28.7517 55.8854C25.9861 57.1588 24.2205 58.1711 23.3455 58.9711L22.7986 59.4772L23.1111 58.6282C23.6111 57.2568 24.8455 55.7221 26.658 54.2037C27.8611 53.1915 29.8142 52.0976 32.7361 50.7752C35.3767 49.5833 36.7517 48.7507 37.783 47.7384C38.2674 47.265 38.6892 46.8731 38.7205 46.8568C38.7517 46.8568 38.5017 47.3792 38.1736 48.016Z" fill="#7A8872"/>
</svg>
