<svg width="31" height="31" viewBox="0 0 31 31" fill="none" xmlns="http://www.w3.org/2000/svg">
<path d="M17.3794 8.72521C17.3792 10.0971 16.8341 11.4127 15.864 12.3827C14.8939 13.3528 13.5782 13.8977 12.2063 13.8977C11.5269 13.8979 10.8542 13.7642 10.2265 13.5044C9.59882 13.2446 9.02844 12.8637 8.54795 12.3834C8.06746 11.9032 7.68627 11.333 7.42614 10.7054C7.16601 10.0779 7.03204 9.4052 7.03187 8.72586V8.72521C7.03204 7.35333 7.57714 6.03769 8.54727 5.06768C9.5174 4.09767 10.8331 3.55273 12.205 3.55273C12.8844 3.55256 13.5572 3.68623 14.1849 3.94608C14.8126 4.20594 15.3831 4.58691 15.8635 5.06722C16.344 5.54754 16.7252 6.1178 16.9853 6.74544C17.2454 7.37309 17.3793 8.04581 17.3794 8.72521ZM21.1117 26.4424C21.0923 26.8835 20.6028 27.0436 19.9789 27.1308C15.9211 27.694 8.72847 27.5183 6.77805 26.5257C3.27764 24.7445 3.4307 21.1536 5.85903 18.3753C8.10007 15.8126 11.4519 15.1035 14.5261 15.7306C17.5034 16.3389 21.3577 20.8004 21.1117 26.4424Z" stroke="#7A8872" stroke-width="1.5" stroke-linecap="round" stroke-linejoin="round"/>
<path d="M19.4726 19.7813C21.1712 18.914 24.0832 18.9372 25.6965 20.5434C27.3854 22.2232 27.1464 24.0354 26.044 25.3484C25.1528 26.4108 22.0444 27.0554 20.5996 26.9908M25.4854 14.2821C25.4852 15.1544 25.1386 15.9909 24.5218 16.6077C23.905 17.2245 23.0684 17.5711 22.1961 17.5713C21.7641 17.5714 21.3363 17.4864 20.9372 17.3211C20.5381 17.1558 20.1754 16.9136 19.8699 16.6081C19.5644 16.3027 19.322 15.9401 19.1567 15.5409C18.9913 15.1418 18.9062 14.7141 18.9062 14.2821C18.9063 13.4095 19.2529 12.5727 19.8698 11.9558C20.4868 11.3388 21.3236 10.9922 22.1961 10.9922C23.0687 10.9922 23.9054 11.3388 24.5224 11.9558C25.1394 12.5727 25.4854 13.4095 25.4854 14.2821Z" stroke="#7A8872" stroke-width="1.5" stroke-linecap="round" stroke-linejoin="round"/>
</svg>
