<svg width="73" height="51" viewBox="0 0 73 51" fill="none" xmlns="http://www.w3.org/2000/svg">
<g clip-path="url(#clip0_1616_11338)">
<path d="M8.26293 45.091C8.48452 45.2189 8.738 45.2873 8.99679 45.2893C9.41691 45.2893 9.66033 45.0773 9.66033 44.7722C9.66033 44.4671 9.49083 44.3275 9.0635 44.1689C8.54601 43.9966 8.22506 43.738 8.22506 43.3071C8.22506 42.8348 8.63437 42.4832 9.25103 42.4832C9.49416 42.4753 9.73545 42.5263 9.95243 42.6315L9.83884 42.952C9.65421 42.8557 9.44695 42.8059 9.2366 42.8073C8.80386 42.8073 8.63978 43.0555 8.63978 43.2623C8.63978 43.545 8.83271 43.6846 9.27086 43.8466C9.81179 44.0448 10.0786 44.2913 10.0786 44.7377C10.0786 45.1841 9.71803 45.6099 8.96974 45.6099C8.68703 45.6129 8.40826 45.5464 8.16016 45.4168L8.26293 45.091Z" fill="#BF9F4A"/>
<path d="M11.6639 42.8698H10.6992V42.5371H13.0432V42.8698H12.075V45.5689H11.6603L11.6639 42.8698Z" fill="#BF9F4A"/>
<path d="M16.5361 44.0203C16.5361 45.0631 15.8726 45.6164 15.063 45.6164C14.2245 45.6164 13.6367 44.9959 13.6367 44.0789C13.6367 43.1172 14.2624 42.4863 15.1098 42.4863C15.9573 42.4863 16.5361 43.1206 16.5361 44.0203ZM14.0749 44.0703C14.0749 44.7167 14.4355 45.2975 15.0864 45.2975C15.7373 45.2975 16.1033 44.727 16.1033 44.0393C16.1033 43.436 15.7734 42.8069 15.0918 42.8069C14.4102 42.8069 14.0749 43.405 14.0749 44.0703Z" fill="#BF9F4A"/>
<path d="M17.4901 42.5776C17.7494 42.5327 18.0127 42.5114 18.2762 42.5139C18.7126 42.5139 18.9975 42.5897 19.1922 42.7621C19.2746 42.8354 19.3395 42.9247 19.3828 43.024C19.426 43.1233 19.4465 43.2303 19.4428 43.3378C19.445 43.5113 19.3876 43.6807 19.2795 43.8202C19.1714 43.9596 19.0185 44.0614 18.8442 44.1099V44.1237C19.0894 44.2047 19.2355 44.4202 19.3112 44.7356C19.3666 45.0194 19.4481 45.298 19.5546 45.5681H19.1309C19.0378 45.3334 18.9672 45.0911 18.9199 44.8442C18.8262 44.4254 18.6567 44.2685 18.2852 44.2547H17.8976V45.5681H17.4883L17.4901 42.5776ZM17.8994 43.9565H18.3177C18.7559 43.9565 19.0389 43.7256 19.0389 43.3808C19.0389 42.9896 18.7414 42.8172 18.3087 42.8138C18.173 42.8096 18.0373 42.8218 17.9048 42.85L17.8994 43.9565Z" fill="#BF9F4A"/>
<path d="M20.8507 42.5371V45.5689H20.4414V42.5371H20.8507Z" fill="#BF9F4A"/>
<path d="M23.6294 44.147H22.4015V45.2397H23.7754V45.5689H21.9922V42.5371H23.7051V42.8646H22.4015V43.8229H23.6348L23.6294 44.147Z" fill="#BF9F4A"/>
<path d="M24.6692 45.091C24.8908 45.2189 25.1443 45.2873 25.403 45.2893C25.8214 45.2893 26.0666 45.0773 26.0666 44.7722C26.0666 44.4671 25.8971 44.3275 25.4698 44.1689C24.9523 43.9966 24.6313 43.738 24.6313 43.3071C24.6313 42.8348 25.0406 42.4832 25.6573 42.4832C25.9004 42.4753 26.1417 42.5263 26.3587 42.6315L26.2451 42.952C26.0603 42.856 25.8532 42.8062 25.6429 42.8073C25.2101 42.8073 25.046 43.0555 25.046 43.2623C25.046 43.545 25.239 43.6846 25.6771 43.8466C26.218 44.0448 26.4849 44.2913 26.4849 44.7377C26.4849 45.1841 26.1243 45.6099 25.376 45.6099C25.0933 45.6129 24.8145 45.5464 24.5664 45.4168L24.6692 45.091Z" fill="#BF9F4A"/>
<path d="M29.5945 45.5689V44.2814L28.5938 42.5371H29.059L29.5061 43.3731C29.6287 43.6023 29.7225 43.7867 29.8217 43.9987H29.8307C29.9208 43.8005 30.029 43.6023 30.1498 43.3731L30.606 42.5371H31.073L30.0092 44.278V45.5689H29.5945Z" fill="#BF9F4A"/>
<path d="M34.5655 44.0203C34.5655 45.0631 33.902 45.6164 33.0924 45.6164C32.2558 45.6164 31.668 44.9959 31.668 44.0789C31.668 43.1172 32.2936 42.4863 33.1393 42.4863C33.9849 42.4863 34.5655 43.1206 34.5655 44.0203ZM32.1043 44.0703C32.1043 44.7167 32.4649 45.2975 33.1159 45.2975C33.7668 45.2975 34.1328 44.727 34.1328 44.0393C34.1328 43.436 33.8028 42.8069 33.1213 42.8069C32.4397 42.8069 32.1043 43.405 32.1043 44.0703Z" fill="#BF9F4A"/>
<path d="M35.9285 42.5371V44.3314C35.9285 45.0105 36.2441 45.2983 36.6678 45.2983C37.1384 45.2983 37.4395 45.0019 37.4395 44.3314V42.5371H37.8524V44.3038C37.8524 45.2363 37.3404 45.6172 36.6534 45.6172C36.0043 45.6172 35.5156 45.2621 35.5156 44.3228V42.5371H35.9285Z" fill="#BF9F4A"/>
<path d="M42.6223 45.4697C42.3574 45.5744 42.0721 45.6237 41.7856 45.6145C40.8841 45.6145 40.2188 45.075 40.2188 44.0805C40.2188 43.1307 40.8913 42.4878 41.8758 42.4878C42.1341 42.4771 42.3914 42.5237 42.6277 42.624L42.5285 42.9429C42.3276 42.8559 42.1089 42.8129 41.8884 42.8171C41.1455 42.8171 40.6515 43.2704 40.6515 44.0667C40.6515 44.8095 41.0987 45.2853 41.8704 45.2853C42.1002 45.2891 42.3282 45.2462 42.5393 45.1594L42.6223 45.4697Z" fill="#BF9F4A"/>
<path d="M44.074 44.6158L43.744 45.5689H43.3203L44.4022 42.5371H44.8962L45.9781 45.5689H45.5399L45.2009 44.6158H44.074ZM45.1126 44.309L44.8025 43.4368C44.7321 43.2386 44.6853 43.0594 44.6384 42.8836H44.6294C44.5825 43.0559 44.5302 43.2472 44.4689 43.4317L44.1587 44.309H45.1126Z" fill="#BF9F4A"/>
<path d="M46.8633 45.5689V42.5371H47.3086L48.3256 44.0711C48.5372 44.3873 48.7275 44.716 48.8954 45.0553H48.9044C48.8665 44.6503 48.8575 44.2814 48.8575 43.8091V42.5406H49.2434V45.5724H48.8287L47.8225 44.0332C47.6032 43.708 47.4051 43.3701 47.2293 43.0214H47.2149C47.2383 43.4041 47.2491 43.7678 47.2491 44.2711V45.5672L46.8633 45.5689Z" fill="#BF9F4A"/>
<path d="M52.2095 42.5366V43.8018H53.7421V42.5332H54.1568V45.565H53.7421V44.1465H52.2095V45.5685H51.793V42.5366H52.2095Z" fill="#BF9F4A"/>
<path d="M56.9317 44.147H55.6984V45.2397H57.0723V45.5689H55.2891V42.5371H57.002V42.8646H55.6984V43.8229H56.9317V44.147Z" fill="#BF9F4A"/>
<path d="M58.5428 44.6158L58.2128 45.5689H57.7891L58.8709 42.5371H59.3686L60.4504 45.5689H60.0123L59.6733 44.6158H58.5428ZM59.5831 44.309L59.2712 43.4368C59.2009 43.2386 59.154 43.0594 59.1071 42.8836H59.0981C59.0512 43.0559 58.9989 43.2472 58.9376 43.4317L58.6275 44.309H59.5831Z" fill="#BF9F4A"/>
<path d="M61.332 42.5776C61.5908 42.5327 61.8534 42.5114 62.1164 42.5139C62.5545 42.5139 62.8376 42.5897 63.0342 42.7621C63.1165 42.8354 63.1815 42.9247 63.2247 43.024C63.2679 43.1233 63.2884 43.2303 63.2848 43.3378C63.2869 43.5113 63.2295 43.6807 63.1214 43.8202C63.0133 43.9596 62.8605 44.0614 62.6862 44.1099V44.1237C62.9314 44.2047 63.0774 44.4202 63.1514 44.7356C63.208 45.0193 63.29 45.2978 63.3966 45.5681H62.9746C62.8807 45.3337 62.81 45.0913 62.7637 44.8442C62.6699 44.4254 62.5004 44.2685 62.129 44.2547H61.7431V45.5681H61.3338L61.332 42.5776ZM61.7413 43.9565H62.1597C62.5978 43.9565 62.8809 43.7256 62.8809 43.3808C62.8809 42.9896 62.5852 42.8172 62.1597 42.8138C62.024 42.8096 61.8883 42.8218 61.7558 42.85L61.7413 43.9565Z" fill="#BF9F4A"/>
<path d="M3.26781 49.3645C3.23896 48.8629 3.2065 48.2614 3.21191 47.8133H3.19568C3.06766 48.2338 2.9108 48.6751 2.72148 49.1766L2.05793 50.9192H1.69731L1.08967 49.2094C0.909359 48.7026 0.76151 48.239 0.655128 47.8133H0.644309C0.633491 48.2614 0.604635 48.8629 0.570376 49.4007L0.471209 50.9416H0.0078125L0.271068 47.3496H0.889527L1.52962 49.087C1.68649 49.5283 1.81452 49.923 1.90828 50.2935H1.92631C2.02007 49.9299 2.1535 49.5369 2.32118 49.087L2.99013 47.3496H3.60859L3.84299 50.9416H3.36878L3.26781 49.3645Z" fill="#292728"/>
<path d="M7.02907 49.2577H5.56857V50.5521H7.19135V50.9416H5.07812V47.3496H7.1066V47.7391H5.56316V48.8733H7.02366L7.02907 49.2577Z" fill="#292728"/>
<path d="M11.4944 49.3645C11.4673 48.8629 11.4331 48.2614 11.4385 47.8133H11.4222C11.2942 48.2338 11.1374 48.6751 10.948 49.1766L10.2845 50.9192H9.92387L9.31623 49.2094C9.13592 48.7026 8.98807 48.239 8.88168 47.8133H8.87087C8.86005 48.2614 8.8312 48.8629 8.79874 49.4007L8.69777 50.9416H8.23438L8.49762 47.3496H9.11608L9.75619 49.087C9.91305 49.5283 10.0411 49.923 10.1366 50.2935H10.1529C10.2466 49.9299 10.3819 49.5369 10.5477 49.087L11.2167 47.3496H11.837L12.0696 50.9416H11.5863L11.4944 49.3645Z" fill="#292728"/>
<path d="M16.519 49.1082C16.519 50.344 15.7329 51.0041 14.7736 51.0041C13.7819 51.0041 13.0859 50.2682 13.0859 49.1806C13.0859 48.0412 13.827 47.2949 14.8295 47.2949C15.8321 47.2949 16.519 48.043 16.519 49.1082ZM13.6034 49.1668C13.6034 49.9338 14.038 50.6215 14.8025 50.6215C15.567 50.6215 16.0069 49.9458 16.0069 49.1306C16.0069 48.4153 15.6157 47.6707 14.8079 47.6707C14.0001 47.6707 13.6034 48.3791 13.6034 49.1668Z" fill="#292728"/>
<path d="M17.652 47.3986C17.9597 47.3463 18.2718 47.3215 18.5842 47.3245C19.1017 47.3245 19.4371 47.4141 19.6661 47.6175C19.7636 47.704 19.8405 47.8096 19.8916 47.9271C19.9426 48.0446 19.9665 48.1712 19.9618 48.2983C19.9647 48.5039 19.8972 48.7048 19.7696 48.8703C19.642 49.0359 19.4613 49.157 19.255 49.2153V49.2308C19.5435 49.3273 19.7166 49.5755 19.8067 49.9564C19.8726 50.2925 19.9692 50.6224 20.0952 50.9423H19.594C19.482 50.6633 19.3981 50.3747 19.3433 50.0805C19.2316 49.5841 19.0314 49.3911 18.5915 49.3825H18.1335V50.9337H17.6484L17.652 47.3986ZM18.1371 49.0343H18.6329C19.1522 49.0343 19.4804 48.762 19.4804 48.3448C19.4804 47.8812 19.1306 47.6795 18.6167 47.6744C18.4557 47.6702 18.2947 47.6841 18.1371 47.7157V49.0343Z" fill="#292728"/>
<path d="M21.6335 47.3496V50.9416H21.1484V47.3496H21.6335Z" fill="#292728"/>
<path d="M24.9275 49.2577H23.467V50.5521H25.0898V50.9416H22.9766V47.3496H25.0068V47.7391H23.4616V48.8733H24.9221L24.9275 49.2577Z" fill="#292728"/>
<path d="M26.1611 50.3756C26.4239 50.5261 26.7238 50.607 27.0302 50.61C27.5278 50.61 27.8163 50.3601 27.8163 49.9964C27.8163 49.662 27.6162 49.469 27.1095 49.2828C26.4964 49.076 26.1178 48.7657 26.1178 48.2659C26.1178 47.7057 26.601 47.2903 27.3313 47.2903C27.6192 47.2795 27.9052 47.3388 28.1625 47.4627L28.0291 47.8419C27.808 47.7266 27.5597 47.6672 27.3078 47.6695C26.7958 47.6695 26.5992 47.9625 26.5992 48.2073C26.5992 48.552 26.8282 48.7071 27.3475 48.8967C27.9822 49.1311 28.305 49.4242 28.305 49.9516C28.305 50.479 27.8758 50.9858 26.9905 50.9858C26.6554 50.9896 26.325 50.9106 26.0312 50.7565L26.1611 50.3756Z" fill="#292728"/>
<path d="M31.995 50.9414V49.416L30.8086 47.3477H31.3603L31.8904 48.3387C32.0347 48.6111 32.1465 48.8282 32.2637 49.0799H32.2745C32.3809 48.8455 32.5089 48.6111 32.6532 48.3387L33.1941 47.3477H33.7458L32.4837 49.416V50.9466L31.995 50.9414Z" fill="#292728"/>
<path d="M37.8901 49.1082C37.8901 50.344 37.104 51.0041 36.1447 51.0041C35.153 51.0041 34.457 50.2682 34.457 49.1806C34.457 48.0412 35.1981 47.2949 36.2006 47.2949C37.2031 47.2949 37.8901 48.043 37.8901 49.1082ZM34.9745 49.1668C34.9745 49.9338 35.4091 50.6215 36.1736 50.6215C36.9381 50.6215 37.3762 49.9458 37.3762 49.1306C37.3762 48.4153 36.9868 47.6707 36.179 47.6707C35.3712 47.6707 34.9745 48.3791 34.9745 49.1668Z" fill="#292728"/>
<path d="M39.5022 47.3496V49.4766C39.5022 50.2798 39.8754 50.621 40.3767 50.621C40.9356 50.621 41.2908 50.2763 41.2908 49.4766V47.3496H41.7813V49.4438C41.7813 50.5469 41.1736 50.9951 40.3604 50.9951C39.5905 50.9951 39.0117 50.5728 39.0117 49.4593V47.3496H39.5022Z" fill="#292728"/>
<path d="M47.4348 50.8244C47.12 50.9478 46.7815 51.0065 46.4413 50.9967C45.3829 50.9967 44.5859 50.3573 44.5859 49.1783C44.5859 48.0545 45.3829 47.2927 46.5477 47.2927C46.8541 47.2805 47.1593 47.3353 47.4402 47.453L47.323 47.8304C47.0844 47.7285 46.8253 47.6779 46.5639 47.6822C45.684 47.6822 45.098 48.22 45.098 49.1628C45.098 50.0418 45.6281 50.6072 46.5405 50.6072C46.8125 50.6112 47.0822 50.5601 47.332 50.4572L47.4348 50.8244Z" fill="#292728"/>
<path d="M49.1524 49.8109L48.763 50.9416H48.2617L49.5383 47.3496H50.1225L51.4045 50.9416H50.8942L50.4921 49.8109H49.1524ZM50.3858 49.449L50.0251 48.4148C49.9404 48.1804 49.8845 47.9684 49.8286 47.7598H49.8124C49.7565 47.9736 49.6952 48.1907 49.6231 48.4096L49.2624 49.4438L50.3858 49.449Z" fill="#292728"/>
<path d="M52.457 50.9416V47.3496H52.9871L54.1916 49.1663C54.4424 49.541 54.6677 49.9308 54.866 50.3332H54.8768C54.8317 49.854 54.8209 49.4162 54.8209 48.8578V47.3548H55.2789V50.9468H54.7884L53.5984 49.118C53.3397 48.7322 53.1049 48.3322 52.8952 47.9201H52.879C52.9078 48.3734 52.9186 48.8043 52.9186 49.4007V50.9365L52.457 50.9416Z" fill="#292728"/>
<path d="M58.7936 47.3496V48.8526H60.6111V47.3496H61.1016V50.9416H60.6111V49.2577H58.7936V50.9416H58.3086V47.3496H58.7936Z" fill="#292728"/>
<path d="M65.6557 49.1082C65.6557 50.344 64.8696 51.0041 63.9104 51.0041C62.9187 51.0041 62.2227 50.2682 62.2227 49.1806C62.2227 48.0412 62.9637 47.2949 63.9662 47.2949C64.9688 47.2949 65.6557 48.043 65.6557 49.1082ZM62.7401 49.1668C62.7401 49.9338 63.1747 50.6215 63.9392 50.6215C64.7037 50.6215 65.1437 49.9458 65.1437 49.1306C65.1437 48.4153 64.7524 47.6707 63.9446 47.6707C63.1368 47.6707 62.7401 48.3791 62.7401 49.1668Z" fill="#292728"/>
<path d="M66.7852 47.3496H67.2702V50.5521H68.8749V50.9416H66.7852V47.3496Z" fill="#292728"/>
<path d="M69.918 47.3983C70.2593 47.349 70.6041 47.3242 70.9493 47.3242C71.6471 47.3242 72.143 47.4776 72.4711 47.7706C72.6519 47.936 72.7929 48.137 72.8845 48.3596C72.976 48.5822 73.0159 48.8211 73.0013 49.0599C73.0143 49.3155 72.9731 49.5709 72.8801 49.8108C72.7872 50.0508 72.6444 50.2702 72.4603 50.456C72.0997 50.7921 71.5299 50.9731 70.7997 50.9731C70.5052 50.9747 70.2109 50.9609 69.918 50.9317V47.3983ZM70.403 50.5732C70.5654 50.5956 70.7294 50.6048 70.8934 50.6008C71.9302 50.6008 72.4946 50.0458 72.4946 49.0771C72.4946 48.2291 71.9969 47.6982 70.9728 47.6982C70.7816 47.6949 70.5906 47.7111 70.403 47.7465V50.5732Z" fill="#292728"/>
<path d="M57.8756 39.5658C51.9014 39.5324 45.9283 39.5037 39.9565 39.4796C39.7879 39.4884 39.6267 39.5489 39.4967 39.6519C37.553 41.2187 34.311 41.2532 32.3546 39.7036C32.1626 39.5439 31.9128 39.4622 31.6586 39.4761C27.3517 39.529 23.0453 39.579 18.7395 39.6261C17.8488 39.6364 15.5859 39.6468 13.4492 39.6606V40.0053C19.3561 40.0053 26.9922 40.0053 31.7127 40.0053C31.8494 39.9975 31.9851 40.0313 32.1004 40.1018C32.9639 40.8054 34.0353 41.2344 35.1657 41.329C36.756 41.491 38.2183 41.1825 39.4931 40.219C39.6631 40.0949 39.869 40.0239 40.0827 40.0156C45.9728 40.0064 51.8629 40.0064 57.753 40.0156H58.1425V39.5761C58.0361 39.5744 57.9568 39.5658 57.8756 39.5658Z" fill="#BF9F4A"/>
<path d="M29.4967 36.773C29.4583 36.7471 29.4147 36.7289 29.3687 36.7196C27.7007 36.3493 26.0003 36.1277 24.2894 36.0577C21.7687 35.9672 19.2447 36.0103 16.729 36.187C16.5667 36.1814 16.4071 36.2285 16.2762 36.3204C16.1453 36.4124 16.0508 36.5439 16.0078 36.6937C20.5264 36.4662 25.0143 36.0456 29.4967 36.773Z" fill="#F8EDCD"/>
<path d="M15.3477 38.0203C14.942 38.0203 14.7113 38.1599 14.5508 38.5856C19.8933 38.4564 25.18 37.9996 30.4829 38.2409C29.5109 38.1191 28.5329 38.046 27.5529 38.022C23.4851 38.0048 19.4155 38.0289 15.3477 38.0203Z" fill="#F8EDCD"/>
<path d="M44.8802 36.8121C43.6181 36.9051 42.3703 37.1326 41.1172 37.2981C41.1172 37.3309 41.1172 37.3619 41.1298 37.3946C46.1352 36.5828 51.1406 37.2343 56.2325 37.4153C55.9819 37.1344 55.9152 36.8224 55.5113 36.8017C51.9628 36.6242 48.4197 36.5535 44.8802 36.8121Z" fill="#F8EDCD"/>
<path d="M23.6422 37.0028C25.6129 36.9442 27.5837 36.9476 29.5365 37.2682L30.3893 37.4079C28.8843 37.0252 27.3402 36.7999 25.7842 36.7356C22.6212 36.5857 19.452 36.6029 16.291 36.7873C15.8131 36.8184 15.6779 36.9114 15.4922 37.3958C16.1792 37.3665 16.8553 37.3406 17.5315 37.3079C19.5672 37.1993 21.6047 37.0666 23.6422 37.0028Z" fill="#F8EDCD"/>
<path d="M29.8217 37.6983C29.7784 37.6983 29.737 37.6776 29.6919 37.6707C27.1802 37.3053 24.6432 37.2656 22.1189 37.3053C19.9859 37.3398 17.8546 37.4259 15.7215 37.4621C15.3609 37.4621 15.1716 37.6104 15.0273 37.9361C19.9768 37.7534 24.8921 37.376 29.8217 37.6983Z" fill="#F8EDCD"/>
<path d="M22.2855 34.8028C20.6826 34.8028 19.0796 34.9751 17.4767 35.0648C17.3832 35.0597 17.2908 35.0859 17.2152 35.1389C16.9502 35.4422 16.7014 35.7594 16.3984 36.1317C21.0252 35.7869 25.5618 35.356 30.0478 36.5091C26.1261 35.2302 22.0746 35.2888 18.014 35.4215C22.2747 35.0579 26.5066 35.0389 30.6357 36.3092C30.5547 36.2516 30.4646 36.2068 30.3688 36.1765C27.781 35.2637 25.0439 34.7985 22.2855 34.8028Z" fill="#F8EDCD"/>
<path d="M53.9016 36.1674C50.7228 35.9468 47.5493 35.9365 44.3849 36.3398C43.5663 36.4415 42.7621 36.6001 41.9453 36.7328C46.5107 36.0692 51.0762 36.5053 55.6488 36.7328C55.4974 36.4105 55.3152 36.226 54.9438 36.2415C54.5952 36.2354 54.2473 36.2106 53.9016 36.1674Z" fill="#F8EDCD"/>
<path d="M53.6316 35.4422C51.6266 35.4508 49.6215 35.4181 47.6201 35.4594C45.5898 35.5008 42.5714 36.0437 41.742 36.4522C41.7816 36.4557 41.8214 36.4557 41.861 36.4522C43.6064 36.011 45.3933 35.8748 47.1873 35.7955C49.5746 35.6904 51.9439 35.9679 54.3204 36.0937C54.6035 36.1092 54.8847 36.1282 55.2454 36.1523C54.791 35.6215 54.544 35.1182 53.7434 35.0406C50.8819 34.7648 48.0348 34.6786 45.1913 35.1785C43.6483 35.451 42.138 35.872 40.6836 36.435C42.7574 35.7666 44.9184 35.3774 47.1044 35.2785C49.281 35.1554 51.4647 35.2102 53.6316 35.4422Z" fill="#F8EDCD"/>
<path d="M53.6415 33.2752C53.6703 33.22 53.6973 33.1666 53.728 33.1132C53.398 32.8426 53.0536 32.5875 52.7471 32.2962C52.6774 32.2151 52.5877 32.152 52.4859 32.1125C52.3842 32.0731 52.2738 32.0586 52.1647 32.0704C51.0955 32.1945 50.0172 32.2669 48.9534 32.4306C46.0409 32.8513 43.2313 33.7697 40.6592 35.1419C39.9704 35.5159 39.3465 36.0226 38.6758 36.4191C43.3205 33.944 48.3512 33.0287 53.6415 33.2752Z" fill="#F8EDCD"/>
<path d="M54.4116 34.7759C54.1503 34.4035 53.8617 34.0493 53.548 33.7159C53.4502 33.642 53.3282 33.6035 53.2036 33.6073C50.2447 33.5078 47.287 33.8343 44.4297 34.576C42.4933 35.0747 40.626 35.7921 38.8672 36.7133C43.8419 34.5794 49.0276 34.0158 54.4116 34.7759Z" fill="#F8EDCD"/>
<path d="M56.237 38.0431C56.0726 38.0473 55.9081 38.0404 55.7448 38.0224C52.0286 38.0224 48.3106 37.9983 44.5926 38.0224C43.4765 38.0224 42.3604 38.1431 41.2461 38.2069C43.0077 38.2189 44.7657 38.1965 46.5237 38.2258C48.2818 38.2551 50.0398 38.3344 51.7978 38.3982C53.5558 38.462 55.3012 38.5516 57.1025 38.6309C56.9114 38.2017 56.6752 37.9828 56.237 38.0431Z" fill="#F8EDCD"/>
<path d="M18.4028 33.5802C18.3108 33.5719 18.2186 33.5938 18.1413 33.6422C17.824 33.987 17.5229 34.3472 17.1641 34.7609C19.9787 34.4834 22.6887 34.3058 25.4078 34.673C28.0944 35.0547 30.715 35.7806 33.199 36.8309C33.1537 36.7984 33.1061 36.7691 33.0565 36.743C28.5356 34.5073 23.49 33.4183 18.4028 33.5802Z" fill="#F8EDCD"/>
<path d="M56.6121 37.9517C56.4733 37.6708 56.3344 37.526 56.0189 37.5087C52.6327 37.3191 49.2411 37.2433 45.8512 37.3605C44.1563 37.4191 42.4686 37.6104 40.7773 37.7432C40.7773 37.7828 40.7773 37.8224 40.7864 37.8638C46.0514 37.3312 51.311 37.769 56.6121 37.9517Z" fill="#F8EDCD"/>
<path d="M35.1564 36.3037C34.8877 35.6608 34.6407 34.9921 34.2548 34.4164C31.4077 30.1935 27.2732 27.6943 22.2967 26.3412C22.2442 26.3294 22.1895 26.329 22.1368 26.34C22.084 26.351 22.0345 26.3733 21.992 26.405L18.5391 29.6402L20.4197 29.8833L35.297 37.2035C35.2429 36.8432 35.2609 36.5502 35.1564 36.3037Z" fill="#F8EDCD"/>
<path d="M52.8585 31.8029C52.4978 31.4409 52.1697 31.1876 51.9569 30.8653C51.4556 30.1362 50.7939 30.1172 50.0024 30.2999C45.7448 31.2803 41.7819 33.188 38.4229 35.8741C38.2426 36.0171 38.0623 36.1688 37.8946 36.3188C37.7269 36.4687 37.5664 36.6032 37.4023 36.7462C39.631 35.1622 41.9984 33.8523 44.6436 33.0232C47.2918 32.1824 50.0682 31.77 52.8585 31.8029Z" fill="#F8EDCD"/>
<path d="M19.4139 32.0429C19.3235 32.0299 19.2314 32.0502 19.1561 32.0998C18.7955 32.4445 18.4348 32.8151 18.0742 33.1753C23.4835 33.0133 28.5899 33.9975 33.3194 36.5415L33.3915 36.4433C32.4899 35.9262 31.6028 35.385 30.676 34.911C27.1582 33.115 23.3555 32.3221 19.4139 32.0429Z" fill="#F8EDCD"/>
<path d="M33.5188 35.9934C30.5689 33.5717 27.208 31.8688 23.5098 30.7519C22.6552 30.4934 21.7626 30.3503 20.8809 30.1728C20.8094 30.1598 20.7358 30.1613 20.665 30.1774C20.5941 30.1934 20.5276 30.2236 20.4698 30.2658C19.9938 30.7278 19.5412 31.2121 19.0273 31.7482C24.8081 31.886 29.9974 33.4201 34.4853 36.8845C34.1798 36.5713 33.8572 36.2739 33.5188 35.9934Z" fill="#F8EDCD"/>
<path d="M35.5979 37.1719C35.5979 37.377 35.4897 37.6976 35.8377 37.7131L35.5979 37.1719Z" fill="#E7D7A7"/>
<path d="M35.8398 37.7132H35.8651C36.2257 37.7132 36.1067 37.3857 36.1085 37.1875" fill="#C49B40"/>
<path d="M49.8369 26.4457C49.6854 26.2733 49.543 26.3182 49.3699 26.363C45.9558 27.2389 42.8318 28.9326 40.2931 31.2839C38.7731 32.6869 37.4406 34.2295 36.6869 36.1514C36.5932 36.4648 36.528 36.7855 36.4922 37.1097L36.5859 37.1442C38.6631 34.9776 41.1333 33.3247 43.8542 31.9957C46.5751 30.6668 50.0803 29.9602 53.1888 29.6499L49.8369 26.4457Z" fill="#F8EDCD"/>
<path d="M47.6601 21.7811C47.6601 21.9667 47.8175 22.1172 48.0117 22.1172C48.2059 22.1172 48.3633 21.9667 48.3633 21.7811V17.0618C48.3633 16.8762 48.2059 16.7257 48.0117 16.7257C47.8175 16.7257 47.6601 16.8762 47.6601 17.0618V21.7811Z" fill="#BF9F4A"/>
<path d="M50.1173 18.3205C50.1173 18.1349 49.9599 17.9844 49.7657 17.9844C49.5715 17.9844 49.4141 18.1349 49.4141 18.3205V20.494C49.4141 20.6796 49.5715 20.8301 49.7657 20.8301C49.9599 20.8301 50.1173 20.6796 50.1173 20.494V18.3205Z" fill="#BF9F4A"/>
<path d="M44.7187 21.4178C44.7187 21.6034 44.8761 21.7539 45.0703 21.7539C45.2645 21.7539 45.4219 21.6034 45.4219 21.4178V17.4259C45.4219 17.2403 45.2645 17.0898 45.0703 17.0898C44.8761 17.0898 44.7187 17.2403 44.7187 17.4259V21.4178Z" fill="#BF9F4A"/>
<path d="M46.1757 23.2225C46.1757 23.4081 46.3331 23.5586 46.5273 23.5586C46.7215 23.5586 46.8789 23.4081 46.8789 23.2225V15.5559C46.8789 15.3702 46.7215 15.2198 46.5273 15.2198C46.3331 15.2198 46.1757 15.3702 46.1757 15.5559V23.2225Z" fill="#BF9F4A"/>
<path d="M24.1837 16.9963C24.1837 16.8106 24.0263 16.6602 23.8321 16.6602C23.6379 16.6602 23.4805 16.8106 23.4805 16.9963V21.7155C23.4805 21.9011 23.6379 22.0516 23.8321 22.0516C24.0263 22.0516 24.1837 21.9011 24.1837 21.7155V16.9963Z" fill="#BF9F4A"/>
<path d="M22.4337 18.2814C22.4337 18.0958 22.2763 17.9453 22.0821 17.9453C21.8879 17.9453 21.7305 18.0958 21.7305 18.2814V20.4549C21.7305 20.6405 21.8879 20.791 22.0821 20.791C22.2763 20.791 22.4337 20.6405 22.4337 20.4549V18.2814Z" fill="#BF9F4A"/>
<path d="M27.1251 17.3595C27.1251 17.1739 26.9677 17.0234 26.7735 17.0234C26.5793 17.0234 26.4219 17.1739 26.4219 17.3595V21.3514C26.4219 21.5371 26.5793 21.6875 26.7735 21.6875C26.9677 21.6875 27.1251 21.5371 27.1251 21.3514V17.3595Z" fill="#BF9F4A"/>
<path d="M25.668 15.5549C25.668 15.3692 25.5106 15.2188 25.3164 15.2188C25.1223 15.2188 24.9648 15.3692 24.9648 15.5549V23.2215C24.9648 23.4071 25.1223 23.5576 25.3164 23.5576C25.5106 23.5576 25.668 23.4071 25.668 23.2215V15.5549Z" fill="#BF9F4A"/>
<path d="M57.7918 38.8036C57.4853 38.7254 57.2228 38.5362 57.0597 38.2762C56.4383 37.4327 55.8036 36.5985 55.1557 35.7735C55.0851 35.7034 55.0418 35.6123 55.033 35.5154C55.0241 35.4185 55.0502 35.3216 55.107 35.2409C57.3746 31.2348 58.1159 26.6001 57.204 22.1293C55.2855 12.2186 46.2538 5.331 36.1475 5.23793C34.462 5.21791 32.7797 5.38566 31.1349 5.73778C26.5988 6.66806 22.5055 8.99129 19.4797 12.353C15.219 17.0206 13.5511 22.4689 14.339 28.6015C14.6596 31.0044 15.455 33.3271 16.6831 35.446C15.9041 36.4595 15.136 37.4764 14.339 38.4761C14.2236 38.6192 13.9784 38.676 13.7981 38.7674C13.6827 38.8243 13.5637 38.8725 13.4375 38.9242V39.0259H14.0668C19.9761 39.0259 25.8867 39.0202 31.7984 39.0087C32.0757 38.9992 32.3459 39.0932 32.5521 39.2707C33.5059 40.0094 34.7019 40.4025 35.9293 40.3807C37.1518 40.3807 38.358 40.0101 39.2181 39.2603C39.312 39.173 39.4237 39.1051 39.5462 39.0609C39.6688 39.0167 39.7995 38.9972 39.9303 39.0035C45.7724 39.0242 51.6132 39.0409 57.4528 39.0535H58.1632C58.1632 39.0242 58.1776 38.9932 58.1848 38.9639C58.0585 38.9006 57.927 38.847 57.7918 38.8036ZM56.187 37.4161C53.01 37.3023 49.8762 37.0059 46.7388 36.999C44.8608 36.9772 42.9842 37.1081 41.1294 37.3902L41.1186 37.3006C42.3717 37.1282 43.6213 36.9076 44.8816 36.8145C46.6396 36.687 48.3995 36.6422 50.1593 36.6422C51.9191 36.6422 53.6933 36.7128 55.4604 36.8007C55.8715 36.8214 55.9418 37.1317 56.187 37.4126V37.4161ZM55.61 36.7266C52.7593 36.5887 49.9159 36.3681 47.0742 36.3819C45.41 36.3797 43.7478 36.4885 42.0995 36.7077C42.8604 36.5801 43.6177 36.4371 44.384 36.3405C46.3404 36.103 48.3118 35.9976 50.2837 36.0251C51.4737 36.0389 52.6638 36.0923 53.8556 36.1751C54.2045 36.2146 54.5555 36.2353 54.9068 36.2371C55.2765 36.2182 55.4586 36.3991 55.61 36.718V36.7266ZM55.2007 36.1578C54.8617 36.1354 54.5913 36.1165 54.3226 36.1027C52.2401 35.9906 50.1611 35.758 48.0731 35.7821C47.763 35.7821 47.4546 35.7907 47.1445 35.8045C45.3504 35.8838 43.5636 36.0199 41.8182 36.4612H41.7443C42.5683 36.0527 45.592 35.5098 47.6223 35.4684C48.6122 35.4477 49.6057 35.446 50.5974 35.4477H52.1265H53.6338C52.2717 35.2964 50.9014 35.2216 49.53 35.2236C48.7078 35.2236 47.8838 35.2443 47.0598 35.284C44.9797 35.3788 42.922 35.7364 40.9401 36.3474C42.3161 35.8314 43.7403 35.4419 45.1936 35.184C46.5986 34.943 48.0232 34.8213 49.4507 34.8203C50.8716 34.8226 52.2914 34.8963 53.7042 35.0409C54.4993 35.1185 54.7482 35.6201 55.2007 36.1492V36.1578ZM16.7318 36.1958C18.3059 36.101 19.8799 36.0234 21.4559 36.0234C22.3862 36.0234 23.3166 36.0234 24.247 36.0734C25.9579 36.1434 27.6583 36.365 29.3264 36.7352C29.3651 36.744 29.4023 36.7586 29.4363 36.7783C27.507 36.4857 25.5549 36.3519 23.6015 36.3785C21.0772 36.3888 18.5529 36.5784 16.0087 36.7077C16.049 36.555 16.1426 36.4202 16.2742 36.3255C16.4057 36.2308 16.5672 36.182 16.7318 36.1871V36.1958ZM16.2918 36.7887C17.8713 36.6922 19.4508 36.6416 21.0303 36.637C22.6098 36.6324 24.1803 36.6657 25.7418 36.737C27.2645 36.8024 28.7756 37.0225 30.2495 37.3937L29.5283 37.2765C28.0674 37.051 26.5885 36.9494 25.1089 36.9731C24.6041 36.9731 24.0986 36.9829 23.5925 37.0024C21.555 37.0662 19.5175 37.1989 17.4818 37.3006C16.8201 37.3316 16.1584 37.3575 15.4876 37.3868C15.6806 36.9076 15.8158 36.8111 16.2918 36.7801V36.7887ZM15.7202 37.4781C17.8533 37.4419 19.9845 37.3557 22.1176 37.3213C22.7354 37.3109 23.3539 37.3069 23.973 37.3092C25.8715 37.304 27.7679 37.4301 29.6473 37.6867L29.7591 37.7108C28.533 37.6315 27.3069 37.597 26.0808 37.5902C22.4025 37.5695 18.7242 37.8125 15.0278 37.9504C15.1721 37.6091 15.3542 37.4695 15.7202 37.4626V37.4781ZM27.4692 38.1848C23.1742 38.1727 18.881 38.4933 14.5536 38.6002C14.7141 38.1745 14.9431 38.0349 15.3488 38.0349H18.3617C20.3992 38.0349 22.4385 38.0349 24.4778 38.0349C25.4876 38.0349 26.4979 38.0349 27.5088 38.0349C28.4803 38.0586 29.4499 38.1305 30.4136 38.2503C29.4363 38.19 28.45 38.171 27.4692 38.1693V38.1848ZM22.7649 35.2081C21.1764 35.1978 19.5788 35.2857 17.9795 35.4219H18.0246C19.0379 35.3891 20.0494 35.3598 21.0574 35.3564C24.0289 35.3443 26.9805 35.5494 29.8619 36.4629C27.7052 35.959 25.4896 35.7226 23.2698 35.7597C21.0033 35.7597 18.7188 35.9579 16.418 36.1285C16.7191 35.758 16.9589 35.4391 17.2312 35.1392C17.3067 35.0862 17.3992 35.06 17.4927 35.0651C19.0866 34.9703 20.6805 34.81 22.2763 34.8031C25.0307 34.8014 27.7636 35.2683 30.3469 36.182C30.4263 36.2094 30.502 36.2459 30.5723 36.2906C27.9939 35.5063 25.383 35.2219 22.7649 35.2081ZM25.4172 34.6721C24.3917 34.5385 23.3581 34.47 22.3231 34.467C20.6029 34.4714 18.8843 34.5675 17.1753 34.7548C17.5359 34.3429 17.8316 33.9861 18.1472 33.6414C18.2245 33.5929 18.3166 33.5711 18.4086 33.5793C18.7224 33.5793 19.0343 33.569 19.3462 33.569C24.1012 33.5612 28.7883 34.6472 33.0119 36.7352C33.0375 36.7474 33.0622 36.7612 33.0858 36.7766C30.6356 35.7515 28.0539 35.042 25.4082 34.6669L25.4172 34.6721ZM33.2932 36.525C28.863 34.1498 24.11 33.1415 19.074 33.1587C18.744 33.1587 18.414 33.1587 18.0805 33.1743C18.4411 32.814 18.8017 32.4503 19.1623 32.1004C19.2141 32.0628 19.2776 32.0428 19.3426 32.0436H19.3715C23.313 32.3211 27.1158 33.1157 30.6318 34.9117C31.5586 35.3857 32.4439 35.932 33.3472 36.444L33.2932 36.525ZM19.0343 31.7471C19.5518 31.2111 20.0044 30.7267 20.4768 30.2648C20.5585 30.2017 20.6602 30.1671 20.7653 30.1666C20.791 30.1639 20.817 30.1639 20.8428 30.1666C21.7245 30.3389 22.617 30.4871 23.4717 30.7457C27.1644 31.8626 30.5308 33.5655 33.4807 35.9872C33.7674 36.2216 34.0378 36.4767 34.3047 36.7421C29.8529 33.3828 24.7267 31.8833 19.0253 31.7471H19.0343ZM35.8499 37.7125C35.4983 37.697 35.6083 37.3782 35.6083 37.1713L36.0717 37.1903C36.0609 37.3833 36.1745 37.697 35.8409 37.7125H35.8499ZM36.4973 37.1955L35.2513 37.1541C31.3693 33.3311 26.811 30.9698 21.6217 29.8098C21.1818 29.7184 19.8006 29.465 18.5439 29.6374L20.3289 29.9649L18.3906 31.9212L18.7819 32.0177L17.3087 33.5448L17.7072 33.6069L16.9553 34.5256C13.5908 28.6256 13.5547 18.6873 20.96 11.6929C24.8655 7.98424 30.1255 5.87122 35.63 5.79983C40.4388 5.74349 45.1226 7.26433 48.9007 10.1089C57.4041 16.4983 58.8177 27.1089 54.7265 34.6255L53.8899 33.6396L54.3623 33.581L52.9072 32.0574L53.4481 31.9901L51.5152 30.0235L53.1903 29.6495C52.2712 29.5491 51.3414 29.5839 50.4334 29.7529C48.1279 30.2031 45.899 30.9572 43.8106 31.9936C41.0627 33.3346 38.5762 35.0116 36.4882 37.1972L36.4973 37.1955ZM37.9037 36.3216C38.084 36.1716 38.2517 36.0199 38.432 35.8769C41.7848 33.1921 45.7407 31.2834 49.9916 30.2993C50.2155 30.2426 50.4453 30.2103 50.6768 30.2028C50.9242 30.1978 51.1685 30.2566 51.3839 30.3731C51.5994 30.4895 51.778 30.6593 51.9011 30.8646C52.121 31.1869 52.4528 31.4403 52.8026 31.8023C50.0121 31.771 47.2356 32.1852 44.5877 33.0278C42.0291 33.8292 39.7302 35.0857 37.5665 36.5991L37.9037 36.3216ZM40.6624 35.1392C43.2346 33.767 46.0441 32.8486 48.9566 32.4279C50.0204 32.2642 51.0987 32.1918 52.1679 32.0677C52.2702 32.063 52.3722 32.081 52.466 32.1201C52.5598 32.1593 52.6429 32.2186 52.7089 32.2935C53.0154 32.5848 53.3598 32.8399 53.6879 33.1105C53.6609 33.1639 53.632 33.2174 53.6032 33.2708C52.9541 33.2409 52.3098 33.2288 51.6703 33.2346C47.1625 33.2742 42.882 34.2119 38.8683 36.3009C39.4561 35.9251 40.0295 35.4805 40.6534 35.1409L40.6624 35.1392ZM39.054 36.6198C40.7613 35.744 42.5677 35.0576 44.4381 34.5738C46.9299 33.9225 49.5017 33.5927 52.085 33.5931C52.4456 33.5931 52.8062 33.5971 53.1668 33.6052C53.2914 33.6014 53.4134 33.6398 53.5112 33.7138C53.8228 34.0452 54.1096 34.3971 54.3695 34.7669C53.0467 34.5801 51.7126 34.4759 50.3757 34.4549C46.4788 34.3801 42.6119 35.1195 39.045 36.6215L39.054 36.6198ZM40.7868 37.7418C42.4781 37.6091 44.1658 37.4178 45.8607 37.3592C47.1229 37.3144 48.376 37.2989 49.6346 37.304C51.7514 37.3144 53.8682 37.3885 55.9851 37.5074C56.297 37.5247 56.4377 37.6677 56.5765 37.9487C53.266 37.8315 49.9718 37.6195 46.6811 37.6039C44.7155 37.5848 42.7502 37.6683 40.794 37.8539C40.7832 37.8211 40.7796 37.7832 40.7778 37.7436L40.7868 37.7418ZM51.8091 38.3985C50.0511 38.3279 48.2931 38.2503 46.5351 38.2262C45.6461 38.2107 44.7572 38.2089 43.8683 38.2107H42.5665C42.1301 38.2107 41.6938 38.2107 41.2574 38.2107C42.3717 38.1469 43.4878 38.0383 44.604 38.0262C45.5307 38.0262 46.4581 38.0234 47.3861 38.0176C50.1611 38.0176 52.9379 38.0262 55.711 38.0314C55.8444 38.0314 55.9779 38.0573 56.1077 38.0573C56.1545 38.0616 56.2016 38.0616 56.2483 38.0573C56.2904 38.0548 56.3325 38.0548 56.3745 38.0573C56.7045 38.071 56.9029 38.2813 57.0687 38.6519C55.2729 38.5519 53.5365 38.4692 51.7947 38.4003L51.8091 38.3985Z" fill="#292728"/>
<path d="M10.4749 17.0444L10.0565 18.101L9.65625 17.9562L10.6768 15.3828L11.0753 15.5276L10.6552 16.5893L13.8917 17.7614L13.7114 18.2164L10.4749 17.0444Z" fill="#292728"/>
<path d="M11.0625 14.1567L11.3077 13.731L12.8331 14.5394V14.529C12.7427 14.388 12.6952 14.2256 12.6961 14.0602C12.6906 13.8854 12.7335 13.7124 12.8205 13.5586C13.0008 13.2449 13.4949 12.8502 14.3387 13.2949L15.792 14.0654L15.5522 14.5014L14.1494 13.7586C13.7545 13.55 13.3398 13.5138 13.109 13.9154C13.0364 14.0438 13.0082 14.1909 13.0286 14.3356C13.0491 14.4802 13.117 14.6149 13.2226 14.7203C13.2775 14.7785 13.3436 14.8259 13.4173 14.8599L14.8923 15.6407L14.6507 16.0527L11.0625 14.1567Z" fill="#292728"/>
<path d="M15.5695 12.1859C16.123 12.5737 16.6135 12.4013 16.92 12.0135C17.0867 11.8164 17.2067 11.587 17.2716 11.3413L17.6142 11.4844C17.5343 11.7794 17.3899 12.055 17.1905 12.2927C16.6712 12.9477 15.9103 13.0132 15.2395 12.5271C14.5688 12.0411 14.338 11.2775 14.8302 10.6587C15.3801 9.9693 16.1663 10.2416 16.5756 10.5381C16.6389 10.5845 16.6991 10.6346 16.7559 10.688L15.5695 12.1859ZM16.1789 10.8414C15.9247 10.6501 15.4397 10.4657 15.0971 10.9C14.7869 11.293 15.0285 11.7377 15.2774 11.9704L16.1789 10.8414Z" fill="#292728"/>
<path d="M19.0118 9.34982C19.3238 9.29416 19.6146 9.15965 19.8538 8.96028C20.2379 8.63452 20.2812 8.25015 20.0215 7.9692C19.7619 7.68826 19.4806 7.69343 18.9595 7.8813C18.3356 8.12433 17.8235 8.13812 17.4593 7.74686C17.0572 7.31251 17.1348 6.67305 17.6991 6.19561C17.9157 5.9997 18.1806 5.8592 18.4691 5.78711L18.6367 6.16803C18.3852 6.22683 18.1532 6.34541 17.9624 6.51275C17.5657 6.85747 17.6252 7.2022 17.8019 7.39524C18.0435 7.65378 18.3428 7.63137 18.8838 7.44005C19.5437 7.20392 20.0035 7.21771 20.3839 7.6262C20.7644 8.0347 20.795 8.70863 20.1099 9.29122C19.8548 9.51305 19.5443 9.66854 19.2083 9.7428L19.0118 9.34982Z" fill="#292728"/>
<path d="M20.8375 6.28841C20.641 6.00402 20.4769 5.77994 20.3164 5.57311L20.6969 5.33353L20.9799 5.70411H20.9908C20.9796 5.51386 21.0231 5.32432 21.1165 5.15601C21.21 4.9877 21.3498 4.84703 21.5209 4.74922C22.0834 4.39416 22.8227 4.57686 23.2879 5.26631C23.8415 6.06606 23.6034 6.78481 23.0535 7.13126C22.9166 7.22566 22.7565 7.28464 22.5888 7.30245C22.421 7.32027 22.2513 7.29633 22.0961 7.23295H22.0852L22.9201 8.43948L22.5018 8.70319L20.8375 6.28841ZM21.6669 6.61934C21.7062 6.67439 21.7509 6.72575 21.8004 6.77275C21.929 6.88631 22.0938 6.95533 22.2684 6.96877C22.443 6.9822 22.6172 6.93928 22.7632 6.84686C23.2104 6.56419 23.2302 6.05055 22.8768 5.53864C22.5703 5.09222 22.06 4.8647 21.6146 5.14738C21.4667 5.24574 21.3573 5.38858 21.3041 5.55318C21.2508 5.71778 21.2567 5.89467 21.3207 6.05572C21.3409 6.12058 21.37 6.18259 21.4073 6.24015L21.6669 6.61934Z" fill="#292728"/>
<path d="M26.6466 3.71709C27.0794 4.61337 26.6178 5.29075 26.0047 5.56136C25.3177 5.86299 24.5622 5.61479 24.1872 4.84778C23.7959 4.03596 24.1223 3.31549 24.8255 3.00696C25.5287 2.69844 26.2896 2.97594 26.6466 3.71709ZM24.647 4.62716C24.903 5.15976 25.4151 5.4183 25.8659 5.22008C26.3167 5.02187 26.4465 4.48582 26.1832 3.93944C25.9849 3.52922 25.5197 3.10176 24.9734 3.34307C24.427 3.58437 24.4252 4.16696 24.647 4.62716Z" fill="#292728"/>
<path d="M28.197 3.12433H28.2096C28.2474 3.01575 28.3051 2.87786 28.3556 2.76582L28.8623 1.65754L29.4483 1.48518L28.7451 2.83477L30.3967 4.00165L29.8053 4.17401L28.4963 3.21224L28.3304 3.54834L28.6333 4.51012L28.1519 4.64801L26.9727 0.897425L27.4541 0.757812L28.197 3.12433Z" fill="#292728"/>
<path d="M31.1371 2.60812C31.2579 3.25448 31.7357 3.45442 32.237 3.37686C32.5003 3.34456 32.7531 3.25812 32.9781 3.12348L33.1223 3.45442C32.851 3.61414 32.5475 3.71749 32.2316 3.75777C31.3823 3.88877 30.7891 3.43373 30.6521 2.63742C30.5151 1.84112 30.9027 1.14133 31.7069 1.01723C32.6084 0.87934 32.9691 1.59981 33.0556 2.08415C33.0674 2.15891 33.074 2.23434 33.0754 2.30994L31.1371 2.60812ZM32.5507 2.03933C32.5039 1.73253 32.2875 1.27922 31.7249 1.36712C31.2165 1.44468 31.0704 1.92557 31.0866 2.2634L32.5507 2.03933Z" fill="#292728"/>
<path d="M34.2157 1.5196C34.2157 1.2421 34.2013 1.01631 34.1797 0.797407L34.6305 0.788788L34.6665 1.23003H34.6791C34.7675 1.07218 34.8994 0.940512 35.0606 0.849344C35.2218 0.758176 35.406 0.711 35.5933 0.712949C35.9792 0.712949 36.5832 0.916335 36.5994 1.8333L36.6283 3.42592L36.1198 3.43454L36.0928 1.89535C36.0928 1.46617 35.9125 1.10938 35.4328 1.118C35.2786 1.12281 35.13 1.17479 35.0089 1.26632C34.8879 1.35784 34.8007 1.48407 34.7603 1.62646C34.737 1.69958 34.7267 1.77589 34.7296 1.85226L34.7585 3.45694H34.2518L34.2157 1.5196Z" fill="#292728"/>
<path d="M40.5666 0.0982472L40.233 1.6202L42.0739 1.98905L42.4075 0.4671L42.9052 0.56707L42.1064 4.20562L41.6105 4.10565L41.9838 2.39927L40.1428 2.03042L39.7678 3.7368L39.2773 3.63855L40.0743 0L40.5666 0.0982472Z" fill="#292728"/>
<path d="M43.9724 3.48658C43.738 4.10363 44.0481 4.50523 44.5223 4.67759C44.7676 4.77527 45.0321 4.82113 45.2977 4.81203L45.249 5.1671C44.9304 5.17592 44.6134 5.12072 44.3186 5.00508C43.5144 4.71379 43.2367 4.03296 43.5342 3.28147C43.8317 2.52997 44.5331 2.10251 45.2941 2.38001C46.1469 2.68854 46.0892 3.4883 45.9071 3.94678C45.8773 4.01739 45.8436 4.08644 45.8061 4.15361L43.9724 3.48658ZM45.4924 3.66755C45.6132 3.37971 45.6619 2.88503 45.1318 2.69026C44.6504 2.5179 44.2735 2.86263 44.1094 3.16426L45.4924 3.66755Z" fill="#292728"/>
<path d="M46.1758 5.72008L47.4379 3.3346L47.8905 3.55177L46.6374 5.93725L46.1758 5.72008ZM48.2872 2.90714C48.2698 2.94401 48.2445 2.97693 48.2128 3.00375C48.1811 3.03057 48.1439 3.05066 48.1035 3.06272C48.0631 3.07477 48.0205 3.0785 47.9785 3.07367C47.9366 3.06884 47.8961 3.05555 47.8599 3.03469C47.8232 3.01755 47.7904 2.99349 47.7637 2.96396C47.737 2.93442 47.7168 2.90002 47.7043 2.86282C47.6918 2.82562 47.6874 2.7864 47.6912 2.74751C47.695 2.70863 47.707 2.67087 47.7264 2.63653C47.7442 2.60021 47.7696 2.56775 47.801 2.54112C47.8323 2.5145 47.8691 2.49427 47.9089 2.48168C47.9487 2.4691 47.9908 2.46442 48.0326 2.46793C48.0744 2.47144 48.115 2.48306 48.152 2.50209C48.19 2.5188 48.224 2.54291 48.2517 2.57287C48.2794 2.60283 48.3003 2.63799 48.313 2.6761C48.3258 2.71421 48.33 2.75444 48.3256 2.79422C48.3211 2.834 48.3081 2.87246 48.2872 2.90714Z" fill="#292728"/>
<path d="M48.5948 4.86845C48.7661 4.59956 48.9067 4.36515 49.0275 4.14453L49.408 4.36515L49.1375 4.82191L49.1573 4.83225C49.2869 4.71678 49.4514 4.64344 49.6273 4.6227C49.8031 4.60196 49.9813 4.63488 50.1364 4.71677C50.1785 4.73996 50.2168 4.769 50.25 4.80295L50.0012 5.19421C49.9594 5.15547 49.9128 5.12189 49.8623 5.09424C49.5576 4.92188 49.1988 5.01151 48.9428 5.28901C48.89 5.34231 48.8424 5.4 48.8003 5.46137L48.0268 6.67824L47.5977 6.43004L48.5948 4.86845Z" fill="#292728"/>
<path d="M51.7929 4.36914L52.204 4.65354L49.8095 7.83016L49.3984 7.54576L51.7929 4.36914Z" fill="#292728"/>
<path d="M53.5658 9.08628C52.8752 9.82054 52.0422 9.68265 51.5391 9.25864C50.9784 8.77431 50.9153 8.00902 51.5049 7.38163C52.1305 6.71631 52.9473 6.71804 53.5279 7.20927C54.1085 7.7005 54.1392 8.47957 53.5658 9.08628ZM51.8998 7.69016C51.4905 8.12451 51.4436 8.67779 51.8114 8.99493C52.1792 9.31208 52.7472 9.21383 53.1673 8.76742C53.4847 8.42269 53.7083 7.85218 53.2647 7.46954C52.8211 7.08689 52.255 7.31269 51.8998 7.69016Z" fill="#292728"/>
<path d="M55.9773 11.7765C55.1821 12.4056 54.3797 12.1523 53.9488 11.6541C53.4674 11.0974 53.5233 10.3304 54.2048 9.79436C54.9261 9.22557 55.7375 9.34278 56.2297 9.91157C56.7219 10.4804 56.6354 11.2577 55.9773 11.7765ZM54.5456 10.1615C54.0732 10.5338 53.9416 11.075 54.2571 11.4404C54.5727 11.8058 55.1478 11.7851 55.6329 11.4059C55.9935 11.1181 56.3108 10.5769 55.9286 10.1356C55.5463 9.69439 54.9549 9.8478 54.5456 10.1615Z" fill="#292728"/>
<path d="M57.2896 12.4724C57.542 12.3397 57.7458 12.2242 57.9405 12.1035L58.1551 12.4758L57.7728 12.7033V12.7171C57.9525 12.7136 58.1297 12.7582 58.2842 12.8459C58.4388 12.9337 58.5645 13.061 58.6473 13.2135C58.7332 13.3581 58.7692 13.5249 58.7501 13.6902C58.731 13.8555 58.6578 14.0108 58.5409 14.1339V14.1426C58.7023 14.1414 58.8621 14.1732 59.0097 14.2356C59.2138 14.3206 59.3804 14.4712 59.4803 14.6614C59.6606 14.9699 59.7111 15.5404 58.8637 15.9885L57.4212 16.7504L57.1814 16.335L58.5644 15.6025C59.0332 15.3543 59.2225 15.0406 59.0241 14.6993C58.9532 14.5886 58.8484 14.5014 58.7239 14.4496C58.5994 14.3978 58.4612 14.3839 58.3281 14.4097C58.2502 14.4303 58.1756 14.461 58.1064 14.5011L56.5972 15.2991L56.3574 14.8837L57.8215 14.1098C58.2109 13.9047 58.3985 13.5927 58.2109 13.267C58.1338 13.1496 58.0201 13.0584 57.8859 13.0062C57.7516 12.9539 57.6036 12.9432 57.4627 12.9757C57.3795 12.9889 57.2995 13.0164 57.2265 13.0567L55.7515 13.8375L55.5117 13.4221L57.2896 12.4724Z" fill="#292728"/>
<path d="M31.2531 17.5825V17.6825H30.7086V18.8442L30.6527 18.6701L30.5625 18.0927L30.6256 17.5566H30.8726L31.2531 17.5825Z" fill="black"/>
<path d="M42.3853 17.6973H41.9922V18.3143H42.3853V17.6973Z" fill="#F8EDCD"/>
<path d="M41.9922 18.3164V18.9266V18.9335H42.3853V18.3164H41.9922Z" fill="#BF9F4A"/>
<path d="M29.7197 18.3887H29.2617V18.9816H29.7197V18.3887Z" fill="#BF9F4A"/>
<path d="M29.7197 17.7969H29.2617V18.3898H29.7197V17.7969Z" fill="#F8EDCD"/>
<path d="M31.2271 17.6445L31.1676 17.6825H30.7619V18.0927C30.7565 18.1914 30.7565 18.2904 30.7619 18.3891H31.2325L31.2271 17.6445Z" fill="#F8EDCD"/>
<path d="M30.7578 18.3887C30.7578 18.5386 30.7578 18.6903 30.7578 18.8437H31.223V18.3887H30.7578Z" fill="#BF9F4A"/>
<path d="M40.8982 17.7559H40.4727V18.3178H40.8982V17.7559Z" fill="#F8EDCD"/>
<path d="M40.4727 18.3164V18.899L40.8982 18.868V18.3164H40.4727Z" fill="#BF9F4A"/>
<path d="M36.8945 24.2388V24.9283C39.4477 24.6577 41.3482 21.9137 40.8884 19.168H40.4466C40.645 21.7551 39.6154 23.5597 36.8945 24.2388Z" fill="white"/>
<path d="M41.6984 17.0858C41.6984 17.0669 41.6641 17.0445 41.6353 17.0117H41.2043C41.2043 17.2048 41.2043 17.3564 41.2043 17.5185C41.2043 17.7856 41.2043 18.0545 41.1953 18.3217H41.7074C41.6984 17.9028 41.6858 17.4909 41.6984 17.0858Z" fill="#F8EDCD"/>
<path d="M30.5058 17.002L30.046 17.0261C30.0298 17.1012 30.0183 17.1772 30.0117 17.2536C30.0117 17.6311 30.0117 18.0103 30.0117 18.3895H30.5166C30.4931 17.9361 30.5058 17.4811 30.5058 17.002Z" fill="#F8EDCD"/>
<path d="M41.7039 18.3164H41.1918C41.1918 19.1041 41.1918 19.8918 41.1395 20.6778C40.9971 23.1787 38.8712 25.1092 36.0909 25.3057C33.5882 25.478 31.1089 23.732 30.6816 21.3724C30.5013 20.4227 30.5572 19.4316 30.5211 18.4595C30.5211 18.4371 30.5211 18.4129 30.5211 18.3888H30.0216C30.0126 19.1989 30.0054 20.0107 30.0649 20.8156C30.2615 23.5234 32.3224 25.4591 35.2795 25.7969C36.59 25.9371 37.9114 25.6462 39.0258 24.9723C40.1403 24.2983 40.9812 23.2815 41.41 22.0894C41.8193 20.8518 41.7454 19.5815 41.7039 18.3164Z" fill="#BF9F4A"/>
<path d="M40.1006 11.7885C40.088 11.0991 39.6282 10.1011 38.9899 9.74604C37.8248 9.13517 36.5055 8.84464 35.1782 8.90664C33.6113 8.97386 32.0083 9.85118 31.6261 11.349C31.5728 11.5786 31.5492 11.8137 31.5558 12.0488L31.6585 20.6858C31.7157 21.2137 31.8985 21.722 32.1929 22.172C32.4873 22.6219 32.8855 23.0014 33.357 23.2816C34.6787 24.1072 36.1104 24.1313 37.5402 23.6625C38.916 23.2109 39.7346 22.2181 40.0032 20.8582C40.106 20.3411 40.0609 19.7913 40.1096 19.2604L40.1006 11.7885Z" fill="url(#paint0_linear_1616_11338)"/>
<path d="M31.2492 19.1211H30.8183C30.3729 22.065 32.2878 24.7349 35.0069 24.9676V24.2575C32.1418 23.6352 31.0599 21.7944 31.2492 19.1211Z" fill="white"/>
<path d="M35.7813 26.0488H34.9609V27.6483H35.7813V26.0488Z" fill="#F8EDCD"/>
<path d="M36.6017 26.0488H35.7812V27.6483H36.6017V26.0488Z" fill="#BF9F4A"/>
<path d="M35.4918 27.9941V36.938C35.4918 37.1827 35.362 37.5636 35.7785 37.5826V27.9941H35.4918Z" fill="#F8EDCD"/>
<path d="M36.1082 36.9608L36.0992 27.998H35.7891V37.5865H35.8179C36.247 37.5848 36.1082 37.1952 36.1082 36.9608Z" fill="#BF9F4A"/>
<path d="M42.6346 18.1853C42.6346 17.5631 42.6346 17.5631 41.98 17.4803C41.953 17.1356 42.0936 16.7237 41.4391 16.7392H41.385C40.7972 16.7495 40.9234 17.1201 40.8838 17.4441L40.808 17.4924C40.6934 17.4833 40.5782 17.4833 40.4636 17.4924V17.0443C40.4636 15.4258 40.4636 13.8073 40.4636 12.1906C40.4636 11.0151 39.9732 10.0981 39.0104 9.51552C38.8949 9.44387 38.7744 9.37994 38.6497 9.3242C38.6178 9.30608 38.5847 9.28996 38.5506 9.27594C38.3703 9.19838 38.1899 9.12599 38.0096 9.06394C37.8906 9.02085 37.7716 8.98465 37.649 8.94845C37.4382 8.88544 37.2239 8.83366 37.0071 8.79333L36.6465 8.73645C36.5834 8.73645 36.5185 8.72094 36.4536 8.71577C36.3544 8.70543 36.257 8.69853 36.1579 8.69336H36.1326H36.0064C35.9307 8.69336 35.8567 8.69336 35.7846 8.69336H35.6494C35.6007 8.69336 35.5502 8.69336 35.5033 8.69336C35.4565 8.69336 35.3933 8.69336 35.3375 8.7037C35.2293 8.7037 35.1211 8.72439 35.0129 8.73818C34.9552 8.73818 34.8957 8.75196 34.8326 8.76058L34.6523 8.79161C34.4353 8.83053 34.221 8.88175 34.0104 8.94501L33.9689 8.9588C33.895 8.97948 33.8247 9.00189 33.7525 9.02774L33.6624 9.06049C33.4532 9.13633 33.2423 9.22251 33.0313 9.32075C33.0313 9.32075 33.0223 9.32075 33.0205 9.32075C32.9003 9.38166 32.7801 9.44543 32.6599 9.51208H32.649L32.539 9.58102C32.4991 9.60548 32.4606 9.63194 32.4237 9.66031L32.3732 9.6965C32.3281 9.72925 32.2866 9.762 32.2451 9.79647C32.2307 9.80601 32.2174 9.81699 32.2055 9.82922C32.171 9.85521 32.1391 9.88404 32.1099 9.9154C32.0781 9.94118 32.048 9.96881 32.0198 9.99814C31.9784 10.0368 31.9392 10.0777 31.9026 10.1205C31.8561 10.1709 31.8127 10.2239 31.7727 10.2791C31.7653 10.2835 31.7596 10.2902 31.7565 10.298C31.7135 10.3496 31.675 10.4044 31.6411 10.4618C31.6062 10.5117 31.5743 10.5635 31.5455 10.6169C31.5149 10.6738 31.4842 10.7307 31.459 10.7893C31.4382 10.8261 31.4213 10.8647 31.4085 10.9048C31.388 10.9492 31.37 10.9947 31.3544 11.0409C31.3328 11.0978 31.3147 11.1564 31.2985 11.2133C31.2823 11.2702 31.2787 11.284 31.2697 11.3201C31.2607 11.3563 31.2697 11.3563 31.2589 11.3719C31.248 11.4149 31.2372 11.458 31.23 11.5028C31.2161 11.566 31.2059 11.6299 31.1994 11.6942C31.1876 11.7713 31.1804 11.849 31.1777 11.9269C31.1777 12.0027 31.1687 12.0785 31.1687 12.1561V12.2061C31.1831 13.8246 31.1777 15.4413 31.1795 17.0598C31.1795 17.1908 31.1795 17.3218 31.1795 17.4752H30.8189C30.6837 16.7392 30.6837 16.7616 30.1788 16.7478H30.1247C29.5081 16.7323 29.7767 17.1994 29.6703 17.4562C29.6433 17.4717 29.6198 17.4959 29.5982 17.4959C28.9437 17.5527 28.9437 17.5527 28.9455 18.206C28.9455 18.2835 28.9455 18.3628 28.9455 18.4438C28.9455 19.1764 28.9455 19.1764 29.701 19.2763C29.4864 22.6495 30.8946 24.9953 34.4792 25.964V27.4428C34.4792 27.9599 34.4792 27.9599 35.0201 27.9961L35.0652 37.5777C35.0656 37.765 35.1433 37.9446 35.2814 38.0775C35.4194 38.2104 35.6067 38.286 35.8026 38.2878C35.9008 38.2887 35.9982 38.2711 36.0893 38.236C36.1803 38.2008 36.2632 38.1489 36.3332 38.0831C36.4033 38.0173 36.459 37.9389 36.4973 37.8525C36.5356 37.7661 36.5556 37.6732 36.5563 37.5794L36.6285 28.0633C36.9891 28.0426 37.0702 27.8375 37.054 27.5273C37.0306 27.0998 37.054 26.6655 37.054 26.2432C37.0455 26.2018 37.0462 26.1592 37.056 26.1181C37.0659 26.077 37.0847 26.0384 37.1113 26.0047C37.1378 25.9711 37.1715 25.9431 37.2101 25.9227C37.2487 25.9023 37.2913 25.89 37.3353 25.8864C40.204 25.159 41.9079 23.0683 41.9674 20.2295C41.9674 19.8968 41.9674 19.5625 41.9674 19.2143C41.9854 19.2126 42.0035 19.2126 42.0215 19.2143C42.072 19.2143 42.1189 19.2143 42.1604 19.2143C42.2176 19.2184 42.2749 19.2077 42.3262 19.1833C42.4452 19.1178 42.5967 19.0109 42.6165 18.904C42.645 18.6655 42.651 18.4249 42.6346 18.1853ZM29.6649 18.9816H29.2556V17.7923H29.6595L29.6649 18.9816ZM40.4727 17.7527H40.8423V18.8661L40.4727 18.8937V17.7527ZM40.8333 19.1695C41.2877 21.8962 39.4179 24.6178 36.8917 24.9212V24.2317C39.6126 23.5526 40.6421 21.7463 40.4456 19.1643L40.8333 19.1695ZM32.3876 10.0895L32.6599 9.8206L32.7771 9.70512C32.7771 9.78441 32.7771 9.85335 32.7771 9.91713C32.851 9.87748 32.9321 9.83784 33.0223 9.79647C33.1124 9.75511 33.2026 9.71029 33.2964 9.66893C33.4139 9.61375 33.5342 9.56427 33.657 9.52069C33.6713 9.51294 33.6864 9.50659 33.702 9.50173C33.8012 9.46726 33.904 9.42934 34.0122 9.39659L34.1925 9.33799C34.3241 9.30007 34.4611 9.2656 34.6018 9.23285H34.6469C34.7623 9.20527 34.8831 9.18459 35.0075 9.16563C35.0378 9.15823 35.0685 9.15247 35.0994 9.14839C35.2383 9.12771 35.3753 9.11392 35.516 9.10358C35.561 9.10358 35.6025 9.10358 35.6476 9.10358C35.7648 9.10358 35.8838 9.09324 36.0082 9.09324C36.1416 9.09324 36.2769 9.09324 36.4139 9.1122C36.4932 9.1122 36.5726 9.12599 36.6501 9.13633C36.7276 9.14667 36.8304 9.15701 36.9115 9.17425C36.9425 9.17892 36.9733 9.18525 37.0035 9.19321C37.1027 9.21217 37.2037 9.23285 37.3046 9.26043C37.4205 9.2888 37.5349 9.32274 37.6472 9.36212C37.6977 9.37763 37.7518 9.39659 37.8023 9.41555L38.0042 9.48967L38.217 9.58447C38.3576 9.65169 38.5001 9.72408 38.6443 9.80681L38.7345 9.85852C38.7327 9.82982 38.7327 9.80104 38.7345 9.77234C38.8304 9.80187 38.9215 9.84423 39.0049 9.89817C39.1151 9.96749 39.2167 10.0484 39.3079 10.1395C39.7519 10.5923 40.0133 11.1811 40.0453 11.801L40.0579 19.2729C40.0057 19.8055 40.0579 20.3502 39.9498 20.8707C39.6829 22.2306 38.8679 23.2234 37.4885 23.675C36.9009 23.8729 36.2832 23.9765 35.6602 23.9818C34.8394 23.968 34.04 23.7287 33.3577 23.2924C32.8858 23.0126 32.4873 22.6332 32.1928 22.1832C31.8984 21.7332 31.7158 21.2246 31.6591 20.6966L31.5528 11.7838C31.6059 11.1408 31.9035 10.5387 32.3894 10.0912L32.3876 10.0895ZM30.7648 18.0905V17.6803H31.1705V18.8472H30.7576C30.763 18.5886 30.7414 18.337 30.763 18.0922L30.7648 18.0905ZM30.8189 19.1247H31.1957C31.0154 21.798 32.0883 23.6371 34.9516 24.2628V24.966C32.2632 24.6954 30.3735 22.0462 30.8171 19.1195L30.8189 19.1247ZM35.7864 37.5846C35.3717 37.5673 35.5033 37.1881 35.5033 36.9417V27.9978H36.0443L36.0533 36.9606C36.0479 37.1881 36.1831 37.5639 35.7846 37.5794L35.7864 37.5846ZM36.5491 27.6548H34.9624V26.0484H36.5491V27.6548ZM41.3363 22.0841C40.9365 23.1916 40.1805 24.1499 39.1766 24.8219C38.1727 25.494 36.9722 25.8455 35.7468 25.8261C35.5845 25.8261 35.4204 25.8088 35.2581 25.7916C32.301 25.4469 30.2401 23.5182 30.0436 20.8086C29.957 19.6262 30.0129 18.4335 30.0057 17.2459C30.0107 17.17 30.0215 17.0945 30.0382 17.0201L30.4421 16.9977C30.4421 17.4993 30.4294 17.9785 30.4421 18.4525C30.4781 19.4246 30.424 20.4157 30.6007 21.3654C31.0136 23.5905 33.2405 25.2694 35.5899 25.3073C35.751 25.3133 35.9124 25.3098 36.0731 25.2969C38.8553 25.1004 40.9847 23.1717 41.1218 20.669C41.1831 19.6176 41.1668 18.5628 41.1831 17.5062C41.1831 17.3493 41.1831 17.1908 41.1831 16.9891H41.5599C41.5906 17.0253 41.623 17.046 41.623 17.0649C41.5906 18.7524 41.9079 20.4467 41.3363 22.0841ZM42.3316 18.9247H41.9927V17.6906H42.3316V18.9247Z" fill="#292728"/>
<path d="M34.9096 12.0869C34.9096 12.0343 34.8878 11.9839 34.8489 11.9467C34.81 11.9096 34.7573 11.8887 34.7023 11.8887H31.4766V12.2868H34.7023C34.7297 12.2868 34.7568 12.2816 34.7821 12.2716C34.8073 12.2615 34.8303 12.2467 34.8496 12.2282C34.8688 12.2096 34.8841 12.1875 34.8944 12.1633C34.9047 12.139 34.9099 12.1131 34.9096 12.0869Z" fill="#292728"/>
<path d="M34.7023 13.0039H31.4766V13.4003H34.7023C34.7296 13.4006 34.7567 13.3956 34.7819 13.3857C34.8072 13.3758 34.8302 13.3612 34.8495 13.3428C34.8688 13.3243 34.884 13.3024 34.8944 13.2783C34.9047 13.2541 34.9099 13.2282 34.9096 13.2021C34.9099 13.176 34.9047 13.1502 34.8944 13.126C34.884 13.1019 34.8688 13.0799 34.8495 13.0615C34.8302 13.043 34.8072 13.0284 34.7819 13.0185C34.7567 13.0087 34.7296 13.0037 34.7023 13.0039Z" fill="#292728"/>
<path d="M34.7023 14.1172H31.4766V14.5153H34.7023C34.7573 14.5153 34.81 14.4945 34.8489 14.4573C34.8878 14.4201 34.9096 14.3697 34.9096 14.3171C34.9099 14.291 34.9047 14.265 34.8944 14.2407C34.8841 14.2165 34.8688 14.1944 34.8496 14.1759C34.8303 14.1573 34.8073 14.1425 34.7821 14.1324C34.7568 14.1224 34.7297 14.1172 34.7023 14.1172Z" fill="#292728"/>
<path d="M34.7023 15.2305H31.4766V15.6269H34.7023C34.7296 15.6271 34.7567 15.6222 34.7819 15.6123C34.8072 15.6024 34.8302 15.5878 34.8495 15.5694C34.8688 15.5509 34.884 15.529 34.8944 15.5048C34.9047 15.4807 34.9099 15.4548 34.9096 15.4287C34.9096 15.4027 34.9043 15.3769 34.8939 15.3528C34.8834 15.3288 34.8682 15.3069 34.8489 15.2885C34.8297 15.2701 34.8068 15.2555 34.7816 15.2456C34.7565 15.2356 34.7295 15.2305 34.7023 15.2305Z" fill="#292728"/>
<path d="M34.7023 16.3418H31.4766V16.7417H34.7023C34.7573 16.7417 34.81 16.7208 34.8489 16.6836C34.8878 16.6464 34.9096 16.596 34.9096 16.5435C34.9101 16.5171 34.9051 16.491 34.8949 16.4665C34.8847 16.4421 34.8695 16.4198 34.8502 16.4011C34.8309 16.3823 34.8079 16.3674 34.7825 16.3572C34.7571 16.347 34.7298 16.3418 34.7023 16.3418Z" fill="#292728"/>
<path d="M34.7023 17.4551H31.4766V17.8515H34.7023C34.7296 17.8517 34.7567 17.8468 34.7819 17.8369C34.8072 17.827 34.8302 17.8124 34.8495 17.794C34.8688 17.7755 34.884 17.7536 34.8944 17.7294C34.9047 17.7053 34.9099 17.6794 34.9096 17.6533C34.9096 17.6007 34.8878 17.5503 34.8489 17.5131C34.81 17.476 34.7573 17.4551 34.7023 17.4551Z" fill="#292728"/>
<path d="M34.7023 18.5664H31.4766V18.9646H34.7023C34.7573 18.9646 34.81 18.9437 34.8489 18.9065C34.8878 18.8693 34.9096 18.8189 34.9096 18.7663C34.9099 18.7402 34.9047 18.7142 34.8944 18.69C34.8841 18.6657 34.8688 18.6437 34.8496 18.6251C34.8303 18.6065 34.8073 18.5917 34.7821 18.5817C34.7568 18.5716 34.7297 18.5664 34.7023 18.5664Z" fill="#292728"/>
<path d="M36.7578 12.0869C36.7578 12.0343 36.7797 11.9839 36.8186 11.9467C36.8574 11.9096 36.9102 11.8887 36.9652 11.8887H40.1909V12.2868H36.9652C36.9378 12.2868 36.9107 12.2816 36.8854 12.2716C36.8601 12.2615 36.8372 12.2467 36.8179 12.2282C36.7986 12.2096 36.7834 12.1875 36.7731 12.1633C36.7628 12.139 36.7576 12.1131 36.7578 12.0869Z" fill="#292728"/>
<path d="M36.9652 13.0039H40.1909V13.4003H36.9652C36.9379 13.4006 36.9108 13.3956 36.8855 13.3857C36.8603 13.3758 36.8373 13.3612 36.818 13.3428C36.7987 13.3243 36.7834 13.3024 36.7731 13.2783C36.7628 13.2541 36.7576 13.2282 36.7578 13.2021C36.7576 13.176 36.7628 13.1502 36.7731 13.126C36.7834 13.1019 36.7987 13.0799 36.818 13.0615C36.8373 13.043 36.8603 13.0284 36.8855 13.0185C36.9108 13.0087 36.9379 13.0037 36.9652 13.0039Z" fill="#292728"/>
<path d="M36.9652 14.1172H40.1909V14.5153H36.9652C36.9102 14.5153 36.8574 14.4945 36.8186 14.4573C36.7797 14.4201 36.7578 14.3697 36.7578 14.3171C36.7576 14.291 36.7628 14.265 36.7731 14.2407C36.7834 14.2165 36.7986 14.1944 36.8179 14.1759C36.8372 14.1573 36.8601 14.1425 36.8854 14.1324C36.9107 14.1224 36.9378 14.1172 36.9652 14.1172Z" fill="#292728"/>
<path d="M36.9652 15.2305H40.1909V15.6269H36.9652C36.9379 15.6271 36.9108 15.6222 36.8855 15.6123C36.8603 15.6024 36.8373 15.5878 36.818 15.5694C36.7987 15.5509 36.7834 15.529 36.7731 15.5048C36.7628 15.4807 36.7576 15.4548 36.7578 15.4287C36.7578 15.4027 36.7632 15.3769 36.7736 15.3528C36.784 15.3288 36.7993 15.3069 36.8186 15.2885C36.8378 15.2701 36.8607 15.2555 36.8858 15.2456C36.911 15.2356 36.9379 15.2305 36.9652 15.2305Z" fill="#292728"/>
<path d="M36.9652 16.3418H40.1909V16.7417H36.9652C36.9102 16.7417 36.8575 16.7208 36.8186 16.6836C36.7797 16.6464 36.7578 16.596 36.7578 16.5435C36.7574 16.5171 36.7624 16.491 36.7726 16.4665C36.7828 16.4421 36.798 16.4198 36.8173 16.4011C36.8366 16.3823 36.8596 16.3674 36.885 16.3572C36.9104 16.347 36.9377 16.3418 36.9652 16.3418Z" fill="#292728"/>
<path d="M36.9652 17.4551H40.1909V17.8515H36.9652C36.9379 17.8517 36.9108 17.8468 36.8855 17.8369C36.8603 17.827 36.8373 17.8124 36.818 17.794C36.7987 17.7755 36.7834 17.7536 36.7731 17.7294C36.7628 17.7053 36.7576 17.6794 36.7578 17.6533C36.7578 17.6007 36.7797 17.5503 36.8186 17.5131C36.8574 17.476 36.9102 17.4551 36.9652 17.4551Z" fill="#292728"/>
<path d="M36.9652 18.5664H40.1909V18.9646H36.9652C36.9102 18.9646 36.8574 18.9437 36.8186 18.9065C36.7797 18.8693 36.7578 18.8189 36.7578 18.7663C36.7576 18.7402 36.7628 18.7142 36.7731 18.69C36.7834 18.6657 36.7986 18.6437 36.8179 18.6251C36.8372 18.6065 36.8601 18.5917 36.8854 18.5817C36.9107 18.5716 36.9378 18.5664 36.9652 18.5664Z" fill="#292728"/>
<path d="M33.0169 9.33008V10.2143C33.0169 10.26 32.9979 10.3038 32.9641 10.3362C32.9302 10.3685 32.8844 10.3867 32.8366 10.3867C32.7887 10.3867 32.7429 10.3685 32.7091 10.3362C32.6752 10.3038 32.6562 10.26 32.6562 10.2143V9.52485C32.7704 9.4536 32.8907 9.38868 33.0169 9.33008Z" fill="#292728"/>
<path d="M34.0169 8.94531V10.2104C34.0169 10.2562 33.9979 10.3 33.9641 10.3323C33.9302 10.3646 33.8844 10.3828 33.8366 10.3828C33.7887 10.3828 33.7429 10.3646 33.7091 10.3323C33.6752 10.3 33.6562 10.2562 33.6562 10.2104V9.06079C33.7807 9.0177 33.8979 8.98496 34.0169 8.94531Z" fill="#292728"/>
<path d="M35.013 8.73828V10.2102C35.013 10.256 34.994 10.2998 34.9601 10.3321C34.9263 10.3644 34.8805 10.3826 34.8327 10.3826C34.7848 10.3826 34.739 10.3644 34.7052 10.3321C34.6713 10.2998 34.6523 10.256 34.6523 10.2102V8.79171C34.7713 8.76692 34.8917 8.74908 35.013 8.73828Z" fill="#292728"/>
<path d="M36.013 8.69393V10.2107C36.013 10.2564 35.994 10.3003 35.9601 10.3326C35.9263 10.3649 35.8805 10.3831 35.8327 10.3831C35.7848 10.3831 35.739 10.3649 35.7052 10.3326C35.6713 10.3003 35.6523 10.2564 35.6523 10.2107V8.69048H35.7876C35.8633 8.68876 35.9372 8.68876 36.013 8.69393Z" fill="#292728"/>
<path d="M37.0091 8.80102V10.2109C37.0091 10.2566 36.9901 10.3005 36.9562 10.3328C36.9224 10.3651 36.8766 10.3833 36.8287 10.3833C36.7809 10.3833 36.7351 10.3651 36.7013 10.3328C36.6674 10.3005 36.6484 10.2566 36.6484 10.2109V8.74414L37.0091 8.80102Z" fill="#292728"/>
<path d="M38.0091 9.07056V10.2099C38.0091 10.2556 37.9901 10.2994 37.9562 10.3317C37.9224 10.3641 37.8766 10.3822 37.8287 10.3822C37.7809 10.3822 37.7351 10.3641 37.7012 10.3317C37.6674 10.2994 37.6484 10.2556 37.6484 10.2099V8.95508C37.7692 8.98438 37.8901 9.02747 38.0091 9.07056Z" fill="#292728"/>
<path d="M39.0051 9.52312V10.2126C39.0051 10.2583 38.9862 10.3021 38.9523 10.3344C38.9185 10.3668 38.8727 10.3849 38.8248 10.3849C38.777 10.3849 38.7312 10.3668 38.6973 10.3344C38.6635 10.3021 38.6445 10.2583 38.6445 10.2126V9.33008C38.7693 9.38637 38.8898 9.45087 39.0051 9.52312Z" fill="#292728"/>
<g opacity="0.3">
<path d="M39.0025 19.2051C38.9664 19.5257 38.9322 19.8376 38.8943 20.1496C38.6509 22.1697 37.7764 23.2108 35.9661 23.6399C35.8218 23.6727 35.6776 23.7089 35.5352 23.7434C36.2731 23.8152 37.0167 23.676 37.6718 23.3435C39.2766 22.5058 39.6841 21.1993 39.5308 19.2068L39.0025 19.2051Z" fill="white"/>
<path d="M32.5013 19.2656H31.8828C31.8828 20.7186 31.9639 22.0941 33.3668 23.0455C32.449 21.9131 32.5247 20.579 32.5013 19.2656Z" fill="white"/>
</g>
</g>
<defs>
<linearGradient id="paint0_linear_1616_11338" x1="31.5558" y1="16.4337" x2="40.1096" y2="16.4337" gradientUnits="userSpaceOnUse">
<stop stop-color="#F8EDCD"/>
<stop offset="1" stop-color="#BF9F4A"/>
</linearGradient>
<clipPath id="clip0_1616_11338">
<rect width="73" height="51" fill="white"/>
</clipPath>
</defs>
</svg>
