<svg width="31" height="31" viewBox="0 0 31 31" fill="none" xmlns="http://www.w3.org/2000/svg">
<path d="M10.9792 28.4173C14.9027 28.4173 18.0833 25.2367 18.0833 21.3132C18.0833 17.3896 14.9027 14.209 10.9792 14.209C7.05564 14.209 3.875 17.3896 3.875 21.3132C3.875 25.2367 7.05564 28.4173 10.9792 28.4173Z" stroke="#7A8872" stroke-width="1.5" stroke-linecap="round" stroke-linejoin="round"/>
<path d="M20.0182 28.4173C23.9418 28.4173 27.1224 25.2367 27.1224 21.3132C27.1224 17.3896 23.9418 14.209 20.0182 14.209C16.0947 14.209 12.9141 17.3896 12.9141 21.3132C12.9141 25.2367 16.0947 28.4173 20.0182 28.4173Z" stroke="#7A8872" stroke-width="1.5" stroke-linecap="round" stroke-linejoin="round"/>
<path d="M15.5026 11.6257C15.5026 11.6257 20.6693 9.23219 20.6693 5.34686C20.6693 3.8214 19.5817 2.58398 18.0859 2.58398C16.8627 2.58398 16.0464 3.11615 15.5026 4.17919C14.9588 3.11615 14.1425 2.58398 12.9193 2.58398C11.4235 2.58398 10.3359 3.8214 10.3359 5.34686C10.3359 9.23219 15.5026 11.6257 15.5026 11.6257Z" stroke="#7A8872" stroke-width="1.5" stroke-linejoin="round"/>
</svg>
